SplineFontDB: 3.0
FontName: WireCS
FullName: Wire
FamilyName: Wire
Weight: Book
Copyright: Copyright (c) 2011 by Cyreal type foundry. All rights reserved.\nCyrillic Substitutions Added by Constantine Savkov
Version: 1.000
ItalicAngle: 0
UnderlinePosition: -103
UnderlineWidth: 102
Ascent: 1638
Descent: 410
InvalidEm: 0
LayerCount: 2
Layer: 0 1 "Back" 1
Layer: 1 1 "Fore" 0
XUID: [1021 230 1610532706 19399]
FSType: 4
OS2Version: 3
OS2_WeightWidthSlopeOnly: 0
OS2_UseTypoMetrics: 1
CreationTime: 1302258900
ModificationTime: 1547913550
PfmFamily: 17
TTFWeight: 400
TTFWidth: 5
LineGap: 0
VLineGap: 0
Panose: 2 0 0 0 0 0 0 0 0 0
OS2TypoAscent: 1821
OS2TypoAOffset: 0
OS2TypoDescent: -430
OS2TypoDOffset: 0
OS2TypoLinegap: 0
OS2WinAscent: 1821
OS2WinAOffset: 0
OS2WinDescent: 430
OS2WinDOffset: 0
HheadAscent: 1821
HheadAOffset: 0
HheadDescent: -430
HheadDOffset: 0
OS2SubXSize: 1434
OS2SubYSize: 1331
OS2SubXOff: 0
OS2SubYOff: 287
OS2SupXSize: 1434
OS2SupYSize: 1331
OS2SupXOff: 0
OS2SupYOff: 977
OS2StrikeYSize: 102
OS2StrikeYPos: 512
OS2Vendor: 'pyrs'
OS2CodePages: 00000003.00000000
OS2UnicodeRanges: 800000a7.10000043.00000000.00000000
Lookup: 258 0 0 "'kern' Horizontal Kerning in Latin lookup 0" { "'kern' Horizontal Kerning in Latin lookup 0 per glyph data 0"  "'kern' Horizontal Kerning in Latin lookup 0 per glyph data 1"  "'kern' Horizontal Kerning in Latin lookup 0 kerning class 2"  } ['kern' ('latn' <'dflt' > ) ]
MarkAttachClasses: 1
DEI: 91125
KernClass2: 21+ 19 "'kern' Horizontal Kerning in Latin lookup 0 kerning class 2"
 43 AE Egrave Eacute Ecircumflex Edieresis OE E
 10 C Ccedilla
 5 Eth D
 53 Ograve Oacute Ocircumflex Otilde Odieresis Oslash O Q
 37 Ugrave Uacute Ucircumflex Udieresis U
 3 W V
 8 Yacute Y
 50 a aacute acircumflex atilde adieresis agrave aring
 65 b o p eth ograve oacute ocircumflex otilde oslash thorn odieresis
 10 c ccedilla
 40 comma period quotesinglbase quotedblbase
 43 e ae egrave eacute ecircumflex edieresis oe
 27 guillemotleft guilsinglleft

StartChar: .notdef
Encoding: 65536 -1 0
Width: 590
Flags: W
HStem: 0 41<123 383.031> 983 41<206.969 467>
VStem: 82 41<41 895.193> 467 41<128.514 983>
LayerCount: 2
Fore
SplineSet
508 233 m 2,0,1
 508 189 508 189 497.5 147.5 c 128,-1,2
 487 106 487 106 462.5 73 c 128,-1,3
 438 40 438 40 396.5 20 c 128,-1,4
 355 0 355 0 293 0 c 2,5,-1
 82 0 l 1,6,-1
 82 791 l 2,7,8
 82 834 82 834 92 876 c 128,-1,9
 102 918 102 918 127 951 c 128,-1,10
 152 984 152 984 193.5 1004 c 128,-1,11
 235 1024 235 1024 297 1024 c 2,12,-1
 508 1024 l 1,13,-1
 508 233 l 2,0,1
293 41 m 2,14,15
 344 41 344 41 377.5 58 c 128,-1,16
 411 75 411 75 431 102 c 128,-1,17
 451 129 451 129 459 163.5 c 128,-1,18
 467 198 467 198 467 233 c 2,19,-1
 467 983 l 1,20,-1
 297 983 l 2,21,22
 246 983 246 983 212.5 966 c 128,-1,23
 179 949 179 949 159 922 c 128,-1,24
 139 895 139 895 131 860.5 c 128,-1,25
 123 826 123 826 123 791 c 2,26,-1
 123 41 l 1,27,-1
 293 41 l 2,14,15
EndSplineSet
EndChar

StartChar: exclam
Encoding: 33 33 3
Width: 258
Flags: W
HStem: -20 92<97.8619 165.622> 1434 20G<125.5 136.5>
VStem: 86 92<-6.59229 58.0765> 104 54<266.002 1454>
LayerCount: 2
Fore
SplineSet
152 309 m 1,0,1
 158 303 158 303 158 293 c 0,2,3
 158 282 158 282 150 274 c 128,-1,4
 142 266 142 266 131 266 c 256,5,6
 120 266 120 266 112 274 c 128,-1,7
 104 282 104 282 104 293 c 0,8,9
 104 303 104 303 111 309 c 1,10,-1
 111 1409 l 1,11,12
 104 1417 104 1417 104 1427 c 0,13,14
 104 1438 104 1438 112 1446 c 128,-1,15
 120 1454 120 1454 131 1454 c 256,16,17
 142 1454 142 1454 150 1446 c 128,-1,18
 158 1438 158 1438 158 1427 c 0,19,20
 158 1418 158 1418 152 1409 c 1,21,-1
 152 309 l 1,0,1
166 -7 m 256,22,23
 154 -20 154 -20 131 -20 c 0,24,25
 109 -20 109 -20 97.5 -7 c 128,-1,26
 86 6 86 6 86 25 c 0,27,28
 86 45 86 45 97.5 58.5 c 128,-1,29
 109 72 109 72 131 72 c 0,30,31
 154 72 154 72 166 58.5 c 128,-1,32
 178 45 178 45 178 25 c 0,33,34
 178 6 178 6 166 -7 c 256,22,23
EndSplineSet
EndChar

StartChar: dollar
Encoding: 36 36 6
Width: 580
Flags: W
HStem: -19 39<200.713 265 306 380.667> 1413 40<197.39 265 306 372.719>
VStem: 72 53<188.125 225.265 916.679 1351.15> 265 41<-163.749 -18.2449 1451.16 1595.75> 451 53<78.3298 590.967 1202.25 1236.81>
LayerCount: 2
Fore
SplineSet
506 207 m 2,0,1
 506 163 506 163 495 122 c 128,-1,2
 484 81 484 81 459 49.5 c 128,-1,3
 434 18 434 18 393 -1 c 0,4,5
 357 -17 357 -17 306 -20 c 1,6,-1
 306 -127 l 1,7,8
 312 -136 312 -136 312 -145 c 0,9,10
 312 -156 312 -156 304.5 -164 c 128,-1,11
 297 -172 297 -172 286 -172 c 256,12,13
 275 -172 275 -172 267 -164 c 128,-1,14
 259 -156 259 -156 259 -145 c 0,15,16
 259 -136 259 -136 265 -127 c 1,17,-1
 265 -19 l 1,18,19
 225 -16 225 -16 195 -3 c 0,20,21
 156 14 156 14 130.5 42.5 c 128,-1,22
 105 71 105 71 93 109 c 128,-1,23
 81 147 81 147 78 188 c 1,24,25
 75 192 75 192 73.5 197 c 128,-1,26
 72 202 72 202 72 207 c 0,27,28
 72 218 72 218 80 225.5 c 128,-1,29
 88 233 88 233 99 233 c 256,30,31
 110 233 110 233 117.5 225.5 c 128,-1,32
 125 218 125 218 125 207 c 0,33,34
 125 202 125 202 123.5 197 c 128,-1,35
 122 192 122 192 119 188 c 1,36,37
 120 154 120 154 130 123.5 c 128,-1,38
 140 93 140 93 160.5 70 c 128,-1,39
 181 47 181 47 213 33.5 c 128,-1,40
 245 20 245 20 291 20 c 0,41,42
 340 20 340 20 373.5 35.5 c 128,-1,43
 407 51 407 51 427 77.5 c 128,-1,44
 447 104 447 104 456 137.5 c 128,-1,45
 465 171 465 171 465 207 c 2,46,-1
 465 463 l 2,47,48
 465 515 465 515 444.5 562.5 c 128,-1,49
 424 610 424 610 386 645 c 2,50,-1
 146 858 l 2,51,52
 121 880 121 880 106 903.5 c 128,-1,53
 91 927 91 927 83 950 c 128,-1,54
 75 973 75 973 72.5 996.5 c 128,-1,55
 70 1020 70 1020 70 1044 c 2,56,-1
 70 1221 l 2,57,58
 70 1264 70 1264 81 1306 c 128,-1,59
 92 1348 92 1348 117 1381 c 128,-1,60
 142 1414 142 1414 183 1434 c 0,61,62
 217 1450 217 1450 265 1453 c 1,63,-1
 265 1559 l 1,64,65
 259 1568 259 1568 259 1577 c 0,66,67
 259 1588 259 1588 267 1596 c 128,-1,68
 275 1604 275 1604 286 1604 c 256,69,70
 297 1604 297 1604 304.5 1596 c 128,-1,71
 312 1588 312 1588 312 1577 c 0,72,73
 312 1568 312 1568 306 1559 c 1,74,-1
 306 1453 l 1,75,76
 349 1450 349 1450 381 1436 c 0,77,78
 421 1418 421 1418 446 1388 c 128,-1,79
 471 1358 471 1358 483.5 1319.5 c 128,-1,80
 496 1281 496 1281 498 1239 c 1,81,82
 501 1236 501 1236 502.5 1231 c 128,-1,83
 504 1226 504 1226 504 1221 c 0,84,85
 504 1210 504 1210 496.5 1202 c 128,-1,86
 489 1194 489 1194 478 1194 c 256,87,88
 467 1194 467 1194 459 1202 c 128,-1,89
 451 1210 451 1210 451 1221 c 0,90,91
 451 1231 451 1231 457 1237 c 1,92,93
 455 1270 455 1270 445.5 1301.5 c 128,-1,94
 436 1333 436 1333 415.5 1358 c 128,-1,95
 395 1383 395 1383 363 1398 c 128,-1,96
 331 1413 331 1413 285 1413 c 0,97,98
 236 1413 236 1413 202.5 1396 c 128,-1,99
 169 1379 169 1379 149 1352 c 128,-1,100
 129 1325 129 1325 120 1290.5 c 128,-1,101
 111 1256 111 1256 111 1221 c 2,102,-1
 111 1044 l 1,103,104
 113 993 113 993 126.5 953.5 c 128,-1,105
 140 914 140 914 175 883 c 2,106,-1
 416 670 l 1,107,108
 470 620 470 620 488 567 c 128,-1,109
 506 514 506 514 506 463 c 2,110,-1
 506 207 l 2,0,1
EndSplineSet
EndChar

StartChar: ampersand.alt
Encoding: 65538 -1 8
Width: 662
Flags: W
HStem: -20 40<200.94 381.297> -20 21G<594.5 605.5> 985 39<504 640.951> 1393 41<201.685 479.265>
VStem: 78 41<104.814 917.144 1073.49 1310.82> 463 41<264 264 354 985> 573 54<-12.2648 15.936>
LayerCount: 2
Fore
SplineSet
610 31 m 1,0,1
 618 28 618 28 622.5 21 c 128,-1,2
 627 14 627 14 627 6 c 0,3,4
 627 -5 627 -5 619 -12.5 c 128,-1,5
 611 -20 611 -20 600 -20 c 256,6,7
 589 -20 589 -20 581 -12.5 c 128,-1,8
 573 -5 573 -5 573 6 c 0,9,10
 573 14 573 14 575 16 c 1,11,-1
 502 178 l 1,12,13
 499 138 499 138 486 102 c 128,-1,14
 473 66 473 66 448 39 c 128,-1,15
 423 12 423 12 384 -4 c 128,-1,16
 345 -20 345 -20 291 -20 c 0,17,18
 230 -20 230 -20 189 -1 c 128,-1,19
 148 18 148 18 123.5 49.5 c 128,-1,20
 99 81 99 81 88.5 122 c 128,-1,21
 78 163 78 163 78 207 c 2,22,-1
 78 811 l 2,23,24
 78 857 78 857 90 902 c 128,-1,25
 102 947 102 947 133 981 c 1,26,27
 116 1018 116 1018 105 1046.5 c 128,-1,28
 94 1075 94 1075 87.5 1100.5 c 128,-1,29
 81 1126 81 1126 78.5 1151.5 c 128,-1,30
 76 1177 76 1177 76 1208 c 0,31,32
 76 1250 76 1250 86.5 1291 c 128,-1,33
 97 1332 97 1332 121.5 1363.5 c 128,-1,34
 146 1395 146 1395 187 1414.5 c 128,-1,35
 228 1434 228 1434 289 1434 c 2,36,-1
 442 1434 l 1,37,38
 452 1440 452 1440 461 1440 c 0,39,40
 472 1440 472 1440 479.5 1432 c 128,-1,41
 487 1424 487 1424 487 1413 c 256,42,43
 487 1402 487 1402 479.5 1394 c 128,-1,44
 472 1386 472 1386 461 1386 c 0,45,46
 454 1386 454 1386 442 1393 c 1,47,-1
 289 1393 l 2,48,49
 241 1393 241 1393 208 1376.5 c 128,-1,50
 175 1360 175 1360 154.5 1334 c 128,-1,51
 134 1308 134 1308 125.5 1275 c 128,-1,52
 117 1242 117 1242 117 1208 c 0,53,54
 117 1184 117 1184 119 1162 c 128,-1,55
 121 1140 121 1140 127 1115 c 128,-1,56
 133 1090 133 1090 144.5 1059.5 c 128,-1,57
 156 1029 156 1029 174 989 c 2,58,-1
 463 354 l 1,59,-1
 463 1024 l 1,60,-1
 598 1024 l 1,61,62
 604 1030 604 1030 614 1030 c 0,63,64
 625 1030 625 1030 633 1022.5 c 128,-1,65
 641 1015 641 1015 641 1006 c 0,66,67
 641 995 641 995 633 987 c 128,-1,68
 625 979 625 979 614 979 c 0,69,70
 609 979 609 979 604 980.5 c 128,-1,71
 599 982 599 982 596 985 c 1,72,-1
 504 985 l 1,73,-1
 504 264 l 1,74,-1
 610 31 l 1,0,1
463 264 m 1,75,-1
 152 938 l 1,76,77
 133 912 133 912 126 878.5 c 128,-1,78
 119 845 119 845 119 811 c 2,79,-1
 119 207 l 2,80,81
 119 171 119 171 127.5 137.5 c 128,-1,82
 136 104 136 104 156 77.5 c 128,-1,83
 176 51 176 51 209 35.5 c 128,-1,84
 242 20 242 20 291 20 c 256,85,86
 340 20 340 20 373 35.5 c 128,-1,87
 406 51 406 51 426 77.5 c 128,-1,88
 446 104 446 104 454.5 137.5 c 128,-1,89
 463 171 463 171 463 207 c 2,90,-1
 463 264 l 1,75,-1
EndSplineSet
EndChar

StartChar: quotesingle
Encoding: 39 39 9
Width: 219
Flags: W
HStem: 1159 295<90.125 129.265>
VStem: 84 53<1167.25 1406.56>
LayerCount: 2
Fore
SplineSet
131 1202 m 1,0,1
 137 1196 137 1196 137 1186 c 0,2,3
 137 1175 137 1175 129.5 1167 c 128,-1,4
 122 1159 122 1159 111 1159 c 256,5,6
 100 1159 100 1159 92 1167 c 128,-1,7
 84 1175 84 1175 84 1186 c 0,8,9
 84 1196 84 1196 90 1202 c 1,10,-1
 90 1366 l 1,11,12
 78 1371 78 1371 72 1382 c 128,-1,13
 66 1393 66 1393 66 1407 c 0,14,15
 66 1427 66 1427 77.5 1440.5 c 128,-1,16
 89 1454 89 1454 111 1454 c 0,17,18
 134 1454 134 1454 146 1440.5 c 128,-1,19
 158 1427 158 1427 158 1407 c 0,20,21
 158 1393 158 1393 150.5 1381.5 c 128,-1,22
 143 1370 143 1370 131 1364 c 1,23,-1
 131 1202 l 1,0,1
EndSplineSet
EndChar

StartChar: parenleft
Encoding: 40 40 10
Width: 354
Flags: W
HStem: -172 49<287.22 325.749> 1550 54<208.026 333.998>
VStem: 94 41<-40.204 1466.98>
LayerCount: 2
Fore
SplineSet
135 63 m 2,0,1
 135 28 135 28 142.5 -4.5 c 128,-1,2
 150 -37 150 -37 168.5 -62.5 c 128,-1,3
 187 -88 187 -88 217.5 -104.5 c 128,-1,4
 248 -121 248 -121 293 -123 c 1,5,6
 296 -121 296 -121 299 -120 c 128,-1,7
 302 -119 302 -119 307 -119 c 0,8,9
 318 -119 318 -119 326 -126.5 c 128,-1,10
 334 -134 334 -134 334 -145 c 256,11,12
 334 -156 334 -156 326 -164 c 128,-1,13
 318 -172 318 -172 307 -172 c 0,14,15
 294 -172 294 -172 287 -162 c 1,16,17
 232 -159 232 -159 195 -139 c 128,-1,18
 158 -119 158 -119 135.5 -88 c 128,-1,19
 113 -57 113 -57 103.5 -17.5 c 128,-1,20
 94 22 94 22 94 63 c 2,21,-1
 94 1364 l 2,22,23
 94 1406 94 1406 103.5 1446.5 c 128,-1,24
 113 1487 113 1487 136 1519 c 128,-1,25
 159 1551 159 1551 196 1571.5 c 128,-1,26
 233 1592 233 1592 289 1595 c 1,27,28
 292 1598 292 1598 296.5 1601 c 128,-1,29
 301 1604 301 1604 307 1604 c 0,30,31
 318 1604 318 1604 326 1596 c 128,-1,32
 334 1588 334 1588 334 1577 c 256,33,34
 334 1566 334 1566 326 1558 c 128,-1,35
 318 1550 318 1550 307 1550 c 0,36,37
 299 1550 299 1550 291 1554 c 1,38,39
 246 1551 246 1551 216 1533.5 c 128,-1,40
 186 1516 186 1516 168 1489.5 c 128,-1,41
 150 1463 150 1463 142.5 1430.5 c 128,-1,42
 135 1398 135 1398 135 1364 c 2,43,-1
 135 63 l 2,0,1
EndSplineSet
EndChar

StartChar: asterisk
Encoding: 42 42 12
Width: 670
Flags: W
HStem: 1233 53<67.2507 95.9062 575 602.265>
VStem: 154 53<948.251 971> 313 41<1206 1458.26> 461 53<948.251 967>
LayerCount: 2
Fore
SplineSet
492 993 m 1,0,1
 501 991 501 991 507.5 983.5 c 128,-1,2
 514 976 514 976 514 967 c 0,3,4
 514 956 514 956 506 948 c 128,-1,5
 498 940 498 940 487 940 c 256,6,7
 476 940 476 940 468.5 948 c 128,-1,8
 461 956 461 956 461 967 c 1,9,-1
 332 1141 l 1,10,-1
 207 971 l 1,11,-1
 207 967 l 2,12,13
 207 956 207 956 199 948 c 128,-1,14
 191 940 191 940 180 940 c 256,15,16
 169 940 169 940 161.5 948 c 128,-1,17
 154 956 154 956 154 967 c 0,18,19
 154 976 154 976 159 982.5 c 128,-1,20
 164 989 164 989 172 991 c 1,21,-1
 299 1165 l 1,22,-1
 96 1235 l 1,23,24
 93 1233 93 1233 90 1233 c 2,25,-1
 86 1233 l 2,26,27
 75 1233 75 1233 67 1241 c 128,-1,28
 59 1249 59 1249 59 1260 c 256,29,30
 59 1271 59 1271 67 1278.5 c 128,-1,31
 75 1286 75 1286 86 1286 c 0,32,33
 92 1286 92 1286 98 1282.5 c 128,-1,34
 104 1279 104 1279 109 1274 c 1,35,-1
 313 1206 l 1,36,-1
 313 1421 l 1,37,38
 307 1430 307 1430 307 1440 c 0,39,40
 307 1451 307 1451 315 1458.5 c 128,-1,41
 323 1466 323 1466 334 1466 c 256,42,43
 345 1466 345 1466 352.5 1458.5 c 128,-1,44
 360 1451 360 1451 360 1440 c 0,45,46
 360 1430 360 1430 354 1421 c 1,47,-1
 354 1206 l 1,48,-1
 559 1272 l 1,49,50
 569 1286 569 1286 584 1286 c 0,51,52
 595 1286 595 1286 602.5 1278.5 c 128,-1,53
 610 1271 610 1271 610 1260 c 256,54,55
 610 1249 610 1249 602.5 1241 c 128,-1,56
 595 1233 595 1233 584 1233 c 2,57,-1
 575 1233 l 1,58,-1
 369 1165 l 1,59,-1
 492 993 l 1,0,1
EndSplineSet
EndChar

StartChar: plus
Encoding: 43 43 13
Width: 694
Flags: W
HStem: 530 41<53.0078 328 369 638.992>
VStem: 328 41<266.251 530 571 835.749>
LayerCount: 2
Fore
SplineSet
594 571 m 1,0,1
 602 578 602 578 612 578 c 0,2,3
 623 578 623 578 631 570 c 128,-1,4
 639 562 639 562 639 551 c 256,5,6
 639 540 639 540 631 532 c 128,-1,7
 623 524 623 524 612 524 c 0,8,9
 603 524 603 524 594 530 c 1,10,-1
 369 530 l 1,11,-1
 369 301 l 1,12,13
 375 295 375 295 375 285 c 0,14,15
 375 274 375 274 367 266 c 128,-1,16
 359 258 359 258 348 258 c 256,17,18
 337 258 337 258 329.5 266 c 128,-1,19
 322 274 322 274 322 285 c 0,20,21
 322 295 322 295 328 301 c 1,22,-1
 328 530 l 1,23,-1
 96 530 l 1,24,25
 90 524 90 524 80 524 c 0,26,27
 69 524 69 524 61 532 c 128,-1,28
 53 540 53 540 53 551 c 256,29,30
 53 562 53 562 61 570 c 128,-1,31
 69 578 69 578 80 578 c 0,32,33
 90 578 90 578 96 571 c 1,34,-1
 328 571 l 1,35,-1
 328 799 l 1,36,37
 322 808 322 808 322 817 c 0,38,39
 322 828 322 828 329.5 836 c 128,-1,40
 337 844 337 844 348 844 c 256,41,42
 359 844 359 844 367 836 c 128,-1,43
 375 828 375 828 375 817 c 0,44,45
 375 808 375 808 369 799 c 1,46,-1
 369 571 l 1,47,-1
 594 571 l 1,0,1
EndSplineSet
EndChar

StartChar: comma
Encoding: 44 44 14
Width: 223
Flags: W
HStem: -20 92<121 159.622>
VStem: 12 53<-143.749 -121> 80 92<0.282959 58.0765>
LayerCount: 2
Fore
SplineSet
65 -125 m 2,0,1
 65 -136 65 -136 57.5 -144 c 128,-1,2
 50 -152 50 -152 39 -152 c 256,3,4
 28 -152 28 -152 20 -144 c 128,-1,5
 12 -136 12 -136 12 -125 c 0,6,7
 12 -105 12 -105 31 -98 c 1,8,-1
 86 0 l 1,9,10
 80 9 80 9 80 25 c 0,11,12
 80 45 80 45 91.5 58.5 c 128,-1,13
 103 72 103 72 125 72 c 0,14,15
 148 72 148 72 160 58.5 c 128,-1,16
 172 45 172 45 172 25 c 0,17,18
 172 6 172 6 160 -7 c 128,-1,19
 148 -20 148 -20 125 -20 c 2,20,-1
 121 -20 l 1,21,-1
 65 -121 l 1,22,-1
 65 -125 l 2,0,1
EndSplineSet
EndChar

StartChar: hyphen
Encoding: 45 45 15
Width: 618
Flags: W
HStem: 569 54<51.002 557.265>
VStem: 51 514<577.251 614.749>
LayerCount: 2
Fore
SplineSet
520 616 m 1,0,1
 528 623 528 623 539 623 c 256,2,3
 550 623 550 623 557.5 615 c 128,-1,4
 565 607 565 607 565 596 c 256,5,6
 565 585 565 585 557.5 577 c 128,-1,7
 550 569 550 569 539 569 c 0,8,9
 529 569 529 569 520 575 c 1,10,-1
 94 575 l 1,11,12
 88 569 88 569 78 569 c 0,13,14
 67 569 67 569 59 577 c 128,-1,15
 51 585 51 585 51 596 c 256,16,17
 51 607 51 607 59 615 c 128,-1,18
 67 623 67 623 78 623 c 0,19,20
 88 623 88 623 94 616 c 1,21,-1
 520 616 l 1,0,1
EndSplineSet
EndChar

StartChar: period
Encoding: 46 46 16
Width: 195
Flags: W
HStem: -20 92<62.8619 130.622>
VStem: 51 92<-6.59229 58.0765>
LayerCount: 2
Fore
SplineSet
131 -7 m 256,0,1
 119 -20 119 -20 96 -20 c 0,2,3
 74 -20 74 -20 62.5 -7 c 128,-1,4
 51 6 51 6 51 25 c 0,5,6
 51 45 51 45 62.5 58.5 c 128,-1,7
 74 72 74 72 96 72 c 0,8,9
 119 72 119 72 131 58.5 c 128,-1,10
 143 45 143 45 143 25 c 0,11,12
 143 6 143 6 131 -7 c 256,0,1
EndSplineSet
EndChar

StartChar: slash
Encoding: 47 47 17
Width: 575
Flags: W
HStem: 1434 20G<494.5 505.5>
VStem: 47 53<-213.265 -142.043> 473 53<1415.13 1445.75>
LayerCount: 2
Fore
SplineSet
96 -182 m 1,0,1
 100 -190 100 -190 100 -195 c 0,2,3
 100 -206 100 -206 92.5 -213.5 c 128,-1,4
 85 -221 85 -221 74 -221 c 256,5,6
 63 -221 63 -221 55 -213.5 c 128,-1,7
 47 -206 47 -206 47 -195 c 0,8,9
 47 -177 47 -177 61 -170 c 1,10,-1
 475 1415 l 1,11,12
 473 1419 473 1419 473 1427 c 0,13,14
 473 1438 473 1438 481 1446 c 128,-1,15
 489 1454 489 1454 500 1454 c 256,16,17
 511 1454 511 1454 518.5 1446 c 128,-1,18
 526 1438 526 1438 526 1427 c 0,19,20
 526 1419 526 1419 522 1412.5 c 128,-1,21
 518 1406 518 1406 510 1403 c 1,22,-1
 96 -182 l 1,0,1
EndSplineSet
EndChar

StartChar: zero
Encoding: 48 48 18
Width: 610
Flags: W
HStem: -20 40<214.94 395.431> 1413 41<217.306 393.093>
VStem: 92 41<104.814 1323.94> 477 41<104.814 1323.94>
LayerCount: 2
Fore
SplineSet
133 207 m 2,0,1
 133 171 133 171 141.5 137.5 c 128,-1,2
 150 104 150 104 170 77.5 c 128,-1,3
 190 51 190 51 223 35.5 c 128,-1,4
 256 20 256 20 305 20 c 256,5,6
 354 20 354 20 387 35.5 c 128,-1,7
 420 51 420 51 440 77.5 c 128,-1,8
 460 104 460 104 468.5 137.5 c 128,-1,9
 477 171 477 171 477 207 c 2,10,-1
 477 1221 l 2,11,12
 477 1256 477 1256 468.5 1290.5 c 128,-1,13
 460 1325 460 1325 440 1352 c 128,-1,14
 420 1379 420 1379 387 1396 c 128,-1,15
 354 1413 354 1413 305 1413 c 256,16,17
 256 1413 256 1413 223 1396 c 128,-1,18
 190 1379 190 1379 170 1352 c 128,-1,19
 150 1325 150 1325 141.5 1290.5 c 128,-1,20
 133 1256 133 1256 133 1221 c 2,21,-1
 133 207 l 2,0,1
518 207 m 2,22,23
 518 163 518 163 507 122 c 128,-1,24
 496 81 496 81 471 49.5 c 128,-1,25
 446 18 446 18 405 -1 c 128,-1,26
 364 -20 364 -20 305 -20 c 0,27,28
 244 -20 244 -20 203 -1 c 128,-1,29
 162 18 162 18 137.5 49.5 c 128,-1,30
 113 81 113 81 102.5 122 c 128,-1,31
 92 163 92 163 92 207 c 2,32,-1
 92 1221 l 2,33,34
 92 1264 92 1264 102.5 1306 c 128,-1,35
 113 1348 113 1348 137.5 1381 c 128,-1,36
 162 1414 162 1414 203 1434 c 128,-1,37
 244 1454 244 1454 305 1454 c 0,38,39
 364 1454 364 1454 405 1434 c 128,-1,40
 446 1414 446 1414 471 1381 c 128,-1,41
 496 1348 496 1348 507 1306 c 128,-1,42
 518 1264 518 1264 518 1221 c 2,43,-1
 518 207 l 2,22,23
EndSplineSet
EndChar

StartChar: one
Encoding: 49 49 19
Width: 522
Flags: W
HStem: -20 21G<397.5 408.5> -20 21G<397.5 408.5> 1434 20G<397.5 408.5>
VStem: -2 53<1032.25 1051> 377 53<-12.2648 1380 1430 1453.99>
LayerCount: 2
Fore
SplineSet
424 23 m 1,0,1
 430 15 430 15 430 6 c 0,2,3
 430 -5 430 -5 422 -12.5 c 128,-1,4
 414 -20 414 -20 403 -20 c 256,5,6
 392 -20 392 -20 384.5 -12.5 c 128,-1,7
 377 -5 377 -5 377 6 c 0,8,9
 377 15 377 15 383 23 c 1,10,-1
 383 1380 l 1,11,-1
 51 1051 l 1,12,13
 51 1040 51 1040 43.5 1032 c 128,-1,14
 36 1024 36 1024 25 1024 c 256,15,16
 14 1024 14 1024 6 1032 c 128,-1,17
 -2 1040 -2 1040 -2 1051 c 0,18,19
 -2 1060 -2 1060 5 1067.5 c 128,-1,20
 12 1075 12 1075 23 1077 c 1,21,-1
 377 1430 l 1,22,23
 377 1439 377 1439 384.5 1446.5 c 128,-1,24
 392 1454 392 1454 403 1454 c 256,25,26
 414 1454 414 1454 422 1446 c 128,-1,27
 430 1438 430 1438 430 1427 c 0,28,29
 430 1418 430 1418 424 1409 c 1,30,-1
 424 23 l 1,0,1
EndSplineSet
EndChar

StartChar: two
Encoding: 50 50 20
Width: 567
Flags: W
HStem: 0 41<109 505.749> 1413 41<195.069 378.039>
VStem: 68 53<41 521.522 1208.25 1339.38> 459 41<877.009 1328.51>
LayerCount: 2
Fore
SplineSet
469 41 m 1,0,1
 478 47 478 47 487 47 c 0,2,3
 498 47 498 47 506 39 c 128,-1,4
 514 31 514 31 514 20 c 256,5,6
 514 9 514 9 506 1.5 c 128,-1,7
 498 -6 498 -6 487 -6 c 0,8,9
 478 -6 478 -6 469 0 c 1,10,-1
 68 0 l 1,11,-1
 68 395 l 2,12,13
 68 419 68 419 70.5 443 c 128,-1,14
 73 467 73 467 80.5 490 c 128,-1,15
 88 513 88 513 102.5 536 c 128,-1,16
 117 559 117 559 141 582 c 1,17,-1
 381 795 l 2,18,19
 419 830 419 830 439 877 c 128,-1,20
 459 924 459 924 459 977 c 2,21,-1
 459 1227 l 2,22,23
 459 1263 459 1263 450.5 1296.5 c 128,-1,24
 442 1330 442 1330 422 1356 c 128,-1,25
 402 1382 402 1382 369 1397.5 c 128,-1,26
 336 1413 336 1413 287 1413 c 0,27,28
 241 1413 241 1413 209 1399.5 c 128,-1,29
 177 1386 177 1386 156.5 1363 c 128,-1,30
 136 1340 136 1340 126 1309.5 c 128,-1,31
 116 1279 116 1279 115 1245 c 1,32,33
 118 1242 118 1242 119.5 1237 c 128,-1,34
 121 1232 121 1232 121 1227 c 0,35,36
 121 1216 121 1216 113 1208 c 128,-1,37
 105 1200 105 1200 94 1200 c 256,38,39
 83 1200 83 1200 75.5 1208 c 128,-1,40
 68 1216 68 1216 68 1227 c 0,41,42
 68 1232 68 1232 69.5 1237 c 128,-1,43
 71 1242 71 1242 74 1245 c 1,44,45
 76 1287 76 1287 88.5 1324.5 c 128,-1,46
 101 1362 101 1362 126 1391 c 128,-1,47
 151 1420 151 1420 190.5 1437 c 128,-1,48
 230 1454 230 1454 287 1454 c 0,49,50
 348 1454 348 1454 388.5 1435 c 128,-1,51
 429 1416 429 1416 454 1384 c 128,-1,52
 479 1352 479 1352 489.5 1311 c 128,-1,53
 500 1270 500 1270 500 1227 c 2,54,-1
 500 977 l 2,55,56
 500 926 500 926 482.5 872.5 c 128,-1,57
 465 819 465 819 412 770 c 1,58,-1
 170 557 l 2,59,60
 135 526 135 526 123 486 c 128,-1,61
 111 446 111 446 109 395 c 1,62,-1
 109 41 l 1,63,-1
 469 41 l 1,0,1
EndSplineSet
EndChar

StartChar: three
Encoding: 51 51 21
Width: 561
Flags: W
HStem: -20 40<170.528 351.875> 983 41<219 348.44> 1413 41<170.069 350.093>
VStem: 43 53<93.9545 225.265 1200.01 1339.38> 434 41<104.814 894.331 1105.18 1323.94>
LayerCount: 2
Fore
SplineSet
475 207 m 2,0,1
 475 163 475 163 464.5 122 c 128,-1,2
 454 81 454 81 429 49.5 c 128,-1,3
 404 18 404 18 363.5 -1 c 128,-1,4
 323 -20 323 -20 262 -20 c 0,5,6
 205 -20 205 -20 165.5 -3 c 128,-1,7
 126 14 126 14 101 42.5 c 128,-1,8
 76 71 76 71 63.5 109 c 128,-1,9
 51 147 51 147 49 188 c 1,10,11
 46 192 46 192 44.5 197 c 128,-1,12
 43 202 43 202 43 207 c 0,13,14
 43 218 43 218 51 225.5 c 128,-1,15
 59 233 59 233 70 233 c 256,16,17
 81 233 81 233 88.5 225.5 c 128,-1,18
 96 218 96 218 96 207 c 0,19,20
 96 202 96 202 94.5 197 c 128,-1,21
 93 192 93 192 90 188 c 1,22,23
 91 154 91 154 101 123.5 c 128,-1,24
 111 93 111 93 131.5 70 c 128,-1,25
 152 47 152 47 184 33.5 c 128,-1,26
 216 20 216 20 262 20 c 0,27,28
 311 20 311 20 344 35.5 c 128,-1,29
 377 51 377 51 397 77.5 c 128,-1,30
 417 104 417 104 425.5 137.5 c 128,-1,31
 434 171 434 171 434 207 c 2,32,-1
 434 791 l 2,33,34
 434 827 434 827 425.5 861.5 c 128,-1,35
 417 896 417 896 396.5 923 c 128,-1,36
 376 950 376 950 341.5 966.5 c 128,-1,37
 307 983 307 983 256 983 c 2,38,-1
 219 983 l 1,39,-1
 219 1024 l 1,40,-1
 274 1024 l 2,41,42
 323 1024 323 1024 354.5 1041 c 128,-1,43
 386 1058 386 1058 403.5 1086 c 128,-1,44
 421 1114 421 1114 427.5 1149.5 c 128,-1,45
 434 1185 434 1185 434 1221 c 0,46,47
 434 1256 434 1256 425.5 1290.5 c 128,-1,48
 417 1325 417 1325 397 1352 c 128,-1,49
 377 1379 377 1379 344 1396 c 128,-1,50
 311 1413 311 1413 262 1413 c 0,51,52
 216 1413 216 1413 184 1399.5 c 128,-1,53
 152 1386 152 1386 131.5 1363 c 128,-1,54
 111 1340 111 1340 101 1309.5 c 128,-1,55
 91 1279 91 1279 90 1245 c 1,56,57
 93 1242 93 1242 94.5 1237 c 128,-1,58
 96 1232 96 1232 96 1227 c 0,59,60
 96 1216 96 1216 87.5 1208 c 128,-1,61
 79 1200 79 1200 70 1200 c 0,62,63
 59 1200 59 1200 51 1208 c 128,-1,64
 43 1216 43 1216 43 1227 c 0,65,66
 43 1232 43 1232 44.5 1237 c 128,-1,67
 46 1242 46 1242 49 1245 c 1,68,69
 51 1287 51 1287 63.5 1324.5 c 128,-1,70
 76 1362 76 1362 101 1391 c 128,-1,71
 126 1420 126 1420 165.5 1437 c 128,-1,72
 205 1454 205 1454 262 1454 c 0,73,74
 321 1454 321 1454 362 1434 c 128,-1,75
 403 1414 403 1414 428 1381 c 128,-1,76
 453 1348 453 1348 464 1306 c 128,-1,77
 475 1264 475 1264 475 1221 c 0,78,79
 475 1188 475 1188 469.5 1154.5 c 128,-1,80
 464 1121 464 1121 450.5 1092 c 128,-1,81
 437 1063 437 1063 414 1040 c 128,-1,82
 391 1017 391 1017 356 1004 c 1,83,84
 389 989 389 989 411.5 967 c 128,-1,85
 434 945 434 945 448.5 917.5 c 128,-1,86
 463 890 463 890 469 857.5 c 128,-1,87
 475 825 475 825 475 791 c 2,88,-1
 475 207 l 2,0,1
EndSplineSet
EndChar

StartChar: four
Encoding: 52 52 22
Width: 522
Flags: W
HStem: -20 21G<369.5 380.5> -20 21G<369.5 380.5> 983 41<51 354 395 489.749> 1434 20G<369.5 380.5>
VStem: 354 41<-12.2648 983 1024 1374 1427 1445.75>
LayerCount: 2
Fore
SplineSet
395 23 m 1,0,1
 401 15 401 15 401 6 c 0,2,3
 401 -5 401 -5 393.5 -12.5 c 128,-1,4
 386 -20 386 -20 375 -20 c 256,5,6
 364 -20 364 -20 356 -12.5 c 128,-1,7
 348 -5 348 -5 348 6 c 0,8,9
 348 15 348 15 354 23 c 1,10,-1
 354 983 l 1,11,-1
 2 983 l 1,12,-1
 2 1024 l 1,13,-1
 348 1427 l 1,14,15
 348 1438 348 1438 356 1446 c 128,-1,16
 364 1454 364 1454 375 1454 c 256,17,18
 386 1454 386 1454 393.5 1446 c 128,-1,19
 401 1438 401 1438 401 1427 c 0,20,21
 401 1418 401 1418 395 1409 c 1,22,-1
 395 1024 l 1,23,-1
 453 1024 l 1,24,25
 462 1030 462 1030 471 1030 c 0,26,27
 482 1030 482 1030 490 1022.5 c 128,-1,28
 498 1015 498 1015 498 1004 c 256,29,30
 498 993 498 993 490 985 c 128,-1,31
 482 977 482 977 471 977 c 0,32,33
 462 977 462 977 453 983 c 1,34,-1
 395 983 l 1,35,-1
 395 23 l 1,0,1
354 1024 m 1,36,-1
 354 1374 l 1,37,-1
 51 1024 l 1,38,-1
 354 1024 l 1,36,-1
EndSplineSet
EndChar

StartChar: five
Encoding: 53 53 23
Width: 555
Flags: W
HStem: -20 40<166.583 348.431> 983 41<127 348.816> 1393 41<127 473.265>
VStem: 39 53<92.219 219.265> 86 41<1024 1393> 430 41<104.814 898.507>
LayerCount: 2
Fore
SplineSet
471 207 m 2,0,1
 471 163 471 163 460 122 c 128,-1,2
 449 81 449 81 424 49.5 c 128,-1,3
 399 18 399 18 358 -1 c 128,-1,4
 317 -20 317 -20 258 -20 c 0,5,6
 201 -20 201 -20 161.5 -3.5 c 128,-1,7
 122 13 122 13 97.5 40.5 c 128,-1,8
 73 68 73 68 60.5 104.5 c 128,-1,9
 48 141 48 141 45 182 c 1,10,11
 39 188 39 188 39 201 c 0,12,13
 39 212 39 212 47 219.5 c 128,-1,14
 55 227 55 227 66 227 c 256,15,16
 77 227 77 227 84.5 219.5 c 128,-1,17
 92 212 92 212 92 201 c 256,18,19
 92 190 92 190 86 184 c 1,20,21
 88 151 88 151 98.5 121 c 128,-1,22
 109 91 109 91 129 68.5 c 128,-1,23
 149 46 149 46 181 33 c 128,-1,24
 213 20 213 20 258 20 c 0,25,26
 307 20 307 20 340 35.5 c 128,-1,27
 373 51 373 51 393 77.5 c 128,-1,28
 413 104 413 104 421.5 137.5 c 128,-1,29
 430 171 430 171 430 207 c 2,30,-1
 430 797 l 2,31,32
 430 833 430 833 421.5 866.5 c 128,-1,33
 413 900 413 900 393 926 c 128,-1,34
 373 952 373 952 340 967.5 c 128,-1,35
 307 983 307 983 258 983 c 2,36,-1
 86 983 l 1,37,-1
 86 1434 l 1,38,-1
 436 1434 l 1,39,40
 445 1440 445 1440 455 1440 c 0,41,42
 466 1440 466 1440 473.5 1432 c 128,-1,43
 481 1424 481 1424 481 1413 c 256,44,45
 481 1402 481 1402 473.5 1394 c 128,-1,46
 466 1386 466 1386 455 1386 c 0,47,48
 446 1386 446 1386 436 1393 c 1,49,-1
 127 1393 l 1,50,-1
 127 1024 l 1,51,-1
 258 1024 l 2,52,53
 317 1024 317 1024 358 1005 c 128,-1,54
 399 986 399 986 424 954 c 128,-1,55
 449 922 449 922 460 881 c 128,-1,56
 471 840 471 840 471 797 c 2,57,-1
 471 207 l 2,0,1
EndSplineSet
EndChar

StartChar: six
Encoding: 54 54 24
Width: 602
Flags: W
HStem: -20 40<216.119 394.266> 983 41<217.025 393.093> 1413 41<217.306 393.155>
VStem: 92 41<105.932 892.35 930 1323.94> 477 41<105.932 892.35 1202.25 1236.81>
LayerCount: 2
Fore
SplineSet
518 207 m 2,0,1
 518 163 518 163 507 122 c 128,-1,2
 496 81 496 81 471 49.5 c 128,-1,3
 446 18 446 18 405 -1 c 128,-1,4
 364 -20 364 -20 305 -20 c 0,5,6
 244 -20 244 -20 203 -1 c 128,-1,7
 162 18 162 18 137.5 49.5 c 128,-1,8
 113 81 113 81 102.5 122 c 128,-1,9
 92 163 92 163 92 207 c 2,10,-1
 92 1221 l 2,11,12
 92 1264 92 1264 102.5 1306 c 128,-1,13
 113 1348 113 1348 137.5 1381 c 128,-1,14
 162 1414 162 1414 203 1434 c 128,-1,15
 244 1454 244 1454 305 1454 c 0,16,17
 362 1454 362 1454 401.5 1436 c 128,-1,18
 441 1418 441 1418 466 1388 c 128,-1,19
 491 1358 491 1358 503.5 1319.5 c 128,-1,20
 516 1281 516 1281 518 1239 c 1,21,22
 521 1236 521 1236 522.5 1231 c 128,-1,23
 524 1226 524 1226 524 1221 c 0,24,25
 524 1210 524 1210 516.5 1202 c 128,-1,26
 509 1194 509 1194 498 1194 c 256,27,28
 487 1194 487 1194 479 1202 c 128,-1,29
 471 1210 471 1210 471 1221 c 0,30,31
 471 1231 471 1231 477 1237 c 1,32,33
 475 1270 475 1270 465.5 1301.5 c 128,-1,34
 456 1333 456 1333 435.5 1358 c 128,-1,35
 415 1383 415 1383 383 1398 c 128,-1,36
 351 1413 351 1413 305 1413 c 0,37,38
 256 1413 256 1413 223 1396 c 128,-1,39
 190 1379 190 1379 170 1352 c 128,-1,40
 150 1325 150 1325 141.5 1290.5 c 128,-1,41
 133 1256 133 1256 133 1221 c 2,42,-1
 133 930 l 1,43,44
 158 973 158 973 200.5 998.5 c 128,-1,45
 243 1024 243 1024 305 1024 c 0,46,47
 364 1024 364 1024 405 1004 c 128,-1,48
 446 984 446 984 471 951 c 128,-1,49
 496 918 496 918 507 876 c 128,-1,50
 518 834 518 834 518 791 c 2,51,-1
 518 207 l 2,0,1
133 209 m 2,52,53
 133 173 133 173 141.5 139 c 128,-1,54
 150 105 150 105 170 78.5 c 128,-1,55
 190 52 190 52 223 36 c 128,-1,56
 256 20 256 20 305 20 c 256,57,58
 354 20 354 20 387 36 c 128,-1,59
 420 52 420 52 440 78.5 c 128,-1,60
 460 105 460 105 468.5 139 c 128,-1,61
 477 173 477 173 477 209 c 2,62,-1
 477 788 l 2,63,64
 477 824 477 824 468.5 858.5 c 128,-1,65
 460 893 460 893 440 921 c 128,-1,66
 420 949 420 949 387 966 c 128,-1,67
 354 983 354 983 305 983 c 256,68,69
 256 983 256 983 223 966 c 128,-1,70
 190 949 190 949 170 921 c 128,-1,71
 150 893 150 893 141.5 858.5 c 128,-1,72
 133 824 133 824 133 788 c 2,73,-1
 133 209 l 2,52,53
EndSplineSet
EndChar

StartChar: seven
Encoding: 55 55 25
Width: 502
Flags: W
HStem: -20 21G<131.5 142.5> -20 21G<131.5 142.5> 1393 41<38.7352 436>
VStem: 111 53<-12.2648 823.263> 436 41<1121.02 1393>
LayerCount: 2
Fore
SplineSet
158 23 m 1,0,1
 164 15 164 15 164 6 c 0,2,3
 164 -5 164 -5 156 -12.5 c 128,-1,4
 148 -20 148 -20 137 -20 c 256,5,6
 126 -20 126 -20 118.5 -12.5 c 128,-1,7
 111 -5 111 -5 111 6 c 0,8,9
 111 15 111 15 117 23 c 1,10,-1
 117 711 l 2,11,12
 117 762 117 762 134 815 c 128,-1,13
 151 868 151 868 205 918 c 1,14,-1
 375 1067 l 2,15,16
 410 1098 410 1098 422 1138 c 128,-1,17
 434 1178 434 1178 436 1229 c 1,18,-1
 436 1393 l 1,19,-1
 74 1393 l 1,20,21
 67 1386 67 1386 57 1386 c 0,22,23
 46 1386 46 1386 38.5 1394 c 128,-1,24
 31 1402 31 1402 31 1413 c 256,25,26
 31 1424 31 1424 38.5 1432 c 128,-1,27
 46 1440 46 1440 57 1440 c 256,28,29
 68 1440 68 1440 74 1434 c 1,30,-1
 477 1434 l 1,31,-1
 477 1229 l 2,32,33
 477 1205 477 1205 474.5 1181 c 128,-1,34
 472 1157 472 1157 464.5 1134 c 128,-1,35
 457 1111 457 1111 442.5 1087.5 c 128,-1,36
 428 1064 428 1064 403 1042 c 2,37,-1
 236 893 l 2,38,39
 197 858 197 858 177.5 810.5 c 128,-1,40
 158 763 158 763 158 711 c 2,41,-1
 158 23 l 1,0,1
EndSplineSet
EndChar

StartChar: eight
Encoding: 56 56 26
Width: 600
Flags: W
HStem: -20 40<208.94 389.431> 1004 40<212.034 386.077> 1413 41<210.123 387.699>
VStem: 86 41<104.814 914.217 1131.49 1327.58> 471 41<104.814 914.217 1129.68 1328.14>
LayerCount: 2
Fore
SplineSet
512 207 m 2,0,1
 512 163 512 163 501 122 c 128,-1,2
 490 81 490 81 465 49.5 c 128,-1,3
 440 18 440 18 399 -1 c 128,-1,4
 358 -20 358 -20 299 -20 c 0,5,6
 238 -20 238 -20 197 -1 c 128,-1,7
 156 18 156 18 131.5 49.5 c 128,-1,8
 107 81 107 81 96.5 122 c 128,-1,9
 86 163 86 163 86 207 c 2,10,-1
 86 811 l 2,11,12
 86 843 86 843 92 875 c 128,-1,13
 98 907 98 907 111 935 c 128,-1,14
 124 963 124 963 145 986 c 128,-1,15
 166 1009 166 1009 197 1024 c 1,16,17
 166 1037 166 1037 145 1058.5 c 128,-1,18
 124 1080 124 1080 111 1107 c 128,-1,19
 98 1134 98 1134 92 1165.5 c 128,-1,20
 86 1197 86 1197 86 1229 c 0,21,22
 86 1271 86 1271 96.5 1311.5 c 128,-1,23
 107 1352 107 1352 131.5 1383.5 c 128,-1,24
 156 1415 156 1415 197 1434.5 c 128,-1,25
 238 1454 238 1454 299 1454 c 256,26,27
 360 1454 360 1454 400.5 1435.5 c 128,-1,28
 441 1417 441 1417 466 1386 c 128,-1,29
 491 1355 491 1355 501.5 1314.5 c 128,-1,30
 512 1274 512 1274 512 1229 c 0,31,32
 512 1197 512 1197 506 1165.5 c 128,-1,33
 500 1134 500 1134 487 1107 c 128,-1,34
 474 1080 474 1080 452 1058.5 c 128,-1,35
 430 1037 430 1037 399 1024 c 1,36,37
 429 1009 429 1009 450.5 986 c 128,-1,38
 472 963 472 963 485.5 935 c 128,-1,39
 499 907 499 907 505.5 875 c 128,-1,40
 512 843 512 843 512 811 c 2,41,-1
 512 207 l 2,0,1
127 207 m 2,42,43
 127 171 127 171 135.5 137.5 c 128,-1,44
 144 104 144 104 164 77.5 c 128,-1,45
 184 51 184 51 217 35.5 c 128,-1,46
 250 20 250 20 299 20 c 256,47,48
 348 20 348 20 381 35.5 c 128,-1,49
 414 51 414 51 434 77.5 c 128,-1,50
 454 104 454 104 462.5 137.5 c 128,-1,51
 471 171 471 171 471 207 c 2,52,-1
 471 811 l 2,53,54
 471 846 471 846 462.5 880.5 c 128,-1,55
 454 915 454 915 434 942.5 c 128,-1,56
 414 970 414 970 381 987 c 128,-1,57
 348 1004 348 1004 299 1004 c 256,58,59
 250 1004 250 1004 217 987 c 128,-1,60
 184 970 184 970 164 942.5 c 128,-1,61
 144 915 144 915 135.5 880.5 c 128,-1,62
 127 846 127 846 127 811 c 2,63,-1
 127 207 l 2,42,43
307 1044 m 1,64,65
 353 1046 353 1046 384.5 1062 c 128,-1,66
 416 1078 416 1078 435 1103.5 c 128,-1,67
 454 1129 454 1129 462.5 1161.5 c 128,-1,68
 471 1194 471 1194 471 1229 c 0,69,70
 471 1263 471 1263 462.5 1296 c 128,-1,71
 454 1329 454 1329 433.5 1355 c 128,-1,72
 413 1381 413 1381 380 1397 c 128,-1,73
 347 1413 347 1413 299 1413 c 256,74,75
 251 1413 251 1413 218 1397 c 128,-1,76
 185 1381 185 1381 164.5 1355 c 128,-1,77
 144 1329 144 1329 135.5 1296 c 128,-1,78
 127 1263 127 1263 127 1229 c 0,79,80
 127 1196 127 1196 135.5 1163.5 c 128,-1,81
 144 1131 144 1131 163 1105 c 128,-1,82
 182 1079 182 1079 213 1062.5 c 128,-1,83
 244 1046 244 1046 289 1044 c 1,84,-1
 307 1044 l 1,64,65
EndSplineSet
EndChar

StartChar: nine
Encoding: 57 57 27
Width: 602
Flags: W
HStem: -20 40<210.914 384.025> 410 41<208.907 384.745> 1413 41<207.242 386.875>
VStem: 84 41<108.536 231.749 541.584 1327.28> 469 41<110.329 502 540.073 1327.28>
LayerCount: 2
Fore
SplineSet
510 213 m 2,0,1
 510 169 510 169 499.5 127 c 128,-1,2
 489 85 489 85 464 52.5 c 128,-1,3
 439 20 439 20 398.5 0 c 128,-1,4
 358 -20 358 -20 297 -20 c 0,5,6
 240 -20 240 -20 200.5 -2 c 128,-1,7
 161 16 161 16 136 46 c 128,-1,8
 111 76 111 76 98.5 114.5 c 128,-1,9
 86 153 86 153 84 195 c 1,10,11
 81 198 81 198 79.5 203 c 128,-1,12
 78 208 78 208 78 213 c 0,13,14
 78 224 78 224 85.5 232 c 128,-1,15
 93 240 93 240 104 240 c 256,16,17
 115 240 115 240 123 232 c 128,-1,18
 131 224 131 224 131 213 c 0,19,20
 131 203 131 203 125 197 c 1,21,22
 126 164 126 164 136 132 c 128,-1,23
 146 100 146 100 166.5 75.5 c 128,-1,24
 187 51 187 51 219 35.5 c 128,-1,25
 251 20 251 20 297 20 c 0,26,27
 346 20 346 20 379 37 c 128,-1,28
 412 54 412 54 432 81.5 c 128,-1,29
 452 109 452 109 460.5 143.5 c 128,-1,30
 469 178 469 178 469 213 c 2,31,-1
 469 502 l 1,32,33
 443 458 443 458 400 434 c 128,-1,34
 357 410 357 410 297 410 c 0,35,36
 238 410 238 410 197 430 c 128,-1,37
 156 450 156 450 131 482.5 c 128,-1,38
 106 515 106 515 95 557 c 128,-1,39
 84 599 84 599 84 643 c 2,40,-1
 84 1227 l 2,41,42
 84 1270 84 1270 95 1311 c 128,-1,43
 106 1352 106 1352 131 1384 c 128,-1,44
 156 1416 156 1416 197 1435 c 128,-1,45
 238 1454 238 1454 297 1454 c 0,46,47
 358 1454 358 1454 398.5 1435 c 128,-1,48
 439 1416 439 1416 464 1384 c 128,-1,49
 489 1352 489 1352 499.5 1311 c 128,-1,50
 510 1270 510 1270 510 1227 c 2,51,-1
 510 213 l 2,0,1
125 645 m 2,52,53
 125 610 125 610 133.5 575 c 128,-1,54
 142 540 142 540 162 512.5 c 128,-1,55
 182 485 182 485 215 468 c 128,-1,56
 248 451 248 451 297 451 c 0,57,58
 344 451 344 451 376 466.5 c 128,-1,59
 408 482 408 482 428.5 507.5 c 128,-1,60
 449 533 449 533 458 565 c 128,-1,61
 467 597 467 597 469 631 c 1,62,-1
 469 1225 l 2,63,64
 469 1261 469 1261 460.5 1295 c 128,-1,65
 452 1329 452 1329 432 1355 c 128,-1,66
 412 1381 412 1381 379 1397 c 128,-1,67
 346 1413 346 1413 297 1413 c 256,68,69
 248 1413 248 1413 215 1397 c 128,-1,70
 182 1381 182 1381 162 1355 c 128,-1,71
 142 1329 142 1329 133.5 1295 c 128,-1,72
 125 1261 125 1261 125 1225 c 2,73,-1
 125 645 l 2,52,53
EndSplineSet
EndChar

StartChar: colon
Encoding: 58 58 28
Width: 195
Flags: W
HStem: -20 92<62.8619 130.622> 768 92<62.8619 130.622>
VStem: 51 92<-6.59229 58.0765 781.408 846.077>
LayerCount: 2
Fore
SplineSet
131 -7 m 256,0,1
 119 -20 119 -20 96 -20 c 0,2,3
 74 -20 74 -20 62.5 -7 c 128,-1,4
 51 6 51 6 51 25 c 0,5,6
 51 45 51 45 62.5 58.5 c 128,-1,7
 74 72 74 72 96 72 c 0,8,9
 119 72 119 72 131 58.5 c 128,-1,10
 143 45 143 45 143 25 c 0,11,12
 143 6 143 6 131 -7 c 256,0,1
131 781 m 256,13,14
 119 768 119 768 96 768 c 0,15,16
 74 768 74 768 62.5 781 c 128,-1,17
 51 794 51 794 51 813 c 0,18,19
 51 833 51 833 62.5 846.5 c 128,-1,20
 74 860 74 860 96 860 c 0,21,22
 119 860 119 860 131 846.5 c 128,-1,23
 143 833 143 833 143 813 c 0,24,25
 143 794 143 794 131 781 c 256,13,14
EndSplineSet
EndChar

StartChar: semicolon
Encoding: 59 59 29
Width: 223
Flags: W
HStem: -20 92<123 159.622> 768 92<91.8619 159.622>
VStem: 12 53<-143.749 -125> 80 92<-1.74731 58.0765 781.408 846.077>
LayerCount: 2
Fore
SplineSet
65 -125 m 1,0,1
 65 -136 65 -136 57.5 -144 c 128,-1,2
 50 -152 50 -152 39 -152 c 256,3,4
 28 -152 28 -152 20 -144 c 128,-1,5
 12 -136 12 -136 12 -125 c 0,6,7
 12 -105 12 -105 31 -98 c 1,8,-1
 88 -2 l 1,9,10
 80 6 80 6 80 25 c 0,11,12
 80 45 80 45 91.5 58.5 c 128,-1,13
 103 72 103 72 125 72 c 0,14,15
 148 72 148 72 160 58.5 c 128,-1,16
 172 45 172 45 172 25 c 0,17,18
 172 6 172 6 160 -7 c 128,-1,19
 148 -20 148 -20 125 -20 c 2,20,-1
 123 -20 l 1,21,-1
 65 -125 l 1,0,1
160 781 m 256,22,23
 148 768 148 768 125 768 c 0,24,25
 103 768 103 768 91.5 781 c 128,-1,26
 80 794 80 794 80 813 c 0,27,28
 80 833 80 833 91.5 846.5 c 128,-1,29
 103 860 103 860 125 860 c 0,30,31
 148 860 148 860 160 846.5 c 128,-1,32
 172 833 172 833 172 813 c 0,33,34
 172 794 172 794 160 781 c 256,22,23
EndSplineSet
EndChar

StartChar: less
Encoding: 60 60 30
Width: 764
Flags: W
HStem: 406 53<655.064 682.265> 725 53<57.2507 81.937> 1044 54<655 682.265>
VStem: 49 641
LayerCount: 2
Fore
SplineSet
655 457 m 1,0,1
 657 459 657 459 664 459 c 0,2,3
 675 459 675 459 682.5 451 c 128,-1,4
 690 443 690 443 690 432 c 256,5,6
 690 421 690 421 682.5 413.5 c 128,-1,7
 675 406 675 406 664 406 c 0,8,9
 654 406 654 406 647 411 c 128,-1,10
 640 416 640 416 637 424 c 1,11,-1
 82 725 l 1,12,-1
 76 725 l 2,13,14
 65 725 65 725 57 733 c 128,-1,15
 49 741 49 741 49 752 c 256,16,17
 49 763 49 763 57 770.5 c 128,-1,18
 65 778 65 778 76 778 c 0,19,20
 80 778 80 778 82 776 c 1,21,-1
 637 1077 l 1,22,23
 643 1098 643 1098 664 1098 c 0,24,25
 675 1098 675 1098 682.5 1090 c 128,-1,26
 690 1082 690 1082 690 1071 c 256,27,28
 690 1060 690 1060 682.5 1052 c 128,-1,29
 675 1044 675 1044 664 1044 c 2,30,-1
 655 1044 l 1,31,-1
 113 752 l 1,32,-1
 655 457 l 1,0,1
EndSplineSet
EndChar

StartChar: question
Encoding: 63 63 33
Width: 555
Flags: W
HStem: -20 92<237.862 305.622> 1413 41<181.845 358.208>
VStem: 51 53<1202.25 1334.79> 226 92<-6.59229 58.0765> 244 53<274.251 786.263> 442 41<971.321 1323.94>
LayerCount: 2
Fore
SplineSet
291 309 m 1,0,1
 297 303 297 303 297 293 c 0,2,3
 297 282 297 282 289 274 c 128,-1,4
 281 266 281 266 270 266 c 256,5,6
 259 266 259 266 251.5 274 c 128,-1,7
 244 282 244 282 244 293 c 0,8,9
 244 303 244 303 250 309 c 1,10,-1
 250 674 l 2,11,12
 250 725 250 725 267 778 c 128,-1,13
 284 831 284 831 338 881 c 1,14,-1
 381 918 l 2,15,16
 416 948 416 948 428 988 c 128,-1,17
 440 1028 440 1028 442 1079 c 1,18,-1
 442 1221 l 2,19,20
 442 1256 442 1256 433.5 1290.5 c 128,-1,21
 425 1325 425 1325 405 1352 c 128,-1,22
 385 1379 385 1379 352 1396 c 128,-1,23
 319 1413 319 1413 270 1413 c 0,24,25
 224 1413 224 1413 192 1398 c 128,-1,26
 160 1383 160 1383 139.5 1358 c 128,-1,27
 119 1333 119 1333 109 1301.5 c 128,-1,28
 99 1270 99 1270 98 1237 c 1,29,30
 104 1231 104 1231 104 1221 c 0,31,32
 104 1210 104 1210 96.5 1202 c 128,-1,33
 89 1194 89 1194 78 1194 c 256,34,35
 67 1194 67 1194 59 1202 c 128,-1,36
 51 1210 51 1210 51 1221 c 0,37,38
 51 1226 51 1226 52.5 1231 c 128,-1,39
 54 1236 54 1236 57 1239 c 1,40,41
 59 1281 59 1281 71.5 1319.5 c 128,-1,42
 84 1358 84 1358 109 1388 c 128,-1,43
 134 1418 134 1418 173.5 1436 c 128,-1,44
 213 1454 213 1454 270 1454 c 0,45,46
 331 1454 331 1454 371.5 1434 c 128,-1,47
 412 1414 412 1414 437 1381 c 128,-1,48
 462 1348 462 1348 472.5 1306 c 128,-1,49
 483 1264 483 1264 483 1221 c 2,50,-1
 483 1079 l 2,51,52
 483 1055 483 1055 480.5 1031.5 c 128,-1,53
 478 1008 478 1008 470.5 984.5 c 128,-1,54
 463 961 463 961 448.5 938 c 128,-1,55
 434 915 434 915 410 893 c 2,56,-1
 369 856 l 2,57,58
 330 821 330 821 310.5 773.5 c 128,-1,59
 291 726 291 726 291 674 c 2,60,-1
 291 309 l 1,0,1
306 -7 m 256,61,62
 294 -20 294 -20 271 -20 c 0,63,64
 249 -20 249 -20 237.5 -7 c 128,-1,65
 226 6 226 6 226 25 c 0,66,67
 226 45 226 45 237.5 58.5 c 128,-1,68
 249 72 249 72 271 72 c 0,69,70
 294 72 294 72 306 58.5 c 128,-1,71
 318 45 318 45 318 25 c 0,72,73
 318 6 318 6 306 -7 c 256,61,62
EndSplineSet
EndChar

StartChar: at
Encoding: 64 64 34
Width: 948
Flags: W
HStem: -205 41<339.219 473> 61 41<382.589 558.467 763.406 827> 922 41<383.764 550.565> 1208 41<340.098 608.558>
VStem: 82 41<76.6406 967.359> 260 41<191.1 832.9> 641 41<190.212 823.199 877 954.749> 827 41<104 967.359>
LayerCount: 2
Fore
SplineSet
868 61 m 1,0,-1
 852 61 l 2,1,2
 774 61 774 61 728 95 c 128,-1,3
 682 129 682 129 662 180 c 1,4,5
 647 142 647 142 623.5 119 c 128,-1,6
 600 96 600 96 574 83 c 128,-1,7
 548 70 548 70 521 65.5 c 128,-1,8
 494 61 494 61 471 61 c 0,9,10
 410 61 410 61 369.5 81.5 c 128,-1,11
 329 102 329 102 304.5 135 c 128,-1,12
 280 168 280 168 270 210.5 c 128,-1,13
 260 253 260 253 260 297 c 2,14,-1
 260 727 l 2,15,16
 260 771 260 771 270 813.5 c 128,-1,17
 280 856 280 856 304.5 889 c 128,-1,18
 329 922 329 922 369.5 942.5 c 128,-1,19
 410 963 410 963 471 963 c 0,20,21
 533 963 533 963 573 939 c 128,-1,22
 613 915 613 915 641 877 c 1,23,-1
 641 918 l 1,24,25
 635 927 635 927 635 936 c 0,26,27
 635 947 635 947 643 955 c 128,-1,28
 651 963 651 963 662 963 c 256,29,30
 673 963 673 963 680.5 955 c 128,-1,31
 688 947 688 947 688 936 c 0,32,33
 688 927 688 927 682 918 c 1,34,-1
 682 297 l 2,35,36
 682 263 682 263 689 230.5 c 128,-1,37
 696 198 696 198 712.5 171 c 128,-1,38
 729 144 729 144 757 126 c 128,-1,39
 785 108 785 108 827 104 c 1,40,-1
 827 817 l 2,41,42
 827 888 827 888 809.5 958 c 128,-1,43
 792 1028 792 1028 751 1083.5 c 128,-1,44
 710 1139 710 1139 642 1173.5 c 128,-1,45
 574 1208 574 1208 473 1208 c 0,46,47
 373 1208 373 1208 306 1173.5 c 128,-1,48
 239 1139 239 1139 198.5 1083.5 c 128,-1,49
 158 1028 158 1028 140.5 958 c 128,-1,50
 123 888 123 888 123 817 c 2,51,-1
 123 227 l 2,52,53
 123 156 123 156 140.5 86.5 c 128,-1,54
 158 17 158 17 198.5 -39 c 128,-1,55
 239 -95 239 -95 306 -129.5 c 128,-1,56
 373 -164 373 -164 473 -164 c 1,57,-1
 473 -205 l 1,58,59
 361 -205 361 -205 286 -168 c 128,-1,60
 211 -131 211 -131 165.5 -70.5 c 128,-1,61
 120 -10 120 -10 101 67 c 128,-1,62
 82 144 82 144 82 225 c 2,63,-1
 82 819 l 2,64,65
 82 900 82 900 101.5 977 c 128,-1,66
 121 1054 121 1054 166.5 1114.5 c 128,-1,67
 212 1175 212 1175 287.5 1212 c 128,-1,68
 363 1249 363 1249 475 1249 c 0,69,70
 584 1249 584 1249 659 1212 c 128,-1,71
 734 1175 734 1175 780.5 1114.5 c 128,-1,72
 827 1054 827 1054 847.5 977 c 128,-1,73
 868 900 868 900 868 819 c 2,74,-1
 868 61 l 1,0,-1
301 297 m 2,75,76
 301 262 301 262 309 227 c 128,-1,77
 317 192 317 192 336.5 164 c 128,-1,78
 356 136 356 136 388.5 119 c 128,-1,79
 421 102 421 102 471 102 c 0,80,81
 519 102 519 102 551.5 118.5 c 128,-1,82
 584 135 584 135 604 162 c 128,-1,83
 624 189 624 189 632.5 224 c 128,-1,84
 641 259 641 259 641 297 c 2,85,-1
 641 727 l 2,86,87
 641 762 641 762 630.5 797 c 128,-1,88
 620 832 620 832 599 859.5 c 128,-1,89
 578 887 578 887 546 904.5 c 128,-1,90
 514 922 514 922 471 922 c 0,91,92
 421 922 421 922 388.5 904.5 c 128,-1,93
 356 887 356 887 336.5 859.5 c 128,-1,94
 317 832 317 832 309 797 c 128,-1,95
 301 762 301 762 301 727 c 2,96,-1
 301 297 l 2,75,76
EndSplineSet
EndChar

StartChar: A
Encoding: 65 65 35
Width: 598
Flags: W
HStem: -20 21G<100.5 111.5 486.5 497.5> -20 21G<100.5 111.5 486.5 497.5> 983 41<127 471> 1393 41<210.969 471>
VStem: 86 41<-12.2648 983 1024 1305.14> 471 41<-12.2648 983 1024 1393>
LayerCount: 2
Fore
SplineSet
512 23 m 5,0,1
 518 15 518 15 518 6 c 4,2,3
 518 -5 518 -5 510.5 -12.5 c 132,-1,4
 503 -20 503 -20 492 -20 c 260,5,6
 481 -20 481 -20 473 -12.5 c 132,-1,7
 465 -5 465 -5 465 6 c 4,8,9
 465 15 465 15 471 23 c 5,10,-1
 471 983 l 1,11,-1
 127 983 l 1,12,-1
 127 23 l 1,13,14
 133 15 133 15 133 6 c 0,15,16
 133 -5 133 -5 125 -12.5 c 128,-1,17
 117 -20 117 -20 106 -20 c 256,18,19
 95 -20 95 -20 87.5 -12.5 c 128,-1,20
 80 -5 80 -5 80 6 c 0,21,22
 80 15 80 15 86 23 c 1,23,-1
 86 1200 l 2,24,25
 86 1244 86 1244 96 1286 c 128,-1,26
 106 1328 106 1328 131 1361 c 128,-1,27
 156 1394 156 1394 197.5 1414 c 128,-1,28
 239 1434 239 1434 301 1434 c 2,29,-1
 512 1434 l 1,30,-1
 512 23 l 5,0,1
471 1024 m 1,31,-1
 471 1393 l 1,32,-1
 301 1393 l 2,33,34
 250 1393 250 1393 216.5 1376 c 128,-1,35
 183 1359 183 1359 163 1331.5 c 128,-1,36
 143 1304 143 1304 135 1269.5 c 128,-1,37
 127 1235 127 1235 127 1200 c 2,38,-1
 127 1024 l 1,39,-1
 471 1024 l 1,31,-1
EndSplineSet
EndChar

StartChar: B
Encoding: 66 66 36
Width: 582
Flags: W
HStem: 0 41<129 392.125> 983 41<129 380.493> 1393 41<129 384.11>
VStem: 88 41<41 983 1024 1393> 455 41<1105.88 1320.41> 473 41<125.258 894.331>
LayerCount: 2
Fore
SplineSet
514 221 m 2,0,1
 514 116 514 116 459.5 58 c 128,-1,2
 405 0 405 0 299 0 c 2,3,-1
 88 0 l 1,4,-1
 88 1434 l 1,5,-1
 295 1434 l 2,6,7
 353 1434 353 1434 391.5 1417 c 128,-1,8
 430 1400 430 1400 453 1371 c 128,-1,9
 476 1342 476 1342 486 1303 c 128,-1,10
 496 1264 496 1264 496 1221 c 0,11,12
 496 1188 496 1188 491 1155 c 128,-1,13
 486 1122 486 1122 474.5 1093 c 128,-1,14
 463 1064 463 1064 443.5 1040.5 c 128,-1,15
 424 1017 424 1017 395 1004 c 1,16,17
 428 989 428 989 450.5 967 c 128,-1,18
 473 945 473 945 487.5 917.5 c 128,-1,19
 502 890 502 890 508 857.5 c 128,-1,20
 514 825 514 825 514 791 c 2,21,-1
 514 221 l 2,0,1
299 41 m 2,22,23
 386 41 386 41 429.5 89.5 c 128,-1,24
 473 138 473 138 473 223 c 2,25,-1
 473 791 l 2,26,27
 473 827 473 827 464.5 861.5 c 128,-1,28
 456 896 456 896 435.5 923 c 128,-1,29
 415 950 415 950 380.5 966.5 c 128,-1,30
 346 983 346 983 295 983 c 2,31,-1
 129 983 l 1,32,-1
 129 41 l 1,33,-1
 299 41 l 2,22,23
295 1024 m 2,34,35
 344 1024 344 1024 375 1041 c 128,-1,36
 406 1058 406 1058 424 1086 c 128,-1,37
 442 1114 442 1114 448.5 1149.5 c 128,-1,38
 455 1185 455 1185 455 1221 c 0,39,40
 455 1256 455 1256 447 1287.5 c 128,-1,41
 439 1319 439 1319 420.5 1342.5 c 128,-1,42
 402 1366 402 1366 371 1379.5 c 128,-1,43
 340 1393 340 1393 295 1393 c 2,44,-1
 129 1393 l 1,45,-1
 129 1024 l 1,46,-1
 295 1024 l 2,34,35
EndSplineSet
EndChar

StartChar: C
Encoding: 67 67 37
Width: 539
Flags: W
HStem: -20 40<204.94 386.472> 1413 41<207.306 383.155>
VStem: 82 41<104.814 1323.94> 461 53<188.125 225.265 1202.25 1236.81>
LayerCount: 2
Fore
SplineSet
123 207 m 2,0,1
 123 171 123 171 131.5 137.5 c 128,-1,2
 140 104 140 104 160 77.5 c 128,-1,3
 180 51 180 51 213 35.5 c 128,-1,4
 246 20 246 20 295 20 c 0,5,6
 341 20 341 20 373 33.5 c 128,-1,7
 405 47 405 47 425.5 70 c 128,-1,8
 446 93 446 93 455.5 123.5 c 128,-1,9
 465 154 465 154 467 188 c 1,10,11
 464 192 464 192 462.5 197 c 128,-1,12
 461 202 461 202 461 207 c 0,13,14
 461 218 461 218 468.5 225.5 c 128,-1,15
 476 233 476 233 487 233 c 256,16,17
 498 233 498 233 506 225.5 c 128,-1,18
 514 218 514 218 514 207 c 0,19,20
 514 202 514 202 512.5 197 c 128,-1,21
 511 192 511 192 508 188 c 1,22,23
 506 147 506 147 493.5 109 c 128,-1,24
 481 71 481 71 456 42.5 c 128,-1,25
 431 14 431 14 391.5 -3 c 128,-1,26
 352 -20 352 -20 295 -20 c 0,27,28
 234 -20 234 -20 193 -1 c 128,-1,29
 152 18 152 18 127.5 49.5 c 128,-1,30
 103 81 103 81 92.5 122 c 128,-1,31
 82 163 82 163 82 207 c 2,32,-1
 82 1221 l 2,33,34
 82 1264 82 1264 92.5 1306 c 128,-1,35
 103 1348 103 1348 127.5 1381 c 128,-1,36
 152 1414 152 1414 193 1434 c 128,-1,37
 234 1454 234 1454 295 1454 c 0,38,39
 352 1454 352 1454 391.5 1436 c 128,-1,40
 431 1418 431 1418 456 1388 c 128,-1,41
 481 1358 481 1358 493.5 1319.5 c 128,-1,42
 506 1281 506 1281 508 1239 c 1,43,44
 511 1236 511 1236 512.5 1231 c 128,-1,45
 514 1226 514 1226 514 1221 c 0,46,47
 514 1210 514 1210 506 1202 c 128,-1,48
 498 1194 498 1194 487 1194 c 256,49,50
 476 1194 476 1194 468.5 1202 c 128,-1,51
 461 1210 461 1210 461 1221 c 0,52,53
 461 1231 461 1231 467 1237 c 1,54,55
 465 1270 465 1270 455.5 1301.5 c 128,-1,56
 446 1333 446 1333 425.5 1358 c 128,-1,57
 405 1383 405 1383 373 1398 c 128,-1,58
 341 1413 341 1413 295 1413 c 0,59,60
 246 1413 246 1413 213 1396 c 128,-1,61
 180 1379 180 1379 160 1352 c 128,-1,62
 140 1325 140 1325 131.5 1290.5 c 128,-1,63
 123 1256 123 1256 123 1221 c 2,64,-1
 123 207 l 2,0,1
EndSplineSet
EndChar

StartChar: bracketleft
Encoding: 91 91 38
Width: 371
Flags: W
HStem: -164 41<145 340.265> 1556 41<145 340.265>
VStem: 102 43<-123 1556>
LayerCount: 2
Fore
SplineSet
303 -123 m 1,0,1
 312 -117 312 -117 322 -117 c 0,2,3
 333 -117 333 -117 340.5 -124.5 c 128,-1,4
 348 -132 348 -132 348 -143 c 256,5,6
 348 -154 348 -154 340.5 -162 c 128,-1,7
 333 -170 333 -170 322 -170 c 0,8,9
 312 -170 312 -170 303 -164 c 1,10,-1
 102 -164 l 1,11,-1
 102 1597 l 1,12,-1
 303 1597 l 1,13,14
 311 1604 311 1604 322 1604 c 256,15,16
 333 1604 333 1604 340.5 1596 c 128,-1,17
 348 1588 348 1588 348 1577 c 256,18,19
 348 1566 348 1566 340.5 1558 c 128,-1,20
 333 1550 333 1550 322 1550 c 0,21,22
 312 1550 312 1550 303 1556 c 1,23,-1
 145 1556 l 1,24,-1
 145 -123 l 1,25,-1
 303 -123 l 1,0,1
EndSplineSet
EndChar

StartChar: asciicircum
Encoding: 94 94 41
Width: 598
Flags: W
HStem: 1434 20G<301.5 312.5>
VStem: 102 54<508.002 548.75> 281 53<1413.09 1445.75> 442 54<516.251 604.791>
LayerCount: 2
Fore
SplineSet
489 551 m 1,0,1
 496 545 496 545 496 535 c 0,2,3
 496 524 496 524 489.5 516 c 128,-1,4
 483 508 483 508 469 508 c 256,5,6
 455 508 455 508 448.5 516 c 128,-1,7
 442 524 442 524 442 535 c 0,8,9
 442 539 442 539 446 547 c 1,10,-1
 305 1313 l 1,11,-1
 152 549 l 1,12,13
 156 541 156 541 156 535 c 0,14,15
 156 524 156 524 148 516 c 128,-1,16
 140 508 140 508 129 508 c 256,17,18
 118 508 118 508 110 516 c 128,-1,19
 102 524 102 524 102 535 c 0,20,21
 102 541 102 541 104 546.5 c 128,-1,22
 106 552 106 552 111 555 c 1,23,-1
 283 1413 l 1,24,25
 281 1416 281 1416 281 1420 c 2,26,-1
 281 1427 l 2,27,28
 281 1438 281 1438 288.5 1446 c 128,-1,29
 296 1454 296 1454 307 1454 c 256,30,31
 318 1454 318 1454 326 1446 c 128,-1,32
 334 1438 334 1438 334 1427 c 0,33,34
 334 1422 334 1422 333 1419 c 128,-1,35
 332 1416 332 1416 330 1413 c 1,36,-1
 489 551 l 1,0,1
EndSplineSet
EndChar

StartChar: grave
Encoding: 96 96 43
Width: 451
Flags: W
HStem: 1401 53<90.2507 109>
VStem: 315 54<1167 1194>
LayerCount: 2
Fore
SplineSet
344 1221 m 1,0,1
 353 1219 353 1219 361 1211 c 128,-1,2
 369 1203 369 1203 369 1194 c 0,3,4
 369 1183 369 1183 361 1175 c 128,-1,5
 353 1167 353 1167 342 1167 c 256,6,7
 331 1167 331 1167 323 1175 c 128,-1,8
 315 1183 315 1183 315 1194 c 1,9,-1
 109 1401 l 1,10,11
 98 1401 98 1401 90 1408.5 c 128,-1,12
 82 1416 82 1416 82 1427 c 256,13,14
 82 1438 82 1438 90 1446 c 128,-1,15
 98 1454 98 1454 109 1454 c 0,16,17
 118 1454 118 1454 125.5 1446.5 c 128,-1,18
 133 1439 133 1439 135 1430 c 1,19,-1
 344 1221 l 1,0,1
EndSplineSet
EndChar

StartChar: a
Encoding: 97 97 44
Width: 563
Flags: W
HStem: -20 40<186.567 361.874> -20 21G<459.5 470.5> 575 41<200.52 444> 1004 40<188.105 358.85>
VStem: 63 41<108.812 488.002 786.049 828.906> 444 41<-12.2648 66 106.484 575 616 912.944>
LayerCount: 2
Fore
SplineSet
485 23 m 1,0,1
 492 14 492 14 492 6 c 0,2,3
 492 -5 492 -5 484 -12.5 c 128,-1,4
 476 -20 476 -20 465 -20 c 256,5,6
 454 -20 454 -20 446 -12.5 c 128,-1,7
 438 -5 438 -5 438 6 c 0,8,9
 438 15 438 15 444 23 c 1,10,-1
 444 66 l 1,11,12
 417 27 417 27 376.5 3.5 c 128,-1,13
 336 -20 336 -20 274 -20 c 0,14,15
 214 -20 214 -20 173.5 0.5 c 128,-1,16
 133 21 133 21 108.5 54 c 128,-1,17
 84 87 84 87 73.5 129 c 128,-1,18
 63 171 63 171 63 215 c 2,19,-1
 63 381 l 2,20,21
 63 425 63 425 72.5 467 c 128,-1,22
 82 509 82 509 109.5 542 c 128,-1,23
 137 575 137 575 188.5 595.5 c 128,-1,24
 240 616 240 616 324 616 c 2,25,-1
 444 616 l 1,26,-1
 444 809 l 2,27,28
 444 844 444 844 435.5 879 c 128,-1,29
 427 914 427 914 407.5 941.5 c 128,-1,30
 388 969 388 969 355 986.5 c 128,-1,31
 322 1004 322 1004 274 1004 c 0,32,33
 228 1004 228 1004 196 988.5 c 128,-1,34
 164 973 164 973 143.5 948.5 c 128,-1,35
 123 924 123 924 113 892 c 128,-1,36
 103 860 103 860 102 827 c 1,37,38
 109 820 109 820 109 811 c 256,39,40
 109 802 109 802 101 794 c 128,-1,41
 93 786 93 786 82 786 c 256,42,43
 71 786 71 786 63 794 c 128,-1,44
 55 802 55 802 55 811 c 0,45,46
 55 816 55 816 56.5 821 c 128,-1,47
 58 826 58 826 61 829 c 1,48,49
 64 871 64 871 76 909.5 c 128,-1,50
 88 948 88 948 113.5 978 c 128,-1,51
 139 1008 139 1008 178 1026 c 128,-1,52
 217 1044 217 1044 274 1044 c 0,53,54
 334 1044 334 1044 374.5 1023.5 c 128,-1,55
 415 1003 415 1003 439.5 970 c 128,-1,56
 464 937 464 937 474.5 895 c 128,-1,57
 485 853 485 853 485 809 c 2,58,-1
 485 23 l 1,0,1
104 215 m 2,59,60
 104 180 104 180 112 145 c 128,-1,61
 120 110 120 110 139.5 82 c 128,-1,62
 159 54 159 54 191.5 37 c 128,-1,63
 224 20 224 20 274 20 c 0,64,65
 322 20 322 20 354 35.5 c 128,-1,66
 386 51 386 51 405.5 76.5 c 128,-1,67
 425 102 425 102 433.5 134.5 c 128,-1,68
 442 167 442 167 444 201 c 1,69,-1
 444 575 l 1,70,-1
 324 575 l 2,71,72
 252 575 252 575 208.5 558 c 128,-1,73
 165 541 165 541 141.5 513.5 c 128,-1,74
 118 486 118 486 111 451 c 128,-1,75
 104 416 104 416 104 381 c 2,76,-1
 104 215 l 2,59,60
EndSplineSet
EndChar

StartChar: b
Encoding: 98 98 45
Width: 573
Flags: W
HStem: -20 40<209.517 380.236> -20 21G<96.5 107.5> 1004 40<213.923 379.742> 1434 20G<96.5 107.5>
VStem: 82 41<-12.2648 66 112.65 905.199 949 1445.75> 463 41<108.812 915.038>
LayerCount: 2
Fore
SplineSet
504 215 m 2,0,1
 504 171 504 171 494 129 c 128,-1,2
 484 87 484 87 459.5 54 c 128,-1,3
 435 21 435 21 394.5 0.5 c 128,-1,4
 354 -20 354 -20 293 -20 c 0,5,6
 231 -20 231 -20 191 3.5 c 128,-1,7
 151 27 151 27 123 66 c 1,8,-1
 123 23 l 1,9,10
 129 15 129 15 129 6 c 0,11,12
 129 -5 129 -5 121 -12.5 c 128,-1,13
 113 -20 113 -20 102 -20 c 256,14,15
 91 -20 91 -20 83.5 -12.5 c 128,-1,16
 76 -5 76 -5 76 6 c 0,17,18
 76 15 76 15 82 23 c 1,19,-1
 82 1409 l 1,20,21
 76 1418 76 1418 76 1427 c 0,22,23
 76 1438 76 1438 83.5 1446 c 128,-1,24
 91 1454 91 1454 102 1454 c 256,25,26
 113 1454 113 1454 121 1446 c 128,-1,27
 129 1438 129 1438 129 1427 c 0,28,29
 129 1418 129 1418 123 1409 c 1,30,-1
 123 949 l 1,31,32
 151 997 151 997 191 1020.5 c 128,-1,33
 231 1044 231 1044 293 1044 c 0,34,35
 354 1044 354 1044 394.5 1023.5 c 128,-1,36
 435 1003 435 1003 459.5 970 c 128,-1,37
 484 937 484 937 494 895 c 128,-1,38
 504 853 504 853 504 809 c 2,39,-1
 504 215 l 2,0,1
123 215 m 2,40,41
 123 181 123 181 131.5 146.5 c 128,-1,42
 140 112 140 112 160 84 c 128,-1,43
 180 56 180 56 212.5 38 c 128,-1,44
 245 20 245 20 293 20 c 0,45,46
 343 20 343 20 375.5 37 c 128,-1,47
 408 54 408 54 427.5 82 c 128,-1,48
 447 110 447 110 455 145 c 128,-1,49
 463 180 463 180 463 215 c 2,50,-1
 463 809 l 2,51,52
 463 844 463 844 455 879 c 128,-1,53
 447 914 447 914 427.5 941.5 c 128,-1,54
 408 969 408 969 375.5 986.5 c 128,-1,55
 343 1004 343 1004 293 1004 c 0,56,57
 250 1004 250 1004 218 986.5 c 128,-1,58
 186 969 186 969 165 941.5 c 128,-1,59
 144 914 144 914 133.5 879 c 128,-1,60
 123 844 123 844 123 809 c 2,61,-1
 123 215 l 2,40,41
EndSplineSet
EndChar

StartChar: c
Encoding: 99 99 46
Width: 539
Flags: W
HStem: -20 40<196.962 371.595> 1004 40<198.15 368.895>
VStem: 72 41<109.9 912.944> 449 53<195.094 237.992 793.22 924.757>
LayerCount: 2
Fore
SplineSet
113 215 m 2,0,1
 113 179 113 179 121.5 144 c 128,-1,2
 130 109 130 109 149.5 81.5 c 128,-1,3
 169 54 169 54 202 37 c 128,-1,4
 235 20 235 20 283 20 c 0,5,6
 329 20 329 20 361 34.5 c 128,-1,7
 393 49 393 49 413.5 73.5 c 128,-1,8
 434 98 434 98 443.5 129.5 c 128,-1,9
 453 161 453 161 455 195 c 1,10,11
 452 198 452 198 450.5 203 c 128,-1,12
 449 208 449 208 449 213 c 0,13,14
 449 222 449 222 456.5 230 c 128,-1,15
 464 238 464 238 475 238 c 256,16,17
 486 238 486 238 494 230.5 c 128,-1,18
 502 223 502 223 502 213 c 0,19,20
 502 208 502 208 500.5 203 c 128,-1,21
 499 198 499 198 496 195 c 1,22,23
 493 153 493 153 481 114.5 c 128,-1,24
 469 76 469 76 443.5 46 c 128,-1,25
 418 16 418 16 379 -2 c 128,-1,26
 340 -20 340 -20 283 -20 c 0,27,28
 223 -20 223 -20 182.5 0.5 c 128,-1,29
 142 21 142 21 117.5 54 c 128,-1,30
 93 87 93 87 82.5 129 c 128,-1,31
 72 171 72 171 72 215 c 2,32,-1
 72 809 l 2,33,34
 72 853 72 853 82.5 895 c 128,-1,35
 93 937 93 937 117.5 970 c 128,-1,36
 142 1003 142 1003 182.5 1023.5 c 128,-1,37
 223 1044 223 1044 283 1044 c 0,38,39
 340 1044 340 1044 379 1026 c 128,-1,40
 418 1008 418 1008 443.5 978 c 128,-1,41
 469 948 469 948 481 909.5 c 128,-1,42
 493 871 493 871 496 829 c 1,43,44
 499 826 499 826 500.5 821 c 128,-1,45
 502 816 502 816 502 811 c 0,46,47
 502 800 502 800 494 793 c 128,-1,48
 486 786 486 786 475 786 c 256,49,50
 464 786 464 786 456.5 793 c 128,-1,51
 449 800 449 800 449 811 c 0,52,53
 449 821 449 821 455 827 c 1,54,55
 453 860 453 860 443.5 892 c 128,-1,56
 434 924 434 924 413.5 948.5 c 128,-1,57
 393 973 393 973 361 988.5 c 128,-1,58
 329 1004 329 1004 283 1004 c 0,59,60
 235 1004 235 1004 202 986.5 c 128,-1,61
 169 969 169 969 149.5 941.5 c 128,-1,62
 130 914 130 914 121.5 879 c 128,-1,63
 113 844 113 844 113 809 c 2,64,-1
 113 215 l 2,0,1
EndSplineSet
EndChar

StartChar: e
Encoding: 101 101 48
Width: 555
Flags: W
HStem: -20 40<196.962 371.666> 575 41<113 453> 1004 40<198.15 368.866>
VStem: 72 41<109.9 575 616 912.944> 446 54<197.094 239.998 616 926.361>
LayerCount: 2
Fore
SplineSet
494 575 m 1,0,-1
 113 575 l 1,1,-1
 113 215 l 2,2,3
 113 179 113 179 121.5 144 c 128,-1,4
 130 109 130 109 149.5 81.5 c 128,-1,5
 169 54 169 54 202 37 c 128,-1,6
 235 20 235 20 283 20 c 0,7,8
 330 20 330 20 362 35 c 128,-1,9
 394 50 394 50 413.5 74.5 c 128,-1,10
 433 99 433 99 442 131 c 128,-1,11
 451 163 451 163 453 197 c 1,12,13
 450 200 450 200 448 205 c 128,-1,14
 446 210 446 210 446 213 c 0,15,16
 446 224 446 224 454 232 c 128,-1,17
 462 240 462 240 473 240 c 256,18,19
 484 240 484 240 492 232 c 128,-1,20
 500 224 500 224 500 213 c 0,21,22
 500 210 500 210 498.5 205 c 128,-1,23
 497 200 497 200 494 197 c 1,24,25
 491 155 491 155 479.5 116 c 128,-1,26
 468 77 468 77 444 47 c 128,-1,27
 420 17 420 17 380.5 -1.5 c 128,-1,28
 341 -20 341 -20 283 -20 c 0,29,30
 223 -20 223 -20 182.5 0.5 c 128,-1,31
 142 21 142 21 117.5 54 c 128,-1,32
 93 87 93 87 82.5 129 c 128,-1,33
 72 171 72 171 72 215 c 2,34,-1
 72 809 l 2,35,36
 72 853 72 853 82.5 895 c 128,-1,37
 93 937 93 937 117.5 970 c 128,-1,38
 142 1003 142 1003 182.5 1023.5 c 128,-1,39
 223 1044 223 1044 283 1044 c 256,40,41
 343 1044 343 1044 383 1023.5 c 128,-1,42
 423 1003 423 1003 448 970 c 128,-1,43
 473 937 473 937 483.5 895 c 128,-1,44
 494 853 494 853 494 809 c 2,45,-1
 494 575 l 1,0,-1
453 616 m 1,46,-1
 453 809 l 2,47,48
 453 844 453 844 445 879 c 128,-1,49
 437 914 437 914 417.5 941.5 c 128,-1,50
 398 969 398 969 365 986.5 c 128,-1,51
 332 1004 332 1004 283 1004 c 0,52,53
 235 1004 235 1004 202 986.5 c 128,-1,54
 169 969 169 969 149.5 941.5 c 128,-1,55
 130 914 130 914 121.5 879 c 128,-1,56
 113 844 113 844 113 809 c 2,57,-1
 113 616 l 1,58,-1
 453 616 l 1,46,-1
EndSplineSet
EndChar

StartChar: f
Encoding: 102 102 49
Width: 399
Flags: W
HStem: -20 21G<156.5 167.5> -20 21G<156.5 167.5> 983 41<14.2507 141 182 378.749> 1386 54<252.862 386.998>
VStem: 141 41<-12.2648 983 1024 1299.25>
LayerCount: 2
Fore
SplineSet
182 23 m 1,0,1
 188 15 188 15 188 6 c 0,2,3
 188 -5 188 -5 180.5 -12.5 c 128,-1,4
 173 -20 173 -20 162 -20 c 256,5,6
 151 -20 151 -20 143 -12.5 c 128,-1,7
 135 -5 135 -5 135 6 c 0,8,9
 135 15 135 15 141 23 c 1,10,-1
 141 983 l 1,11,-1
 49 983 l 1,12,13
 43 977 43 977 33 977 c 0,14,15
 22 977 22 977 14 985 c 128,-1,16
 6 993 6 993 6 1004 c 256,17,18
 6 1015 6 1015 14 1022.5 c 128,-1,19
 22 1030 22 1030 33 1030 c 0,20,21
 43 1030 43 1030 49 1024 c 1,22,-1
 141 1024 l 1,23,-1
 141 1198 l 2,24,25
 141 1240 141 1240 151 1281.5 c 128,-1,26
 161 1323 161 1323 184.5 1356 c 128,-1,27
 208 1389 208 1389 246.5 1410 c 128,-1,28
 285 1431 285 1431 342 1434 c 1,29,30
 351 1440 351 1440 360 1440 c 0,31,32
 371 1440 371 1440 379 1432 c 128,-1,33
 387 1424 387 1424 387 1413 c 256,34,35
 387 1402 387 1402 379 1394 c 128,-1,36
 371 1386 371 1386 360 1386 c 0,37,38
 352 1386 352 1386 342 1393 c 1,39,40
 297 1390 297 1390 266.5 1372.5 c 128,-1,41
 236 1355 236 1355 217.5 1327.5 c 128,-1,42
 199 1300 199 1300 191 1266 c 128,-1,43
 183 1232 183 1232 182 1198 c 1,44,-1
 182 1024 l 1,45,-1
 342 1024 l 1,46,47
 351 1030 351 1030 360 1030 c 0,48,49
 371 1030 371 1030 379 1022.5 c 128,-1,50
 387 1015 387 1015 387 1004 c 256,51,52
 387 993 387 993 379 985 c 128,-1,53
 371 977 371 977 360 977 c 0,54,55
 351 977 351 977 342 983 c 1,56,-1
 182 983 l 1,57,-1
 182 23 l 1,0,1
EndSplineSet
EndChar

StartChar: g
Encoding: 103 103 50
Width: 573
Flags: W
HStem: -430 41<193.732 370.04> -20 40<195.764 370.702> 1004 40<196.258 362.077>
VStem: 63 54<-309.639 -172.002 103.629 920.371> 453 41<-299.967 66 106.484 905.199 958 1046.99>
LayerCount: 2
Fore
SplineSet
494 -195 m 2,0,1
 494 -239 494 -239 483.5 -281 c 128,-1,2
 473 -323 473 -323 448 -356 c 128,-1,3
 423 -389 423 -389 383 -409.5 c 128,-1,4
 343 -430 343 -430 283 -430 c 0,5,6
 226 -430 226 -430 186.5 -412 c 128,-1,7
 147 -394 147 -394 122 -364 c 128,-1,8
 97 -334 97 -334 84.5 -295.5 c 128,-1,9
 72 -257 72 -257 70 -215 c 1,10,11
 63 -208 63 -208 63 -197 c 0,12,13
 63 -187 63 -187 71 -179.5 c 128,-1,14
 79 -172 79 -172 90 -172 c 256,15,16
 101 -172 101 -172 109 -179.5 c 128,-1,17
 117 -187 117 -187 117 -197 c 0,18,19
 117 -202 117 -202 115.5 -207 c 128,-1,20
 114 -212 114 -212 111 -215 c 1,21,22
 112 -249 112 -249 122 -280.5 c 128,-1,23
 132 -312 132 -312 152.5 -336 c 128,-1,24
 173 -360 173 -360 205 -374.5 c 128,-1,25
 237 -389 237 -389 283 -389 c 0,26,27
 331 -389 331 -389 364 -372 c 128,-1,28
 397 -355 397 -355 416.5 -328 c 128,-1,29
 436 -301 436 -301 444.5 -266 c 128,-1,30
 453 -231 453 -231 453 -195 c 2,31,-1
 453 66 l 1,32,33
 425 27 425 27 385 3.5 c 128,-1,34
 345 -20 345 -20 283 -20 c 0,35,36
 222 -20 222 -20 181.5 0.5 c 128,-1,37
 141 21 141 21 116.5 54 c 128,-1,38
 92 87 92 87 82 129 c 128,-1,39
 72 171 72 171 72 215 c 2,40,-1
 72 809 l 2,41,42
 72 853 72 853 82 895 c 128,-1,43
 92 937 92 937 116.5 970 c 128,-1,44
 141 1003 141 1003 181.5 1023.5 c 128,-1,45
 222 1044 222 1044 283 1044 c 0,46,47
 345 1044 345 1044 385 1020.5 c 128,-1,48
 425 997 425 997 453 958 c 1,49,-1
 453 1001 l 1,50,51
 446 1013 446 1013 446 1020 c 0,52,53
 446 1031 446 1031 454 1039 c 128,-1,54
 462 1047 462 1047 473 1047 c 256,55,56
 484 1047 484 1047 492 1039 c 128,-1,57
 500 1031 500 1031 500 1020 c 0,58,59
 500 1011 500 1011 494 1001 c 1,60,-1
 494 -195 l 2,0,1
113 215 m 2,61,62
 113 180 113 180 121 145 c 128,-1,63
 129 110 129 110 148.5 82 c 128,-1,64
 168 54 168 54 200.5 37 c 128,-1,65
 233 20 233 20 283 20 c 0,66,67
 331 20 331 20 363 35.5 c 128,-1,68
 395 51 395 51 414.5 76.5 c 128,-1,69
 434 102 434 102 442.5 134.5 c 128,-1,70
 451 167 451 167 453 201 c 1,71,-1
 453 809 l 2,72,73
 453 844 453 844 442.5 879 c 128,-1,74
 432 914 432 914 411 941.5 c 128,-1,75
 390 969 390 969 358 986.5 c 128,-1,76
 326 1004 326 1004 283 1004 c 0,77,78
 233 1004 233 1004 200.5 986.5 c 128,-1,79
 168 969 168 969 148.5 941.5 c 128,-1,80
 129 914 129 914 121 879 c 128,-1,81
 113 844 113 844 113 809 c 2,82,-1
 113 215 l 2,61,62
EndSplineSet
EndChar

StartChar: h
Encoding: 104 104 51
Width: 582
Flags: W
HStem: -20 21G<96.5 107.5 477.5 488.5> -20 21G<96.5 107.5 477.5 488.5> 1004 40<214.062 379.742> 1434 20G<96.5 107.5>
VStem: 76 53<-12.2648 927.281 949 1445.75> 457 53<-12.2648 926.439>
LayerCount: 2
Fore
SplineSet
504 23 m 1,0,1
 510 15 510 15 510 6 c 0,2,3
 510 -5 510 -5 502 -12.5 c 128,-1,4
 494 -20 494 -20 483 -20 c 256,5,6
 472 -20 472 -20 464.5 -12.5 c 128,-1,7
 457 -5 457 -5 457 6 c 0,8,9
 457 15 457 15 463 23 c 1,10,-1
 463 809 l 2,11,12
 463 844 463 844 455 879 c 128,-1,13
 447 914 447 914 427.5 941.5 c 128,-1,14
 408 969 408 969 375.5 986.5 c 128,-1,15
 343 1004 343 1004 293 1004 c 0,16,17
 250 1004 250 1004 218 986.5 c 128,-1,18
 186 969 186 969 165 941.5 c 128,-1,19
 144 914 144 914 133.5 879 c 128,-1,20
 123 844 123 844 123 809 c 2,21,-1
 123 23 l 1,22,23
 129 15 129 15 129 6 c 0,24,25
 129 -5 129 -5 121 -12.5 c 128,-1,26
 113 -20 113 -20 102 -20 c 256,27,28
 91 -20 91 -20 83.5 -12.5 c 128,-1,29
 76 -5 76 -5 76 6 c 0,30,31
 76 15 76 15 82 23 c 1,32,-1
 82 1409 l 1,33,34
 76 1418 76 1418 76 1427 c 0,35,36
 76 1438 76 1438 83.5 1446 c 128,-1,37
 91 1454 91 1454 102 1454 c 256,38,39
 113 1454 113 1454 121 1446 c 128,-1,40
 129 1438 129 1438 129 1427 c 0,41,42
 129 1418 129 1418 123 1409 c 1,43,-1
 123 949 l 1,44,45
 151 997 151 997 194.5 1020.5 c 128,-1,46
 238 1044 238 1044 293 1044 c 0,47,48
 354 1044 354 1044 394.5 1023.5 c 128,-1,49
 435 1003 435 1003 459.5 970 c 128,-1,50
 484 937 484 937 494 895 c 128,-1,51
 504 853 504 853 504 809 c 2,52,-1
 504 23 l 1,0,1
EndSplineSet
EndChar

StartChar: i
Encoding: 105 105 52
Width: 215
Flags: W
HStem: -20 21G<103.5 114.5> -20 21G<103.5 114.5> 1024 20G<103.5 114.5>
VStem: 82 53<-12.2648 1036.26 1235.25 1366.26>
LayerCount: 2
Fore
SplineSet
129 23 m 1,0,1
 135 15 135 15 135 6 c 0,2,3
 135 -5 135 -5 127.5 -12.5 c 128,-1,4
 120 -20 120 -20 109 -20 c 256,5,6
 98 -20 98 -20 90 -12.5 c 128,-1,7
 82 -5 82 -5 82 6 c 0,8,9
 82 15 82 15 88 23 c 1,10,-1
 88 999 l 1,11,12
 82 1009 82 1009 82 1018 c 0,13,14
 82 1029 82 1029 90 1036.5 c 128,-1,15
 98 1044 98 1044 109 1044 c 256,16,17
 120 1044 120 1044 127.5 1036.5 c 128,-1,18
 135 1029 135 1029 135 1018 c 0,19,20
 135 1009 135 1009 129 999 c 1,21,-1
 129 23 l 1,0,1
129 1270 m 1,22,23
 135 1264 135 1264 135 1254 c 0,24,25
 135 1243 135 1243 127.5 1235 c 128,-1,26
 120 1227 120 1227 109 1227 c 256,27,28
 98 1227 98 1227 90 1235 c 128,-1,29
 82 1243 82 1243 82 1254 c 0,30,31
 82 1264 82 1264 88 1270 c 1,32,-1
 88 1329 l 1,33,34
 82 1339 82 1339 82 1348 c 0,35,36
 82 1359 82 1359 90 1366.5 c 128,-1,37
 98 1374 98 1374 109 1374 c 256,38,39
 120 1374 120 1374 127.5 1366.5 c 128,-1,40
 135 1359 135 1359 135 1348 c 0,41,42
 135 1339 135 1339 129 1329 c 1,43,-1
 129 1270 l 1,22,23
EndSplineSet
EndChar

StartChar: j
Encoding: 106 106 53
Width: 213
Flags: W
HStem: -430 53<-110.749 14.2695> 1024 20G<100.5 111.5>
VStem: 86 41<-290.486 1036.26 1235.25 1366.26>
LayerCount: 2
Fore
SplineSet
127 -188 m 2,0,1
 127 -230 127 -230 116.5 -271.5 c 128,-1,2
 106 -313 106 -313 82.5 -346 c 128,-1,3
 59 -379 59 -379 20.5 -400.5 c 128,-1,4
 -18 -422 -18 -422 -74 -424 c 1,5,6
 -83 -430 -83 -430 -92 -430 c 0,7,8
 -103 -430 -103 -430 -111 -422 c 128,-1,9
 -119 -414 -119 -414 -119 -403 c 256,10,11
 -119 -392 -119 -392 -111 -384.5 c 128,-1,12
 -103 -377 -103 -377 -92 -377 c 0,13,14
 -83 -377 -83 -377 -74 -383 c 1,15,16
 -29 -381 -29 -381 1.5 -363 c 128,-1,17
 32 -345 32 -345 50.5 -318 c 128,-1,18
 69 -291 69 -291 77 -257 c 128,-1,19
 85 -223 85 -223 86 -188 c 1,20,-1
 86 999 l 1,21,22
 80 1009 80 1009 80 1018 c 0,23,24
 80 1029 80 1029 87.5 1036.5 c 128,-1,25
 95 1044 95 1044 106 1044 c 256,26,27
 117 1044 117 1044 125 1036.5 c 128,-1,28
 133 1029 133 1029 133 1018 c 0,29,30
 133 1009 133 1009 127 999 c 1,31,-1
 127 -188 l 2,0,1
127 1270 m 1,32,33
 133 1264 133 1264 133 1254 c 0,34,35
 133 1243 133 1243 125.5 1235 c 128,-1,36
 118 1227 118 1227 107 1227 c 256,37,38
 96 1227 96 1227 88 1235 c 128,-1,39
 80 1243 80 1243 80 1254 c 0,40,41
 80 1264 80 1264 86 1270 c 1,42,-1
 86 1329 l 1,43,44
 80 1339 80 1339 80 1348 c 0,45,46
 80 1359 80 1359 88 1366.5 c 128,-1,47
 96 1374 96 1374 107 1374 c 256,48,49
 118 1374 118 1374 125.5 1366.5 c 128,-1,50
 133 1359 133 1359 133 1348 c 0,51,52
 133 1339 133 1339 127 1329 c 1,53,-1
 127 1270 l 1,32,33
EndSplineSet
EndChar

StartChar: k
Encoding: 107 107 54
Width: 512
Flags: W
HStem: -20 21G<96.5 107.5 477.5 488.5> -20 21G<96.5 107.5 477.5 488.5> 1024 20G<471.5 482.5> 1434 20G<96.5 107.5>
VStem: 76 53<-12.2648 391 471 1445.75> 457 53<-12.2648 14 1014 1036.26>
LayerCount: 2
Fore
SplineSet
496 29 m 1,0,1
 510 22 510 22 510 6 c 0,2,3
 510 -5 510 -5 502 -12.5 c 128,-1,4
 494 -20 494 -20 483 -20 c 256,5,6
 472 -20 472 -20 464.5 -12.5 c 128,-1,7
 457 -5 457 -5 457 6 c 2,8,-1
 457 14 l 1,9,-1
 215 545 l 1,10,-1
 123 391 l 1,11,-1
 123 23 l 1,12,13
 129 15 129 15 129 6 c 0,14,15
 129 -5 129 -5 121 -12.5 c 128,-1,16
 113 -20 113 -20 102 -20 c 256,17,18
 91 -20 91 -20 83.5 -12.5 c 128,-1,19
 76 -5 76 -5 76 6 c 0,20,21
 76 15 76 15 82 23 c 1,22,-1
 82 1409 l 1,23,24
 76 1418 76 1418 76 1427 c 0,25,26
 76 1438 76 1438 83.5 1446 c 128,-1,27
 91 1454 91 1454 102 1454 c 256,28,29
 113 1454 113 1454 121 1446 c 128,-1,30
 129 1438 129 1438 129 1427 c 0,31,32
 129 1418 129 1418 123 1409 c 1,33,-1
 123 471 l 1,34,-1
 451 1014 l 1,35,-1
 451 1018 l 2,36,37
 451 1029 451 1029 458.5 1036.5 c 128,-1,38
 466 1044 466 1044 477 1044 c 256,39,40
 488 1044 488 1044 496 1036.5 c 128,-1,41
 504 1029 504 1029 504 1018 c 0,42,43
 504 998 504 998 485 991 c 1,44,-1
 242 588 l 1,45,-1
 496 29 l 1,0,1
EndSplineSet
EndChar

StartChar: l
Encoding: 108 108 55
Width: 215
Flags: W
HStem: -20 21G<103.5 114.5> -20 21G<103.5 114.5> 1434 20G<103.5 114.5>
VStem: 82 53<-12.2648 1445.75>
LayerCount: 2
Fore
SplineSet
129 23 m 1,0,1
 135 15 135 15 135 6 c 0,2,3
 135 -5 135 -5 127.5 -12.5 c 128,-1,4
 120 -20 120 -20 109 -20 c 256,5,6
 98 -20 98 -20 90 -12.5 c 128,-1,7
 82 -5 82 -5 82 6 c 0,8,9
 82 15 82 15 88 23 c 1,10,-1
 88 1409 l 1,11,12
 82 1418 82 1418 82 1427 c 0,13,14
 82 1438 82 1438 90 1446 c 128,-1,15
 98 1454 98 1454 109 1454 c 256,16,17
 120 1454 120 1454 127.5 1446 c 128,-1,18
 135 1438 135 1438 135 1427 c 0,19,20
 135 1418 135 1418 129 1409 c 1,21,-1
 129 23 l 1,0,1
EndSplineSet
EndChar

StartChar: m
Encoding: 109 109 56
Width: 872
Flags: W
HStem: -20 21G<96.5 107.5 432.5 443.5 768.5 779.5> -20 21G<96.5 107.5 432.5 443.5 768.5 779.5> 1004 40<188.583 349.715 526.551 685.609>
VStem: 76 53<-12.2648 1036.26> 412 53<-12.2648 941.409> 748 53<-12.2648 945.93>
CounterMasks: 1 1c
LayerCount: 2
Fore
SplineSet
795 23 m 1,0,1
 801 15 801 15 801 6 c 0,2,3
 801 -5 801 -5 793 -12.5 c 128,-1,4
 785 -20 785 -20 774 -20 c 256,5,6
 763 -20 763 -20 755.5 -12.5 c 128,-1,7
 748 -5 748 -5 748 6 c 0,8,9
 748 15 748 15 754 23 c 1,10,-1
 754 836 l 2,11,12
 754 866 754 866 747 896 c 128,-1,13
 740 926 740 926 723 950 c 128,-1,14
 706 974 706 974 677.5 989 c 128,-1,15
 649 1004 649 1004 606 1004 c 0,16,17
 565 1004 565 1004 537.5 990.5 c 128,-1,18
 510 977 510 977 493 955 c 128,-1,19
 476 933 476 933 468 905 c 128,-1,20
 460 877 460 877 459 848 c 1,21,-1
 459 23 l 1,22,23
 465 15 465 15 465 6 c 0,24,25
 465 -5 465 -5 457 -12.5 c 128,-1,26
 449 -20 449 -20 438 -20 c 256,27,28
 427 -20 427 -20 419.5 -12.5 c 128,-1,29
 412 -5 412 -5 412 6 c 0,30,31
 412 15 412 15 418 23 c 1,32,-1
 418 836 l 2,33,34
 418 866 418 866 411 896 c 128,-1,35
 404 926 404 926 387 950 c 128,-1,36
 370 974 370 974 341.5 989 c 128,-1,37
 313 1004 313 1004 270 1004 c 0,38,39
 229 1004 229 1004 200.5 990.5 c 128,-1,40
 172 977 172 977 155 955 c 128,-1,41
 138 933 138 933 130.5 905 c 128,-1,42
 123 877 123 877 123 848 c 2,43,-1
 123 23 l 1,44,45
 129 15 129 15 129 6 c 0,46,47
 129 -5 129 -5 121 -12.5 c 128,-1,48
 113 -20 113 -20 102 -20 c 256,49,50
 91 -20 91 -20 83.5 -12.5 c 128,-1,51
 76 -5 76 -5 76 6 c 0,52,53
 76 15 76 15 82 23 c 1,54,-1
 82 999 l 1,55,56
 76 1009 76 1009 76 1018 c 0,57,58
 76 1029 76 1029 83.5 1036.5 c 128,-1,59
 91 1044 91 1044 102 1044 c 256,60,61
 113 1044 113 1044 121 1036.5 c 128,-1,62
 129 1029 129 1029 129 1018 c 0,63,64
 129 1009 129 1009 123 999 c 1,65,-1
 123 965 l 1,66,67
 148 1003 148 1003 183 1023.5 c 128,-1,68
 218 1044 218 1044 272 1044 c 0,69,70
 344 1044 344 1044 383.5 1014 c 128,-1,71
 423 984 423 984 440 938 c 1,72,73
 463 993 463 993 509.5 1018.5 c 128,-1,74
 556 1044 556 1044 608 1044 c 0,75,76
 662 1044 662 1044 698 1026 c 128,-1,77
 734 1008 734 1008 755.5 979 c 128,-1,78
 777 950 777 950 786 913 c 128,-1,79
 795 876 795 876 795 838 c 2,80,-1
 795 23 l 1,0,1
EndSplineSet
EndChar

StartChar: n
Encoding: 110 110 57
Width: 582
Flags: W
HStem: -20 21G<96.5 107.5 477.5 488.5> -20 21G<96.5 107.5 477.5 488.5> 1004 40<213.923 379.742>
VStem: 76 53<-12.2648 927.281 948 1036.26> 457 53<-12.2648 926.439>
LayerCount: 2
Fore
SplineSet
504 23 m 1,0,1
 510 15 510 15 510 6 c 0,2,3
 510 -5 510 -5 502 -12.5 c 128,-1,4
 494 -20 494 -20 483 -20 c 256,5,6
 472 -20 472 -20 464.5 -12.5 c 128,-1,7
 457 -5 457 -5 457 6 c 0,8,9
 457 15 457 15 463 23 c 1,10,-1
 463 809 l 2,11,12
 463 844 463 844 455 879 c 128,-1,13
 447 914 447 914 427.5 941.5 c 128,-1,14
 408 969 408 969 375.5 986.5 c 128,-1,15
 343 1004 343 1004 293 1004 c 0,16,17
 250 1004 250 1004 218 986.5 c 128,-1,18
 186 969 186 969 165 941.5 c 128,-1,19
 144 914 144 914 133.5 879 c 128,-1,20
 123 844 123 844 123 809 c 2,21,-1
 123 23 l 1,22,23
 129 15 129 15 129 6 c 0,24,25
 129 -5 129 -5 121 -12.5 c 128,-1,26
 113 -20 113 -20 102 -20 c 256,27,28
 91 -20 91 -20 83.5 -12.5 c 128,-1,29
 76 -5 76 -5 76 6 c 0,30,31
 76 15 76 15 82 23 c 1,32,-1
 82 999 l 1,33,34
 76 1009 76 1009 76 1018 c 0,35,36
 76 1029 76 1029 83.5 1036.5 c 128,-1,37
 91 1044 91 1044 102 1044 c 256,38,39
 113 1044 113 1044 121 1036.5 c 128,-1,40
 129 1029 129 1029 129 1018 c 0,41,42
 129 1009 129 1009 123 999 c 1,43,-1
 123 948 l 1,44,45
 151 997 151 997 191 1020.5 c 128,-1,46
 231 1044 231 1044 293 1044 c 0,47,48
 354 1044 354 1044 394.5 1023.5 c 128,-1,49
 435 1003 435 1003 459.5 970 c 128,-1,50
 484 937 484 937 494 895 c 128,-1,51
 504 853 504 853 504 809 c 2,52,-1
 504 23 l 1,0,1
EndSplineSet
EndChar

StartChar: o
Encoding: 111 111 58
Width: 565
Flags: W
HStem: -20 40<196.962 370.043> 1004 40<198.15 368.866>
VStem: 72 41<109.9 912.944> 453 41<107.962 915.038>
LayerCount: 2
Fore
SplineSet
113 215 m 2,0,1
 113 179 113 179 121.5 144 c 128,-1,2
 130 109 130 109 149.5 81.5 c 128,-1,3
 169 54 169 54 202 37 c 128,-1,4
 235 20 235 20 283 20 c 0,5,6
 332 20 332 20 365 37 c 128,-1,7
 398 54 398 54 417.5 81.5 c 128,-1,8
 437 109 437 109 445 144 c 128,-1,9
 453 179 453 179 453 215 c 2,10,-1
 453 809 l 2,11,12
 453 844 453 844 445 879 c 128,-1,13
 437 914 437 914 417.5 941.5 c 128,-1,14
 398 969 398 969 365 986.5 c 128,-1,15
 332 1004 332 1004 283 1004 c 0,16,17
 235 1004 235 1004 202 986.5 c 128,-1,18
 169 969 169 969 149.5 941.5 c 128,-1,19
 130 914 130 914 121.5 879 c 128,-1,20
 113 844 113 844 113 809 c 2,21,-1
 113 215 l 2,0,1
494 215 m 2,22,23
 494 171 494 171 483.5 129 c 128,-1,24
 473 87 473 87 448 54 c 128,-1,25
 423 21 423 21 383 0.5 c 128,-1,26
 343 -20 343 -20 283 -20 c 256,27,28
 223 -20 223 -20 182.5 0.5 c 128,-1,29
 142 21 142 21 117.5 54 c 128,-1,30
 93 87 93 87 82.5 129 c 128,-1,31
 72 171 72 171 72 215 c 2,32,-1
 72 809 l 2,33,34
 72 853 72 853 82.5 895 c 128,-1,35
 93 937 93 937 117.5 970 c 128,-1,36
 142 1003 142 1003 182.5 1023.5 c 128,-1,37
 223 1044 223 1044 283 1044 c 256,38,39
 343 1044 343 1044 383 1023.5 c 128,-1,40
 423 1003 423 1003 448 970 c 128,-1,41
 473 937 473 937 483.5 895 c 128,-1,42
 494 853 494 853 494 809 c 2,43,-1
 494 215 l 2,22,23
EndSplineSet
EndChar

StartChar: r
Encoding: 114 114 61
Width: 385
Flags: W
HStem: -20 21G<96.5 107.5> -20 21G<96.5 107.5> 983 41<212.375 364.749> 1024 20G<96.5 107.5>
VStem: 76 53<-12.2648 906.594 928 1036.26>
LayerCount: 2
Fore
SplineSet
123 23 m 1,0,1
 129 15 129 15 129 6 c 0,2,3
 129 -5 129 -5 121 -12.5 c 128,-1,4
 113 -20 113 -20 102 -20 c 256,5,6
 91 -20 91 -20 83.5 -12.5 c 128,-1,7
 76 -5 76 -5 76 6 c 0,8,9
 76 15 76 15 82 23 c 1,10,-1
 82 999 l 1,11,12
 76 1009 76 1009 76 1018 c 0,13,14
 76 1029 76 1029 83.5 1036.5 c 128,-1,15
 91 1044 91 1044 102 1044 c 256,16,17
 113 1044 113 1044 121 1036.5 c 128,-1,18
 129 1029 129 1029 129 1018 c 0,19,20
 129 1009 129 1009 123 999 c 1,21,-1
 123 928 l 1,22,23
 151 976 151 976 191 1000 c 128,-1,24
 231 1024 231 1024 293 1024 c 2,25,-1
 328 1024 l 1,26,27
 337 1030 337 1030 346 1030 c 0,28,29
 357 1030 357 1030 365 1022.5 c 128,-1,30
 373 1015 373 1015 373 1004 c 256,31,32
 373 993 373 993 365 985 c 128,-1,33
 357 977 357 977 346 977 c 0,34,35
 337 977 337 977 328 983 c 1,36,-1
 293 983 l 2,37,38
 250 983 250 983 218 966 c 128,-1,39
 186 949 186 949 165 921 c 128,-1,40
 144 893 144 893 133.5 858.5 c 128,-1,41
 123 824 123 824 123 788 c 2,42,-1
 123 23 l 1,0,1
EndSplineSet
EndChar

StartChar: s
Encoding: 115 115 62
Width: 541
Flags: W
HStem: -20 38<178.374 360.009> 1004 40<196.5 363.979>
VStem: 33 53<106.959 243.749> 68 41<694.299 911.881> 449 40<109.419 329.605 786.07 826.812>
LayerCount: 2
Fore
SplineSet
403 434 m 2,0,1
 429 410 429 410 446 385 c 128,-1,2
 463 360 463 360 472.5 334 c 128,-1,3
 482 308 482 308 485.5 282 c 128,-1,4
 489 256 489 256 489 231 c 0,5,6
 489 179 489 179 478.5 133 c 128,-1,7
 468 87 468 87 442.5 53 c 128,-1,8
 417 19 417 19 374 -0.5 c 128,-1,9
 331 -20 331 -20 266 -20 c 0,10,11
 204 -20 204 -20 162 -1 c 128,-1,12
 120 18 120 18 93.5 49.5 c 128,-1,13
 67 81 67 81 54 122 c 128,-1,14
 41 163 41 163 39 207 c 1,15,16
 36 210 36 210 34.5 215 c 128,-1,17
 33 220 33 220 33 225 c 0,18,19
 33 236 33 236 40.5 244 c 128,-1,20
 48 252 48 252 59 252 c 256,21,22
 70 252 70 252 78 244 c 128,-1,23
 86 236 86 236 86 225 c 0,24,25
 86 221 86 221 82 213 c 1,26,27
 83 177 83 177 93.5 142 c 128,-1,28
 104 107 104 107 125.5 79.5 c 128,-1,29
 147 52 147 52 181.5 35 c 128,-1,30
 216 18 216 18 266 18 c 0,31,32
 324 18 324 18 360 36.5 c 128,-1,33
 396 55 396 55 416 85.5 c 128,-1,34
 436 116 436 116 442.5 154 c 128,-1,35
 449 192 449 192 449 231 c 0,36,37
 449 282 449 282 430.5 326.5 c 128,-1,38
 412 371 412 371 375 406 c 1,39,-1
 143 614 l 2,40,41
 119 636 119 636 104.5 657.5 c 128,-1,42
 90 679 90 679 82 702.5 c 128,-1,43
 74 726 74 726 71 751 c 128,-1,44
 68 776 68 776 68 805 c 0,45,46
 68 852 68 852 79 895 c 128,-1,47
 90 938 90 938 115.5 971 c 128,-1,48
 141 1004 141 1004 182 1024 c 128,-1,49
 223 1044 223 1044 283 1044 c 0,50,51
 337 1044 337 1044 375 1026 c 128,-1,52
 413 1008 413 1008 437 978 c 128,-1,53
 461 948 461 948 473 909.5 c 128,-1,54
 485 871 485 871 487 829 c 1,55,56
 494 823 494 823 494 813 c 0,57,58
 494 802 494 802 486 794 c 128,-1,59
 478 786 478 786 467 786 c 0,60,61
 458 786 458 786 450 794 c 128,-1,62
 442 802 442 802 442 813 c 0,63,64
 442 821 442 821 449 827 c 1,65,66
 447 860 447 860 437 892 c 128,-1,67
 427 924 427 924 407 948.5 c 128,-1,68
 387 973 387 973 356.5 988.5 c 128,-1,69
 326 1004 326 1004 283 1004 c 0,70,71
 235 1004 235 1004 201.5 987 c 128,-1,72
 168 970 168 970 147.5 942.5 c 128,-1,73
 127 915 127 915 118 879 c 128,-1,74
 109 843 109 843 109 805 c 0,75,76
 110 746 110 746 123 709 c 128,-1,77
 136 672 136 672 170 643 c 1,78,-1
 403 434 l 2,0,1
EndSplineSet
EndChar

StartChar: t
Encoding: 116 116 63
Width: 391
Flags: W
HStem: -20 53<256.155 383.265> 983 41<18.2507 145 186 383.265>
VStem: 145 41<113.965 983 1024 1366.26>
LayerCount: 2
Fore
SplineSet
186 221 m 2,0,1
 186 184 186 184 194 150 c 128,-1,2
 202 116 202 116 220.5 89 c 128,-1,3
 239 62 239 62 270 45 c 128,-1,4
 301 28 301 28 346 27 c 1,5,6
 355 33 355 33 365 33 c 0,7,8
 376 33 376 33 383.5 25 c 128,-1,9
 391 17 391 17 391 6 c 256,10,11
 391 -5 391 -5 383.5 -12.5 c 128,-1,12
 376 -20 376 -20 365 -20 c 0,13,14
 355 -20 355 -20 346 -14 c 1,15,16
 289 -12 289 -12 250.5 9 c 128,-1,17
 212 30 212 30 188.5 62.5 c 128,-1,18
 165 95 165 95 155 136.5 c 128,-1,19
 145 178 145 178 145 221 c 2,20,-1
 145 983 l 1,21,-1
 53 983 l 1,22,23
 47 977 47 977 37 977 c 0,24,25
 26 977 26 977 18 985 c 128,-1,26
 10 993 10 993 10 1004 c 256,27,28
 10 1015 10 1015 18 1022.5 c 128,-1,29
 26 1030 26 1030 37 1030 c 0,30,31
 47 1030 47 1030 53 1024 c 1,32,-1
 145 1024 l 1,33,-1
 145 1329 l 1,34,35
 139 1339 139 1339 139 1348 c 0,36,37
 139 1359 139 1359 147 1366.5 c 128,-1,38
 155 1374 155 1374 166 1374 c 256,39,40
 177 1374 177 1374 185 1366.5 c 128,-1,41
 193 1359 193 1359 193 1348 c 0,42,43
 193 1341 193 1341 186 1329 c 1,44,-1
 186 1024 l 1,45,-1
 346 1024 l 1,46,47
 355 1030 355 1030 365 1030 c 0,48,49
 376 1030 376 1030 383.5 1022.5 c 128,-1,50
 391 1015 391 1015 391 1004 c 256,51,52
 391 993 391 993 383.5 985 c 128,-1,53
 376 977 376 977 365 977 c 0,54,55
 355 977 355 977 346 983 c 1,56,-1
 186 983 l 1,57,-1
 186 221 l 2,0,1
EndSplineSet
EndChar

StartChar: u
Encoding: 117 117 64
Width: 582
Flags: W
HStem: -20 40<201.764 374.832> -20 21G<473.5 484.5> 1024 20G<92.5 103.5 473.5 484.5>
VStem: 78 41<108.812 1036.26> 453 53<-12.2648 76 87.0137 1036.26>
LayerCount: 2
Fore
SplineSet
500 23 m 1,0,1
 506 15 506 15 506 6 c 0,2,3
 506 -5 506 -5 498 -12.5 c 128,-1,4
 490 -20 490 -20 479 -20 c 256,5,6
 468 -20 468 -20 460.5 -12.5 c 128,-1,7
 453 -5 453 -5 453 6 c 0,8,9
 453 15 453 15 459 23 c 1,10,-1
 459 76 l 1,11,12
 431 27 431 27 391 3.5 c 128,-1,13
 351 -20 351 -20 289 -20 c 0,14,15
 228 -20 228 -20 187.5 0.5 c 128,-1,16
 147 21 147 21 122.5 54 c 128,-1,17
 98 87 98 87 88 129 c 128,-1,18
 78 171 78 171 78 215 c 2,19,-1
 78 999 l 1,20,21
 72 1009 72 1009 72 1018 c 0,22,23
 72 1029 72 1029 79.5 1036.5 c 128,-1,24
 87 1044 87 1044 98 1044 c 256,25,26
 109 1044 109 1044 117 1036.5 c 128,-1,27
 125 1029 125 1029 125 1018 c 0,28,29
 125 1009 125 1009 119 999 c 1,30,-1
 119 215 l 2,31,32
 119 180 119 180 127 145 c 128,-1,33
 135 110 135 110 154.5 82 c 128,-1,34
 174 54 174 54 206.5 37 c 128,-1,35
 239 20 239 20 289 20 c 0,36,37
 334 20 334 20 366.5 35.5 c 128,-1,38
 399 51 399 51 419.5 77 c 128,-1,39
 440 103 440 103 449.5 136.5 c 128,-1,40
 459 170 459 170 459 205 c 2,41,-1
 459 999 l 1,42,43
 453 1009 453 1009 453 1018 c 0,44,45
 453 1029 453 1029 460.5 1036.5 c 128,-1,46
 468 1044 468 1044 479 1044 c 256,47,48
 490 1044 490 1044 498 1036.5 c 128,-1,49
 506 1029 506 1029 506 1018 c 0,50,51
 506 1009 506 1009 500 999 c 1,52,-1
 500 23 l 1,0,1
EndSplineSet
EndChar

StartChar: v
Encoding: 118 118 65
Width: 516
Flags: W
HStem: -20 21G<252.5 263.5> -20 21G<252.5 263.5> 1024 20G<35.5 46.5 469.5 480.5>
VStem: 14 54<959.875 1036.26> 231 54<-12.2648 17.751> 449 53<1004.09 1036.26>
LayerCount: 2
Fore
SplineSet
281 18 m 1,0,1
 285 10 285 10 285 6 c 0,2,3
 285 -5 285 -5 277 -12.5 c 128,-1,4
 269 -20 269 -20 258 -20 c 256,5,6
 247 -20 247 -20 239 -12.5 c 128,-1,7
 231 -5 231 -5 231 6 c 0,8,9
 231 14 231 14 233 18 c 1,10,-1
 23 997 l 1,11,12
 18 1000 18 1000 16 1006 c 128,-1,13
 14 1012 14 1012 14 1018 c 0,14,15
 14 1029 14 1029 22 1036.5 c 128,-1,16
 30 1044 30 1044 41 1044 c 256,17,18
 52 1044 52 1044 60 1036.5 c 128,-1,19
 68 1029 68 1029 68 1018 c 0,20,21
 68 1011 68 1011 63 1004 c 1,22,-1
 258 106 l 1,23,-1
 451 1004 l 1,24,25
 449 1007 449 1007 449 1011 c 2,26,-1
 449 1018 l 2,27,28
 449 1029 449 1029 456.5 1036.5 c 128,-1,29
 464 1044 464 1044 475 1044 c 256,30,31
 486 1044 486 1044 494 1036.5 c 128,-1,32
 502 1029 502 1029 502 1018 c 0,33,34
 502 1004 502 1004 492 997 c 1,35,-1
 281 18 l 1,0,1
EndSplineSet
EndChar

StartChar: w
Encoding: 119 119 66
Width: 952
Flags: W
HStem: -20 21G<252.5 263.5 686.5 697.5> -20 21G<252.5 263.5 686.5 697.5> 1024 20G<35.5 46.5 469.5 480.5 903.5 914.5>
VStem: 14 54<959.875 1036.26> 231 54<-12.2648 17.751> 449 53<1004.25 1036.26> 666 53<-12.2648 17.751> 883 53<1004.09 1036.26>
LayerCount: 2
Fore
SplineSet
715 18 m 1,0,1
 719 10 719 10 719 6 c 0,2,3
 719 -5 719 -5 711 -12.5 c 128,-1,4
 703 -20 703 -20 692 -20 c 256,5,6
 681 -20 681 -20 673.5 -12.5 c 128,-1,7
 666 -5 666 -5 666 6 c 0,8,9
 666 14 666 14 668 18 c 1,10,-1
 475 915 l 1,11,-1
 281 18 l 1,12,13
 285 10 285 10 285 6 c 0,14,15
 285 -5 285 -5 277 -12.5 c 128,-1,16
 269 -20 269 -20 258 -20 c 256,17,18
 247 -20 247 -20 239 -12.5 c 128,-1,19
 231 -5 231 -5 231 6 c 0,20,21
 231 14 231 14 233 18 c 1,22,-1
 23 997 l 1,23,24
 18 1000 18 1000 16 1006 c 128,-1,25
 14 1012 14 1012 14 1018 c 0,26,27
 14 1029 14 1029 22 1036.5 c 128,-1,28
 30 1044 30 1044 41 1044 c 256,29,30
 52 1044 52 1044 60 1036.5 c 128,-1,31
 68 1029 68 1029 68 1018 c 0,32,33
 68 1011 68 1011 63 1004 c 1,34,-1
 258 106 l 1,35,-1
 451 1004 l 1,36,37
 449 1007 449 1007 449 1011 c 2,38,-1
 449 1018 l 2,39,40
 449 1029 449 1029 456.5 1036.5 c 128,-1,41
 464 1044 464 1044 475 1044 c 256,42,43
 486 1044 486 1044 494 1036.5 c 128,-1,44
 502 1029 502 1029 502 1018 c 0,45,46
 502 1012 502 1012 498 1004 c 1,47,-1
 692 106 l 1,48,-1
 885 1004 l 1,49,50
 883 1007 883 1007 883 1011 c 2,51,-1
 883 1018 l 2,52,53
 883 1029 883 1029 890.5 1036.5 c 128,-1,54
 898 1044 898 1044 909 1044 c 256,55,56
 920 1044 920 1044 928 1036.5 c 128,-1,57
 936 1029 936 1029 936 1018 c 0,58,59
 936 1004 936 1004 926 997 c 1,60,-1
 715 18 l 1,0,1
EndSplineSet
EndChar

StartChar: x
Encoding: 120 120 67
Width: 520
Flags: W
HStem: -20 21G<27.5 38.5 471.5 482.5> -20 21G<27.5 38.5 471.5 482.5> 1024 20G<53.5 64.5 465.5 476.5>
VStem: 6 53<-12.2648 13.875> 33 53<1010.06 1036.26> 451 53<-12.2648 14 1010 1036.26>
LayerCount: 2
Fore
SplineSet
492 29 m 1,0,1
 497 24 497 24 500.5 18 c 128,-1,2
 504 12 504 12 504 6 c 0,3,4
 504 -5 504 -5 496 -12.5 c 128,-1,5
 488 -20 488 -20 477 -20 c 256,6,7
 466 -20 466 -20 458.5 -12.5 c 128,-1,8
 451 -5 451 -5 451 6 c 2,9,-1
 451 14 l 1,10,-1
 260 477 l 1,11,-1
 57 14 l 1,12,13
 59 10 59 10 59 6 c 0,14,15
 59 -5 59 -5 51.5 -12.5 c 128,-1,16
 44 -20 44 -20 33 -20 c 256,17,18
 22 -20 22 -20 14 -12.5 c 128,-1,19
 6 -5 6 -5 6 6 c 0,20,21
 6 20 6 20 18 29 c 1,22,-1
 238 530 l 1,23,-1
 45 995 l 1,24,25
 33 1001 33 1001 33 1018 c 0,26,27
 33 1029 33 1029 40.5 1036.5 c 128,-1,28
 48 1044 48 1044 59 1044 c 256,29,30
 70 1044 70 1044 78 1036.5 c 128,-1,31
 86 1029 86 1029 86 1018 c 0,32,33
 86 1012 86 1012 84 1010 c 1,34,-1
 260 586 l 1,35,-1
 444 1010 l 1,36,-1
 444 1018 l 2,37,38
 444 1029 444 1029 452 1036.5 c 128,-1,39
 460 1044 460 1044 471 1044 c 256,40,41
 482 1044 482 1044 490 1036.5 c 128,-1,42
 498 1029 498 1029 498 1018 c 0,43,44
 498 1002 498 1002 485 995 c 1,45,-1
 283 530 l 1,46,-1
 492 29 l 1,0,1
EndSplineSet
EndChar

StartChar: y
Encoding: 121 121 68
Width: 516
Flags: W
HStem: -430 53<8.25073 44.8594 45 117.922> 1024 20G<37.5 48.5 471.5 482.5>
VStem: 16 54<955.149 1036.26> 451 53<1004.09 1036.26>
LayerCount: 2
Fore
SplineSet
238 -188 m 2,0,1
 229 -229 229 -229 217.5 -269 c 128,-1,2
 206 -309 206 -309 185 -342 c 128,-1,3
 164 -375 164 -375 131 -396.5 c 128,-1,4
 98 -418 98 -418 45 -422 c 1,5,6
 40 -425 40 -425 36 -427.5 c 128,-1,7
 32 -430 32 -430 27 -430 c 0,8,9
 16 -430 16 -430 8 -422 c 128,-1,10
 0 -414 0 -414 0 -403 c 256,11,12
 0 -392 0 -392 8 -384.5 c 128,-1,13
 16 -377 16 -377 27 -377 c 0,14,15
 35 -377 35 -377 43 -381 c 1,16,17
 86 -378 86 -378 112.5 -360 c 128,-1,18
 139 -342 139 -342 155 -314.5 c 128,-1,19
 171 -287 171 -287 180 -254 c 128,-1,20
 189 -221 189 -221 197 -188 c 1,21,-1
 238 8 l 1,22,-1
 25 997 l 1,23,24
 20 1000 20 1000 18 1006 c 128,-1,25
 16 1012 16 1012 16 1018 c 0,26,27
 16 1029 16 1029 24 1036.5 c 128,-1,28
 32 1044 32 1044 43 1044 c 256,29,30
 54 1044 54 1044 62 1036.5 c 128,-1,31
 70 1029 70 1029 70 1018 c 0,32,33
 70 1012 70 1012 66 1004 c 1,34,-1
 260 106 l 1,35,-1
 453 1004 l 1,36,37
 451 1007 451 1007 451 1011 c 2,38,-1
 451 1018 l 2,39,40
 451 1029 451 1029 458.5 1036.5 c 128,-1,41
 466 1044 466 1044 477 1044 c 256,42,43
 488 1044 488 1044 496 1036.5 c 128,-1,44
 504 1029 504 1029 504 1018 c 0,45,46
 504 1004 504 1004 494 997 c 1,47,-1
 281 12 l 1,48,-1
 238 -188 l 2,0,1
EndSplineSet
EndChar

StartChar: z
Encoding: 122 122 69
Width: 502
Flags: W
HStem: 0 41<90 462.749> 983 41<38.7352 408>
VStem: 31 440<1.73523 40.8125 985.251 1022.26>
LayerCount: 2
Fore
SplineSet
426 41 m 1,0,1
 435 47 435 47 444 47 c 0,2,3
 455 47 455 47 463 39 c 128,-1,4
 471 31 471 31 471 20 c 256,5,6
 471 9 471 9 463 1.5 c 128,-1,7
 455 -6 455 -6 444 -6 c 0,8,9
 435 -6 435 -6 426 0 c 1,10,-1
 74 0 l 1,11,12
 68 -6 68 -6 57 -6 c 256,13,14
 46 -6 46 -6 38.5 1.5 c 128,-1,15
 31 9 31 9 31 20 c 0,16,17
 31 38 31 38 45 45 c 1,18,-1
 408 983 l 1,19,-1
 74 983 l 1,20,21
 68 977 68 977 57 977 c 256,22,23
 46 977 46 977 38.5 985 c 128,-1,24
 31 993 31 993 31 1004 c 256,25,26
 31 1015 31 1015 38.5 1022.5 c 128,-1,27
 46 1030 46 1030 57 1030 c 256,28,29
 68 1030 68 1030 74 1024 c 1,30,-1
 426 1024 l 1,31,32
 435 1030 435 1030 444 1030 c 0,33,34
 455 1030 455 1030 463 1022.5 c 128,-1,35
 471 1015 471 1015 471 1004 c 0,36,37
 471 994 471 994 466 987 c 128,-1,38
 461 980 461 980 453 977 c 1,39,-1
 90 41 l 1,40,-1
 426 41 l 1,0,1
EndSplineSet
EndChar

StartChar: braceleft
Encoding: 123 123 70
Width: 451
Flags: W
HStem: -170 53<385.25 421.749> 696 41<2 99.2119> 1550 54<307.07 429.998>
VStem: 190 41<-27.3184 604.196 829.694 1461.25>
LayerCount: 2
Fore
SplineSet
231 80 m 2,0,1
 231 45 231 45 239 10 c 128,-1,2
 247 -25 247 -25 265 -53.5 c 128,-1,3
 283 -82 283 -82 312.5 -101 c 128,-1,4
 342 -120 342 -120 385 -123 c 1,5,6
 391 -117 391 -117 403 -117 c 0,7,8
 414 -117 414 -117 422 -124.5 c 128,-1,9
 430 -132 430 -132 430 -143 c 256,10,11
 430 -154 430 -154 422 -162 c 128,-1,12
 414 -170 414 -170 403 -170 c 0,13,14
 393 -170 393 -170 385 -162 c 1,15,16
 331 -159 331 -159 293.5 -137 c 128,-1,17
 256 -115 256 -115 233 -81 c 128,-1,18
 210 -47 210 -47 200 -5 c 128,-1,19
 190 37 190 37 190 80 c 2,20,-1
 190 504 l 2,21,22
 190 539 190 539 181 573.5 c 128,-1,23
 172 608 172 608 150.5 635 c 128,-1,24
 129 662 129 662 92.5 679 c 128,-1,25
 56 696 56 696 2 696 c 1,26,-1
 2 737 l 1,27,28
 56 737 56 737 92.5 754 c 128,-1,29
 129 771 129 771 150.5 798.5 c 128,-1,30
 172 826 172 826 181 860.5 c 128,-1,31
 190 895 190 895 190 930 c 2,32,-1
 190 1354 l 2,33,34
 190 1397 190 1397 200 1438.5 c 128,-1,35
 210 1480 210 1480 233 1514 c 128,-1,36
 256 1548 256 1548 293.5 1570 c 128,-1,37
 331 1592 331 1592 385 1595 c 1,38,39
 388 1598 388 1598 392.5 1601 c 128,-1,40
 397 1604 397 1604 403 1604 c 0,41,42
 414 1604 414 1604 422 1596 c 128,-1,43
 430 1588 430 1588 430 1577 c 256,44,45
 430 1566 430 1566 422 1558 c 128,-1,46
 414 1550 414 1550 403 1550 c 0,47,48
 391 1550 391 1550 385 1556 c 1,49,50
 342 1553 342 1553 312.5 1534.5 c 128,-1,51
 283 1516 283 1516 265 1487.5 c 128,-1,52
 247 1459 247 1459 239 1424 c 128,-1,53
 231 1389 231 1389 231 1354 c 2,54,-1
 231 930 l 2,55,56
 231 896 231 896 225 864 c 128,-1,57
 219 832 219 832 205 804 c 128,-1,58
 191 776 191 776 168.5 753.5 c 128,-1,59
 146 731 146 731 113 717 c 1,60,61
 146 703 146 703 168.5 680.5 c 128,-1,62
 191 658 191 658 205 630 c 128,-1,63
 219 602 219 602 225 570 c 128,-1,64
 231 538 231 538 231 504 c 2,65,-1
 231 80 l 2,0,1
EndSplineSet
EndChar

StartChar: bar
Encoding: 124 124 71
Width: 248
Flags: W
VStem: 96 54<-171.998 1604>
LayerCount: 2
Fore
SplineSet
143 -127 m 1,0,1
 150 -138 150 -138 150 -145 c 0,2,3
 150 -156 150 -156 142 -164 c 128,-1,4
 134 -172 134 -172 123 -172 c 256,5,6
 112 -172 112 -172 104 -164 c 128,-1,7
 96 -156 96 -156 96 -145 c 0,8,9
 96 -136 96 -136 102 -127 c 1,10,-1
 102 1559 l 1,11,12
 96 1568 96 1568 96 1577 c 0,13,14
 96 1588 96 1588 104 1596 c 128,-1,15
 112 1604 112 1604 123 1604 c 256,16,17
 134 1604 134 1604 142 1596 c 128,-1,18
 150 1588 150 1588 150 1577 c 0,19,20
 150 1569 150 1569 143 1559 c 1,21,-1
 143 -127 l 1,0,1
EndSplineSet
EndChar

StartChar: exclamdown
Encoding: 161 161 75
Width: 256
Flags: W
HStem: -20 21G<121.5 132.5> -20 21G<121.5 132.5> 1362 92<93.8619 161.622>
VStem: 82 92<1375.92 1440.59> 100 54<-12.2648 1159.26>
LayerCount: 2
Fore
SplineSet
148 23 m 1,0,1
 154 15 154 15 154 6 c 0,2,3
 154 -5 154 -5 146 -12.5 c 128,-1,4
 138 -20 138 -20 127 -20 c 256,5,6
 116 -20 116 -20 108 -12.5 c 128,-1,7
 100 -5 100 -5 100 6 c 0,8,9
 100 16 100 16 107 23 c 1,10,-1
 107 1122 l 1,11,12
 100 1130 100 1130 100 1141 c 256,13,14
 100 1152 100 1152 108 1159.5 c 128,-1,15
 116 1167 116 1167 127 1167 c 256,16,17
 138 1167 138 1167 146 1159.5 c 128,-1,18
 154 1152 154 1152 154 1141 c 0,19,20
 154 1131 154 1131 148 1122 c 1,21,-1
 148 23 l 1,0,1
162 1375 m 0,22,23
 150 1362 150 1362 127 1362 c 0,24,25
 105 1362 105 1362 93.5 1375.5 c 128,-1,26
 82 1389 82 1389 82 1409 c 0,27,28
 82 1428 82 1428 93.5 1441 c 128,-1,29
 105 1454 105 1454 127 1454 c 0,30,31
 150 1454 150 1454 162 1441 c 128,-1,32
 174 1428 174 1428 174 1409 c 0,33,34
 174 1389 174 1389 162 1375 c 0,22,23
EndSplineSet
EndChar

StartChar: cent
Encoding: 162 162 76
Width: 582
Flags: W
HStem: -19 39<211.935 279 319 384.719> 1004 39<213.12 279 319 381.862>
VStem: 86 41<109.9 912.944> 279 40<-171.998 -19 1043 1194> 463 53<195.094 237.992 793.22 924.757>
LayerCount: 2
Fore
SplineSet
127 215 m 2,0,1
 127 179 127 179 135.5 144 c 128,-1,2
 144 109 144 109 163.5 81.5 c 128,-1,3
 183 54 183 54 216 37 c 128,-1,4
 249 20 249 20 297 20 c 0,5,6
 343 20 343 20 375 34.5 c 128,-1,7
 407 49 407 49 427.5 73.5 c 128,-1,8
 448 98 448 98 457.5 129.5 c 128,-1,9
 467 161 467 161 469 195 c 1,10,11
 466 198 466 198 464.5 203 c 128,-1,12
 463 208 463 208 463 213 c 0,13,14
 463 222 463 222 470.5 230 c 128,-1,15
 478 238 478 238 489 238 c 256,16,17
 500 238 500 238 508 230.5 c 128,-1,18
 516 223 516 223 516 213 c 0,19,20
 516 208 516 208 514.5 203 c 128,-1,21
 513 198 513 198 510 195 c 1,22,23
 507 153 507 153 495 114.5 c 128,-1,24
 483 76 483 76 457.5 46 c 128,-1,25
 432 16 432 16 393 -2 c 0,26,27
 362 -16 362 -16 319 -19 c 1,28,-1
 319 -127 l 1,29,30
 326 -135 326 -135 326 -145 c 0,31,32
 326 -156 326 -156 318 -164 c 128,-1,33
 310 -172 310 -172 299 -172 c 256,34,35
 288 -172 288 -172 280 -164 c 128,-1,36
 272 -156 272 -156 272 -145 c 0,37,38
 272 -135 272 -135 279 -127 c 1,39,-1
 279 -19 l 1,40,41
 231 -17 231 -17 196 0 c 1,42,43
 156 21 156 21 131.5 54 c 128,-1,44
 107 87 107 87 96.5 129 c 128,-1,45
 86 171 86 171 86 215 c 2,46,-1
 86 809 l 2,47,48
 86 853 86 853 96.5 895 c 128,-1,49
 107 937 107 937 131.5 970 c 128,-1,50
 156 1003 156 1003 196 1023 c 0,51,52
 231 1041 231 1041 279 1043 c 1,53,-1
 279 1149 l 1,54,55
 272 1157 272 1157 272 1167 c 0,56,57
 272 1178 272 1178 280 1186 c 128,-1,58
 288 1194 288 1194 299 1194 c 256,59,60
 310 1194 310 1194 318 1186 c 128,-1,61
 326 1178 326 1178 326 1167 c 0,62,63
 326 1157 326 1157 319 1149 c 1,64,-1
 319 1043 l 1,65,66
 362 1040 362 1040 393 1026 c 0,67,68
 432 1008 432 1008 457.5 978 c 128,-1,69
 483 948 483 948 495 909.5 c 128,-1,70
 507 871 507 871 510 829 c 1,71,72
 513 826 513 826 514.5 821 c 128,-1,73
 516 816 516 816 516 811 c 0,74,75
 516 800 516 800 508 793 c 128,-1,76
 500 786 500 786 489 786 c 256,77,78
 478 786 478 786 470.5 793 c 128,-1,79
 463 800 463 800 463 811 c 0,80,81
 463 821 463 821 469 827 c 1,82,83
 467 860 467 860 457.5 892 c 128,-1,84
 448 924 448 924 427.5 948.5 c 128,-1,85
 407 973 407 973 375 988.5 c 128,-1,86
 343 1004 343 1004 297 1004 c 0,87,88
 249 1004 249 1004 216 986.5 c 128,-1,89
 183 969 183 969 163.5 941.5 c 128,-1,90
 144 914 144 914 135.5 879 c 128,-1,91
 127 844 127 844 127 809 c 2,92,-1
 127 215 l 2,0,1
EndSplineSet
EndChar

StartChar: sterling
Encoding: 163 163 77
Width: 702
Flags: W
HStem: 0 41<229 620.749> 983 41<57.2507 188 229 559.265> 1393 41<311.577 626.992>
VStem: 188 41<41 983 1024 1306.46>
LayerCount: 2
Fore
SplineSet
584 41 m 1,0,1
 593 47 593 47 602 47 c 0,2,3
 613 47 613 47 621 39 c 128,-1,4
 629 31 629 31 629 20 c 256,5,6
 629 9 629 9 621 1.5 c 128,-1,7
 613 -6 613 -6 602 -6 c 0,8,9
 593 -6 593 -6 584 0 c 1,10,-1
 188 0 l 1,11,-1
 188 983 l 1,12,-1
 92 983 l 1,13,14
 86 977 86 977 76 977 c 0,15,16
 65 977 65 977 57 985 c 128,-1,17
 49 993 49 993 49 1004 c 256,18,19
 49 1015 49 1015 57 1022.5 c 128,-1,20
 65 1030 65 1030 76 1030 c 0,21,22
 86 1030 86 1030 92 1024 c 1,23,-1
 188 1024 l 1,24,-1
 188 1202 l 2,25,26
 188 1246 188 1246 198.5 1287.5 c 128,-1,27
 209 1329 209 1329 233.5 1361.5 c 128,-1,28
 258 1394 258 1394 299.5 1414 c 128,-1,29
 341 1434 341 1434 403 1434 c 2,30,-1
 582 1434 l 1,31,32
 591 1440 591 1440 600 1440 c 0,33,34
 611 1440 611 1440 619 1432 c 128,-1,35
 627 1424 627 1424 627 1413 c 256,36,37
 627 1402 627 1402 619 1394 c 128,-1,38
 611 1386 611 1386 600 1386 c 0,39,40
 592 1386 592 1386 582 1393 c 1,41,-1
 403 1393 l 2,42,43
 352 1393 352 1393 318.5 1376.5 c 128,-1,44
 285 1360 285 1360 265 1333 c 128,-1,45
 245 1306 245 1306 237 1271.5 c 128,-1,46
 229 1237 229 1237 229 1202 c 2,47,-1
 229 1024 l 1,48,-1
 522 1024 l 1,49,50
 531 1030 531 1030 541 1030 c 0,51,52
 552 1030 552 1030 559.5 1022.5 c 128,-1,53
 567 1015 567 1015 567 1004 c 256,54,55
 567 993 567 993 559.5 985 c 128,-1,56
 552 977 552 977 541 977 c 0,57,58
 531 977 531 977 522 983 c 1,59,-1
 229 983 l 1,60,-1
 229 41 l 1,61,-1
 584 41 l 1,0,1
EndSplineSet
EndChar

StartChar: yen
Encoding: 165 165 78
Width: 614
Flags: W
HStem: -20 21G<301.5 312.5> -20 21G<301.5 312.5> 799 41<71.2507 287 328 542.749> 983 41<71.2507 287 328 542.749> 1434 20G<84.5 95.5 518.5 529.5>
VStem: 63 54<1417.13 1454> 287 41<-12.2648 799 840 983> 498 53<1417 1445.75>
LayerCount: 2
Fore
SplineSet
328 23 m 1,0,1
 334 15 334 15 334 6 c 0,2,3
 334 -5 334 -5 326 -12.5 c 128,-1,4
 318 -20 318 -20 307 -20 c 256,5,6
 296 -20 296 -20 288.5 -12.5 c 128,-1,7
 281 -5 281 -5 281 6 c 0,8,9
 281 15 281 15 287 23 c 1,10,-1
 287 799 l 1,11,-1
 106 799 l 1,12,13
 100 793 100 793 90 793 c 0,14,15
 79 793 79 793 71 800.5 c 128,-1,16
 63 808 63 808 63 819 c 256,17,18
 63 830 63 830 71 838 c 128,-1,19
 79 846 79 846 90 846 c 0,20,21
 100 846 100 846 106 840 c 1,22,-1
 287 840 l 1,23,-1
 287 983 l 1,24,-1
 106 983 l 1,25,26
 100 977 100 977 90 977 c 0,27,28
 79 977 79 977 71 985 c 128,-1,29
 63 993 63 993 63 1004 c 256,30,31
 63 1015 63 1015 71 1022.5 c 128,-1,32
 79 1030 79 1030 90 1030 c 0,33,34
 100 1030 100 1030 106 1024 c 1,35,-1
 287 1024 l 1,36,-1
 80 1403 l 1,37,38
 63 1410 63 1410 63 1427 c 0,39,40
 63 1438 63 1438 71 1446 c 128,-1,41
 79 1454 79 1454 90 1454 c 256,42,43
 101 1454 101 1454 109 1446 c 128,-1,44
 117 1438 117 1438 117 1427 c 0,45,46
 117 1421 117 1421 115 1417 c 1,47,-1
 303 1073 l 1,48,-1
 309 1073 l 1,49,-1
 498 1417 l 1,50,-1
 498 1427 l 2,51,52
 498 1438 498 1438 505.5 1446 c 128,-1,53
 513 1454 513 1454 524 1454 c 256,54,55
 535 1454 535 1454 543 1446 c 128,-1,56
 551 1438 551 1438 551 1427 c 0,57,58
 551 1418 551 1418 546 1412 c 128,-1,59
 541 1406 541 1406 535 1403 c 1,60,-1
 328 1024 l 1,61,-1
 506 1024 l 1,62,63
 515 1030 515 1030 524 1030 c 0,64,65
 535 1030 535 1030 543 1022.5 c 128,-1,66
 551 1015 551 1015 551 1004 c 256,67,68
 551 993 551 993 543 985 c 128,-1,69
 535 977 535 977 524 977 c 0,70,71
 515 977 515 977 506 983 c 1,72,-1
 328 983 l 1,73,-1
 328 840 l 1,74,-1
 506 840 l 1,75,76
 515 846 515 846 524 846 c 0,77,78
 535 846 535 846 543 838 c 128,-1,79
 551 830 551 830 551 819 c 256,80,81
 551 808 551 808 543 800.5 c 128,-1,82
 535 793 535 793 524 793 c 0,83,84
 515 793 515 793 506 799 c 1,85,-1
 328 799 l 1,86,-1
 328 23 l 1,0,1
EndSplineSet
EndChar

StartChar: brokenbar
Encoding: 166 166 79
Width: 256
Flags: W
VStem: 102 54<-171.998 524.265 888.735 1604>
LayerCount: 2
Fore
SplineSet
150 924 m 1,0,1
 156 918 156 918 156 907 c 256,2,3
 156 896 156 896 148 888.5 c 128,-1,4
 140 881 140 881 129 881 c 256,5,6
 118 881 118 881 110 888.5 c 128,-1,7
 102 896 102 896 102 907 c 256,8,9
 102 918 102 918 109 924 c 1,10,-1
 109 1559 l 1,11,12
 102 1567 102 1567 102 1577 c 0,13,14
 102 1588 102 1588 110 1596 c 128,-1,15
 118 1604 118 1604 129 1604 c 256,16,17
 140 1604 140 1604 148 1596 c 128,-1,18
 156 1588 156 1588 156 1577 c 0,19,20
 156 1568 156 1568 150 1559 c 1,21,-1
 150 924 l 1,0,1
150 -127 m 1,22,23
 156 -136 156 -136 156 -145 c 0,24,25
 156 -156 156 -156 148 -164 c 128,-1,26
 140 -172 140 -172 129 -172 c 256,27,28
 118 -172 118 -172 110 -164 c 128,-1,29
 102 -156 102 -156 102 -145 c 0,30,31
 102 -135 102 -135 109 -127 c 1,32,-1
 109 487 l 1,33,34
 102 497 102 497 102 506 c 0,35,36
 102 517 102 517 110 524.5 c 128,-1,37
 118 532 118 532 129 532 c 256,38,39
 140 532 140 532 148 524.5 c 128,-1,40
 156 517 156 517 156 506 c 0,41,42
 156 497 156 497 150 487 c 1,43,-1
 150 -127 l 1,22,23
EndSplineSet
EndChar

StartChar: section
Encoding: 167 167 80
Width: 590
Flags: W
HStem: -164 41<205.069 389.025> 1556 41<202.319 379.155>
VStem: 78 53<-49.3837 81.7493 696.561 952.411 1092.48 1493.1> 469 41<-40.8976 343.593 532.443 737.34 1345.25 1379.81>
LayerCount: 2
Fore
SplineSet
510 63 m 2,0,1
 510 19 510 19 499.5 -21.5 c 128,-1,2
 489 -62 489 -62 464 -94 c 128,-1,3
 439 -126 439 -126 398.5 -145 c 128,-1,4
 358 -164 358 -164 297 -164 c 0,5,6
 240 -164 240 -164 200.5 -147 c 128,-1,7
 161 -130 161 -130 136 -101 c 128,-1,8
 111 -72 111 -72 98.5 -34.5 c 128,-1,9
 86 3 86 3 84 45 c 1,10,11
 81 48 81 48 79.5 53 c 128,-1,12
 78 58 78 58 78 63 c 0,13,14
 78 74 78 74 85.5 82 c 128,-1,15
 93 90 93 90 104 90 c 256,16,17
 115 90 115 90 123 82 c 128,-1,18
 131 74 131 74 131 63 c 0,19,20
 131 58 131 58 129.5 53 c 128,-1,21
 128 48 128 48 125 45 c 1,22,23
 126 11 126 11 136 -19.5 c 128,-1,24
 146 -50 146 -50 166.5 -73 c 128,-1,25
 187 -96 187 -96 219 -109.5 c 128,-1,26
 251 -123 251 -123 297 -123 c 0,27,28
 346 -123 346 -123 379.5 -107.5 c 128,-1,29
 413 -92 413 -92 433 -66 c 128,-1,30
 453 -40 453 -40 462 -6.5 c 128,-1,31
 471 27 471 27 471 63 c 2,32,-1
 471 242 l 2,33,34
 471 294 471 294 450 341.5 c 128,-1,35
 429 389 429 389 391 424 c 2,36,-1
 152 637 l 2,37,38
 127 659 127 659 112.5 682 c 128,-1,39
 98 705 98 705 90.5 728.5 c 128,-1,40
 83 752 83 752 80.5 775.5 c 128,-1,41
 78 799 78 799 78 823 c 0,42,43
 78 852 78 852 82.5 881 c 128,-1,44
 87 910 87 910 97 936 c 128,-1,45
 107 962 107 962 123 984 c 128,-1,46
 139 1006 139 1006 162 1022 c 1,47,-1
 152 1032 l 1,48,49
 127 1054 127 1054 112.5 1077.5 c 128,-1,50
 98 1101 98 1101 90.5 1124 c 128,-1,51
 83 1147 83 1147 80.5 1171 c 128,-1,52
 78 1195 78 1195 78 1219 c 2,53,-1
 78 1364 l 2,54,55
 78 1408 78 1408 88.5 1450 c 128,-1,56
 99 1492 99 1492 123.5 1524.5 c 128,-1,57
 148 1557 148 1557 189 1577 c 128,-1,58
 230 1597 230 1597 291 1597 c 0,59,60
 348 1597 348 1597 387.5 1579 c 128,-1,61
 427 1561 427 1561 452 1531 c 128,-1,62
 477 1501 477 1501 489.5 1462.5 c 128,-1,63
 502 1424 502 1424 504 1382 c 1,64,65
 507 1379 507 1379 508.5 1374 c 128,-1,66
 510 1369 510 1369 510 1364 c 0,67,68
 510 1353 510 1353 502 1345 c 128,-1,69
 494 1337 494 1337 483 1337 c 256,70,71
 472 1337 472 1337 464.5 1345 c 128,-1,72
 457 1353 457 1353 457 1364 c 0,73,74
 457 1374 457 1374 463 1380 c 1,75,76
 461 1413 461 1413 451.5 1444.5 c 128,-1,77
 442 1476 442 1476 421.5 1501 c 128,-1,78
 401 1526 401 1526 369 1541 c 128,-1,79
 337 1556 337 1556 291 1556 c 0,80,81
 242 1556 242 1556 208.5 1539 c 128,-1,82
 175 1522 175 1522 155 1495 c 128,-1,83
 135 1468 135 1468 126 1433.5 c 128,-1,84
 117 1399 117 1399 117 1364 c 2,85,-1
 117 1219 l 1,86,87
 119 1168 119 1168 132 1128 c 128,-1,88
 145 1088 145 1088 180 1057 c 2,89,-1
 422 844 l 1,90,91
 476 794 476 794 493 741 c 128,-1,92
 510 688 510 688 510 637 c 0,93,94
 510 578 510 578 491.5 526 c 128,-1,95
 473 474 473 474 428 440 c 1,96,97
 477 393 477 393 493.5 342 c 128,-1,98
 510 291 510 291 510 242 c 2,99,-1
 510 63 l 2,0,1
397 469 m 1,100,101
 436 497 436 497 452.5 542 c 128,-1,102
 469 587 469 587 469 637 c 0,103,104
 469 690 469 690 449 737 c 128,-1,105
 429 784 429 784 391 819 c 2,106,-1
 195 993 l 1,107,108
 151 965 151 965 135 919 c 128,-1,109
 119 873 119 873 119 823 c 1,110,111
 121 772 121 772 133 732 c 128,-1,112
 145 692 145 692 180 662 c 2,113,-1
 397 469 l 1,100,101
EndSplineSet
EndChar

StartChar: dieresis
Encoding: 168 168 81
Width: 508
Flags: W
HStem: 1227 147<120.735 157.749 352.251 389.265>
VStem: 113 53<1235.25 1366.26> 344 53<1235.25 1366.26>
LayerCount: 2
Fore
SplineSet
160 1270 m 1,0,1
 166 1264 166 1264 166 1254 c 0,2,3
 166 1243 166 1243 158 1235 c 128,-1,4
 150 1227 150 1227 139 1227 c 256,5,6
 128 1227 128 1227 120.5 1235 c 128,-1,7
 113 1243 113 1243 113 1254 c 0,8,9
 113 1264 113 1264 119 1270 c 1,10,-1
 119 1329 l 1,11,12
 113 1339 113 1339 113 1348 c 0,13,14
 113 1359 113 1359 120.5 1366.5 c 128,-1,15
 128 1374 128 1374 139 1374 c 256,16,17
 150 1374 150 1374 158 1366.5 c 128,-1,18
 166 1359 166 1359 166 1348 c 0,19,20
 166 1339 166 1339 160 1329 c 1,21,-1
 160 1270 l 1,0,1
391 1270 m 1,22,23
 397 1264 397 1264 397 1254 c 0,24,25
 397 1243 397 1243 389.5 1235 c 128,-1,26
 382 1227 382 1227 371 1227 c 256,27,28
 360 1227 360 1227 352 1235 c 128,-1,29
 344 1243 344 1243 344 1254 c 0,30,31
 344 1264 344 1264 350 1270 c 1,32,-1
 350 1329 l 1,33,34
 344 1339 344 1339 344 1348 c 0,35,36
 344 1359 344 1359 352 1366.5 c 128,-1,37
 360 1374 360 1374 371 1374 c 256,38,39
 382 1374 382 1374 389.5 1366.5 c 128,-1,40
 397 1359 397 1359 397 1348 c 0,41,42
 397 1339 397 1339 391 1329 c 1,43,-1
 391 1270 l 1,22,23
EndSplineSet
EndChar

StartChar: copyright
Encoding: 169 169 82
Width: 948
Flags: W
HStem: -23 41<340.098 608.558> 184 41<385.782 562.268> 1208 41<385.782 561.155> 1413 41<340.098 608.558>
VStem: 82 41<259.641 1172.36> 262 41<315.361 1117.64> 639 53<399.094 434.265 998.22 1031.81> 827 41<259.641 1172.36>
LayerCount: 2
Fore
SplineSet
868 408 m 2,0,1
 868 327 868 327 847.5 250 c 128,-1,2
 827 173 827 173 780.5 112 c 128,-1,3
 734 51 734 51 659 14 c 128,-1,4
 584 -23 584 -23 475 -23 c 0,5,6
 363 -23 363 -23 287.5 14 c 128,-1,7
 212 51 212 51 166.5 112 c 128,-1,8
 121 173 121 173 101.5 250 c 128,-1,9
 82 327 82 327 82 408 c 2,10,-1
 82 1024 l 2,11,12
 82 1105 82 1105 101.5 1182 c 128,-1,13
 121 1259 121 1259 166.5 1319.5 c 128,-1,14
 212 1380 212 1380 287.5 1417 c 128,-1,15
 363 1454 363 1454 475 1454 c 0,16,17
 584 1454 584 1454 659 1417 c 128,-1,18
 734 1380 734 1380 780.5 1319.5 c 128,-1,19
 827 1259 827 1259 847.5 1182 c 128,-1,20
 868 1105 868 1105 868 1024 c 2,21,-1
 868 408 l 2,0,1
827 1022 m 2,22,23
 827 1092 827 1092 809.5 1162 c 128,-1,24
 792 1232 792 1232 751 1288 c 128,-1,25
 710 1344 710 1344 642 1378.5 c 128,-1,26
 574 1413 574 1413 473 1413 c 0,27,28
 373 1413 373 1413 306 1378.5 c 128,-1,29
 239 1344 239 1344 198.5 1288 c 128,-1,30
 158 1232 158 1232 140.5 1162 c 128,-1,31
 123 1092 123 1092 123 1022 c 2,32,-1
 123 410 l 2,33,34
 123 339 123 339 140.5 269 c 128,-1,35
 158 199 158 199 198.5 143 c 128,-1,36
 239 87 239 87 306 52.5 c 128,-1,37
 373 18 373 18 473 18 c 0,38,39
 574 18 574 18 642 52.5 c 128,-1,40
 710 87 710 87 751 143 c 128,-1,41
 792 199 792 199 809.5 269 c 128,-1,42
 827 339 827 339 827 410 c 2,43,-1
 827 1022 l 2,22,23
303 420 m 2,44,45
 303 384 303 384 311.5 349 c 128,-1,46
 320 314 320 314 339.5 286.5 c 128,-1,47
 359 259 359 259 392 242 c 128,-1,48
 425 225 425 225 473 225 c 0,49,50
 519 225 519 225 551 239.5 c 128,-1,51
 583 254 583 254 603.5 278 c 128,-1,52
 624 302 624 302 633.5 333.5 c 128,-1,53
 643 365 643 365 645 399 c 1,54,55
 642 402 642 402 640.5 406.5 c 128,-1,56
 639 411 639 411 639 418 c 0,57,58
 639 427 639 427 646 434.5 c 128,-1,59
 653 442 653 442 666 442 c 0,60,61
 678 442 678 442 685 434.5 c 128,-1,62
 692 427 692 427 692 418 c 0,63,64
 692 410 692 410 690.5 406 c 128,-1,65
 689 402 689 402 686 399 c 1,66,67
 684 358 684 358 671.5 319 c 128,-1,68
 659 280 659 280 634 250 c 128,-1,69
 609 220 609 220 569.5 202 c 128,-1,70
 530 184 530 184 473 184 c 0,71,72
 413 184 413 184 372.5 204.5 c 128,-1,73
 332 225 332 225 307.5 258 c 128,-1,74
 283 291 283 291 272.5 333.5 c 128,-1,75
 262 376 262 376 262 420 c 2,76,-1
 262 1014 l 2,77,78
 262 1057 262 1057 272.5 1099.5 c 128,-1,79
 283 1142 283 1142 307.5 1175 c 128,-1,80
 332 1208 332 1208 372.5 1228.5 c 128,-1,81
 413 1249 413 1249 473 1249 c 0,82,83
 530 1249 530 1249 569.5 1231 c 128,-1,84
 609 1213 609 1213 634 1183 c 128,-1,85
 659 1153 659 1153 671.5 1114.5 c 128,-1,86
 684 1076 684 1076 686 1034 c 1,87,88
 689 1031 689 1031 690.5 1026 c 128,-1,89
 692 1021 692 1021 692 1016 c 0,90,91
 692 1005 692 1005 685.5 998 c 128,-1,92
 679 991 679 991 666 991 c 0,93,94
 652 991 652 991 645.5 997.5 c 128,-1,95
 639 1004 639 1004 639 1016 c 0,96,97
 639 1026 639 1026 645 1032 c 1,98,99
 643 1065 643 1065 633.5 1096.5 c 128,-1,100
 624 1128 624 1128 603.5 1153 c 128,-1,101
 583 1178 583 1178 551 1193 c 128,-1,102
 519 1208 519 1208 473 1208 c 0,103,104
 425 1208 425 1208 392 1191 c 128,-1,105
 359 1174 359 1174 339.5 1146.5 c 128,-1,106
 320 1119 320 1119 311.5 1084 c 128,-1,107
 303 1049 303 1049 303 1014 c 2,108,-1
 303 420 l 2,44,45
EndSplineSet
EndChar

StartChar: ordfeminine
Encoding: 170 170 83
Width: 420
Flags: W
HStem: 821 41<140.297 255.922> 1176 41<148.519 295> 1413 41<141.308 264.193>
VStem: 72 41<890.537 1142.04 1295.73 1328.81> 295 41<829.251 887 903.882 1176 1217 1380.73>
LayerCount: 2
Fore
SplineSet
336 864 m 1,0,1
 342 858 342 858 342 848 c 0,2,3
 342 837 342 837 334 829 c 128,-1,4
 326 821 326 821 315 821 c 256,5,6
 304 821 304 821 296.5 829 c 128,-1,7
 289 837 289 837 289 848 c 0,8,9
 289 858 289 858 295 864 c 1,10,-1
 295 887 l 1,11,12
 283 859 283 859 261 840 c 128,-1,13
 239 821 239 821 197 821 c 0,14,15
 134 821 134 821 103 862.5 c 128,-1,16
 72 904 72 904 72 967 c 2,17,-1
 72 1071 l 2,18,19
 72 1098 72 1098 77.5 1124 c 128,-1,20
 83 1150 83 1150 100.5 1171 c 128,-1,21
 118 1192 118 1192 149.5 1204.5 c 128,-1,22
 181 1217 181 1217 233 1217 c 2,23,-1
 295 1217 l 1,24,-1
 295 1309 l 2,25,26
 295 1328 295 1328 290.5 1346.5 c 128,-1,27
 286 1365 286 1365 275.5 1380 c 128,-1,28
 265 1395 265 1395 247.5 1404 c 128,-1,29
 230 1413 230 1413 205 1413 c 0,30,31
 160 1413 160 1413 138 1389.5 c 128,-1,32
 116 1366 116 1366 113 1329 c 1,33,34
 119 1323 119 1323 119 1313 c 256,35,36
 119 1303 119 1303 111 1295.5 c 128,-1,37
 103 1288 103 1288 92 1288 c 256,38,39
 81 1288 81 1288 73.5 1295.5 c 128,-1,40
 66 1303 66 1303 66 1313 c 0,41,42
 66 1318 66 1318 67.5 1323 c 128,-1,43
 69 1328 69 1328 72 1331 c 1,44,45
 73 1353 73 1353 82 1375 c 128,-1,46
 91 1397 91 1397 107.5 1414.5 c 128,-1,47
 124 1432 124 1432 148.5 1443 c 128,-1,48
 173 1454 173 1454 205 1454 c 0,49,50
 242 1454 242 1454 267.5 1441.5 c 128,-1,51
 293 1429 293 1429 308 1408.5 c 128,-1,52
 323 1388 323 1388 329.5 1362 c 128,-1,53
 336 1336 336 1336 336 1309 c 2,54,-1
 336 864 l 1,0,1
113 967 m 2,55,56
 113 947 113 947 116.5 928.5 c 128,-1,57
 120 910 120 910 129.5 895 c 128,-1,58
 139 880 139 880 156 871 c 128,-1,59
 173 862 173 862 199 862 c 0,60,61
 220 862 220 862 237.5 870.5 c 128,-1,62
 255 879 255 879 267 893.5 c 128,-1,63
 279 908 279 908 286 926 c 128,-1,64
 293 944 293 944 295 963 c 1,65,-1
 295 1176 l 1,66,-1
 233 1176 l 2,67,68
 194 1176 194 1176 170.5 1167 c 128,-1,69
 147 1158 147 1158 134 1143 c 128,-1,70
 121 1128 121 1128 117 1109 c 128,-1,71
 113 1090 113 1090 113 1071 c 2,72,-1
 113 967 l 2,55,56
EndSplineSet
EndChar

StartChar: logicalnot
Encoding: 172 172 85
Width: 676
Flags: W
HStem: 735 41<81.7352 543>
VStem: 537 53<475.251 735>
LayerCount: 2
Fore
SplineSet
584 510 m 1,0,1
 590 504 590 504 590 494 c 0,2,3
 590 483 590 483 582 475 c 128,-1,4
 574 467 574 467 563 467 c 256,5,6
 552 467 552 467 544.5 475 c 128,-1,7
 537 483 537 483 537 494 c 0,8,9
 537 504 537 504 543 510 c 1,10,-1
 543 735 l 1,11,-1
 117 735 l 1,12,13
 111 729 111 729 100 729 c 256,14,15
 89 729 89 729 81.5 737 c 128,-1,16
 74 745 74 745 74 756 c 256,17,18
 74 767 74 767 81.5 774.5 c 128,-1,19
 89 782 89 782 100 782 c 256,20,21
 111 782 111 782 117 776 c 1,22,-1
 543 776 l 1,23,24
 552 782 552 782 561 782 c 0,25,26
 572 782 572 782 580 774.5 c 128,-1,27
 588 767 588 767 588 756 c 0,28,29
 588 749 588 749 584 741 c 1,30,-1
 584 510 l 1,0,1
EndSplineSet
EndChar

StartChar: uni00AD
Encoding: 173 173 86
Width: 618
Flags: W
HStem: 569 54<51.002 557.265>
VStem: 51 514<577.251 614.749>
LayerCount: 2
Fore
SplineSet
520 616 m 1,0,1
 528 623 528 623 539 623 c 256,2,3
 550 623 550 623 557.5 615 c 128,-1,4
 565 607 565 607 565 596 c 256,5,6
 565 585 565 585 557.5 577 c 128,-1,7
 550 569 550 569 539 569 c 0,8,9
 529 569 529 569 520 575 c 1,10,-1
 94 575 l 1,11,12
 88 569 88 569 78 569 c 0,13,14
 67 569 67 569 59 577 c 128,-1,15
 51 585 51 585 51 596 c 256,16,17
 51 607 51 607 59 615 c 128,-1,18
 67 623 67 623 78 623 c 0,19,20
 88 623 88 623 94 616 c 1,21,-1
 520 616 l 1,0,1
EndSplineSet
EndChar

StartChar: registered
Encoding: 174 174 87
Width: 948
Flags: W
HStem: -23 41<340.098 608.558> 500 41<334 487> 1208 41<334 564.484> 1413 41<340.098 608.558>
VStem: 82 41<259.641 1172.36> 293 41<192.251 500 541 1208> 627 53<192.251 217 595.225 1148.73> 827 41<259.641 1172.36>
LayerCount: 2
Fore
SplineSet
868 408 m 2,0,1
 868 327 868 327 847.5 250 c 128,-1,2
 827 173 827 173 780.5 112 c 128,-1,3
 734 51 734 51 659 14 c 128,-1,4
 584 -23 584 -23 475 -23 c 0,5,6
 363 -23 363 -23 287.5 14 c 128,-1,7
 212 51 212 51 166.5 112 c 128,-1,8
 121 173 121 173 101.5 250 c 128,-1,9
 82 327 82 327 82 408 c 2,10,-1
 82 1024 l 2,11,12
 82 1105 82 1105 101.5 1182 c 128,-1,13
 121 1259 121 1259 166.5 1319.5 c 128,-1,14
 212 1380 212 1380 287.5 1417 c 128,-1,15
 363 1454 363 1454 475 1454 c 0,16,17
 584 1454 584 1454 659 1417 c 128,-1,18
 734 1380 734 1380 780.5 1319.5 c 128,-1,19
 827 1259 827 1259 847.5 1182 c 128,-1,20
 868 1105 868 1105 868 1024 c 2,21,-1
 868 408 l 2,0,1
827 1022 m 2,22,23
 827 1092 827 1092 809.5 1162 c 128,-1,24
 792 1232 792 1232 751 1288 c 128,-1,25
 710 1344 710 1344 642 1378.5 c 128,-1,26
 574 1413 574 1413 473 1413 c 0,27,28
 373 1413 373 1413 306 1378.5 c 128,-1,29
 239 1344 239 1344 198.5 1288 c 128,-1,30
 158 1232 158 1232 140.5 1162 c 128,-1,31
 123 1092 123 1092 123 1022 c 2,32,-1
 123 410 l 2,33,34
 123 339 123 339 140.5 269 c 128,-1,35
 158 199 158 199 198.5 143 c 128,-1,36
 239 87 239 87 306 52.5 c 128,-1,37
 373 18 373 18 473 18 c 0,38,39
 574 18 574 18 642 52.5 c 128,-1,40
 710 87 710 87 751 143 c 128,-1,41
 792 199 792 199 809.5 269 c 128,-1,42
 827 339 827 339 827 410 c 2,43,-1
 827 1022 l 2,22,23
664 236 m 1,44,45
 670 232 670 232 675 225.5 c 128,-1,46
 680 219 680 219 680 211 c 0,47,48
 680 200 680 200 672 192 c 128,-1,49
 664 184 664 184 653 184 c 256,50,51
 642 184 642 184 634.5 192 c 128,-1,52
 627 200 627 200 627 211 c 2,53,-1
 627 217 l 1,54,-1
 487 500 l 1,55,-1
 334 500 l 1,56,-1
 334 227 l 1,57,58
 340 221 340 221 340 211 c 0,59,60
 340 200 340 200 332 192 c 128,-1,61
 324 184 324 184 313 184 c 256,62,63
 302 184 302 184 294.5 192 c 128,-1,64
 287 200 287 200 287 211 c 0,65,66
 287 221 287 221 293 227 c 1,67,-1
 293 1249 l 1,68,-1
 483 1249 l 2,69,70
 537 1249 537 1249 574 1231 c 128,-1,71
 611 1213 611 1213 633.5 1183 c 128,-1,72
 656 1153 656 1153 666 1114.5 c 128,-1,73
 676 1076 676 1076 676 1036 c 2,74,-1
 676 707 l 2,75,76
 676 671 676 671 668.5 638 c 128,-1,77
 661 605 661 605 644 577.5 c 128,-1,78
 627 550 627 550 599.5 530.5 c 128,-1,79
 572 511 572 511 532 504 c 1,80,-1
 664 236 l 1,44,45
483 541 m 2,81,82
 525 541 525 541 554 555 c 128,-1,83
 583 569 583 569 601 592 c 128,-1,84
 619 615 619 615 627 645 c 128,-1,85
 635 675 635 675 635 707 c 2,86,-1
 635 1036 l 2,87,88
 635 1067 635 1067 627.5 1098 c 128,-1,89
 620 1129 620 1129 602 1153.5 c 128,-1,90
 584 1178 584 1178 555 1193 c 128,-1,91
 526 1208 526 1208 483 1208 c 2,92,-1
 334 1208 l 1,93,-1
 334 541 l 1,94,-1
 483 541 l 2,81,82
EndSplineSet
EndChar

StartChar: macron
Encoding: 175 175 88
Width: 586
Flags: W
HStem: 1341 54<82.002 503.998>
VStem: 82 422<1348.03 1388.88>
LayerCount: 2
Fore
SplineSet
459 1389 m 1,0,1
 468 1395 468 1395 477 1395 c 0,2,3
 488 1395 488 1395 496 1387 c 128,-1,4
 504 1379 504 1379 504 1368 c 256,5,6
 504 1357 504 1357 496 1349 c 128,-1,7
 488 1341 488 1341 477 1341 c 0,8,9
 467 1341 467 1341 459 1348 c 1,10,-1
 125 1348 l 1,11,12
 119 1341 119 1341 109 1341 c 0,13,14
 98 1341 98 1341 90 1349 c 128,-1,15
 82 1357 82 1357 82 1368 c 256,16,17
 82 1379 82 1379 90 1387 c 128,-1,18
 98 1395 98 1395 109 1395 c 0,19,20
 119 1395 119 1395 125 1389 c 1,21,-1
 459 1389 l 1,0,1
EndSplineSet
EndChar

StartChar: degree
Encoding: 176 176 89
Width: 416
Flags: W
HStem: 825 41<147.126 267.343> 1413 41<146.514 267.561>
VStem: 76 41<896.783 1382.73> 299 41<899.023 1380.92>
LayerCount: 2
Fore
SplineSet
117 969 m 2,0,1
 117 951 117 951 121 932.5 c 128,-1,2
 125 914 125 914 135.5 899 c 128,-1,3
 146 884 146 884 163.5 875 c 128,-1,4
 181 866 181 866 207 866 c 256,5,6
 233 866 233 866 250.5 875 c 128,-1,7
 268 884 268 884 279 899 c 128,-1,8
 290 914 290 914 294.5 932.5 c 128,-1,9
 299 951 299 951 299 969 c 2,10,-1
 299 1311 l 2,11,12
 299 1329 299 1329 294.5 1347.5 c 128,-1,13
 290 1366 290 1366 279 1380.5 c 128,-1,14
 268 1395 268 1395 250.5 1404 c 128,-1,15
 233 1413 233 1413 207 1413 c 256,16,17
 181 1413 181 1413 163.5 1404 c 128,-1,18
 146 1395 146 1395 135.5 1380.5 c 128,-1,19
 125 1366 125 1366 121 1347.5 c 128,-1,20
 117 1329 117 1329 117 1311 c 2,21,-1
 117 969 l 2,0,1
340 969 m 2,22,23
 340 943 340 943 333 917 c 128,-1,24
 326 891 326 891 310 870.5 c 128,-1,25
 294 850 294 850 269 837.5 c 128,-1,26
 244 825 244 825 207 825 c 256,27,28
 170 825 170 825 145 837.5 c 128,-1,29
 120 850 120 850 104.5 870.5 c 128,-1,30
 89 891 89 891 82.5 917 c 128,-1,31
 76 943 76 943 76 969 c 2,32,-1
 76 1311 l 2,33,34
 76 1337 76 1337 82.5 1362.5 c 128,-1,35
 89 1388 89 1388 104.5 1408.5 c 128,-1,36
 120 1429 120 1429 145 1441.5 c 128,-1,37
 170 1454 170 1454 207 1454 c 256,38,39
 244 1454 244 1454 269 1441.5 c 128,-1,40
 294 1429 294 1429 310 1408.5 c 128,-1,41
 326 1388 326 1388 333 1362.5 c 128,-1,42
 340 1337 340 1337 340 1311 c 2,43,-1
 340 969 l 2,22,23
EndSplineSet
EndChar

StartChar: plusminus
Encoding: 177 177 90
Width: 737
Flags: W
HStem: 258 54<76.002 661.998> 530 41<76.0078 348 389 661.992>
VStem: 348 41<366.251 530 571 833.749>
LayerCount: 2
Fore
SplineSet
617 571 m 1,0,1
 625 578 625 578 635 578 c 0,2,3
 646 578 646 578 654 570 c 128,-1,4
 662 562 662 562 662 551 c 256,5,6
 662 540 662 540 654 532 c 128,-1,7
 646 524 646 524 635 524 c 0,8,9
 626 524 626 524 617 530 c 1,10,-1
 389 530 l 1,11,-1
 389 401 l 1,12,13
 395 395 395 395 395 385 c 0,14,15
 395 374 395 374 387.5 366 c 128,-1,16
 380 358 380 358 369 358 c 256,17,18
 358 358 358 358 350 366 c 128,-1,19
 342 374 342 374 342 385 c 0,20,21
 342 395 342 395 348 401 c 1,22,-1
 348 530 l 1,23,-1
 119 530 l 1,24,25
 113 524 113 524 103 524 c 0,26,27
 92 524 92 524 84 532 c 128,-1,28
 76 540 76 540 76 551 c 256,29,30
 76 562 76 562 84 570 c 128,-1,31
 92 578 92 578 103 578 c 0,32,33
 113 578 113 578 119 571 c 1,34,-1
 348 571 l 1,35,-1
 348 797 l 1,36,37
 342 806 342 806 342 815 c 0,38,39
 342 826 342 826 350 834 c 128,-1,40
 358 842 358 842 369 842 c 256,41,42
 380 842 380 842 387.5 834 c 128,-1,43
 395 826 395 826 395 815 c 0,44,45
 395 806 395 806 389 797 c 1,46,-1
 389 571 l 1,47,-1
 617 571 l 1,0,1
617 305 m 1,48,49
 625 312 625 312 635 312 c 0,50,51
 646 312 646 312 654 304 c 128,-1,52
 662 296 662 296 662 285 c 256,53,54
 662 274 662 274 654 266 c 128,-1,55
 646 258 646 258 635 258 c 0,56,57
 626 258 626 258 617 264 c 1,58,-1
 119 264 l 1,59,60
 113 258 113 258 103 258 c 0,61,62
 92 258 92 258 84 266 c 128,-1,63
 76 274 76 274 76 285 c 256,64,65
 76 296 76 296 84 304 c 128,-1,66
 92 312 92 312 103 312 c 0,67,68
 113 312 113 312 119 305 c 1,69,-1
 617 305 l 1,48,49
EndSplineSet
EndChar

StartChar: acute
Encoding: 180 180 91
Width: 451
Flags: W
HStem: 1401 53<342 360.749>
VStem: 82 53<1175.25 1194> 315 54<1430 1454>
LayerCount: 2
Fore
SplineSet
135 1194 m 1,0,1
 135 1183 135 1183 127.5 1175 c 128,-1,2
 120 1167 120 1167 109 1167 c 256,3,4
 98 1167 98 1167 90 1175 c 128,-1,5
 82 1183 82 1183 82 1194 c 0,6,7
 82 1203 82 1203 88.5 1211 c 128,-1,8
 95 1219 95 1219 106 1221 c 1,9,-1
 315 1430 l 1,10,11
 315 1439 315 1439 323 1446.5 c 128,-1,12
 331 1454 331 1454 342 1454 c 256,13,14
 353 1454 353 1454 361 1446 c 128,-1,15
 369 1438 369 1438 369 1427 c 256,16,17
 369 1416 369 1416 361 1408.5 c 128,-1,18
 353 1401 353 1401 342 1401 c 1,19,-1
 135 1194 l 1,0,1
EndSplineSet
EndChar

StartChar: paragraph
Encoding: 182 182 92
Width: 752
Flags: W
HStem: -20 21G<465.5 476.5 612.5 623.5> -20 21G<465.5 476.5 612.5 623.5> 791 40<181.953 451> 1393 41<184.276 451> 1434 20G<612.5 623.5>
VStem: 59 41<915.814 1302.69> 451 41<-12.2648 791 831 1393> 592 53<-12.2648 1445.75>
LayerCount: 2
Fore
SplineSet
492 23 m 1,0,1
 498 15 498 15 498 6 c 0,2,3
 498 -5 498 -5 490 -12.5 c 128,-1,4
 482 -20 482 -20 471 -20 c 256,5,6
 460 -20 460 -20 452 -12.5 c 128,-1,7
 444 -5 444 -5 444 6 c 0,8,9
 444 16 444 16 451 23 c 1,10,-1
 451 791 l 1,11,-1
 272 791 l 2,12,13
 212 791 212 791 171 810 c 128,-1,14
 130 829 130 829 105 860.5 c 128,-1,15
 80 892 80 892 69.5 933 c 128,-1,16
 59 974 59 974 59 1018 c 2,17,-1
 59 1200 l 2,18,19
 59 1244 59 1244 69.5 1286 c 128,-1,20
 80 1328 80 1328 105 1361 c 128,-1,21
 130 1394 130 1394 171 1414 c 128,-1,22
 212 1434 212 1434 272 1434 c 2,23,-1
 492 1434 l 1,24,-1
 492 23 l 1,0,1
451 831 m 1,25,-1
 451 1393 l 1,26,-1
 272 1393 l 2,27,28
 223 1393 223 1393 190 1376 c 128,-1,29
 157 1359 157 1359 137 1331.5 c 128,-1,30
 117 1304 117 1304 108.5 1269.5 c 128,-1,31
 100 1235 100 1235 100 1200 c 2,32,-1
 100 1018 l 2,33,34
 100 982 100 982 108.5 948.5 c 128,-1,35
 117 915 117 915 137 888.5 c 128,-1,36
 157 862 157 862 190 846.5 c 128,-1,37
 223 831 223 831 272 831 c 2,38,-1
 451 831 l 1,25,-1
639 23 m 1,39,40
 645 15 645 15 645 6 c 0,41,42
 645 -5 645 -5 637 -12.5 c 128,-1,43
 629 -20 629 -20 618 -20 c 256,44,45
 607 -20 607 -20 599.5 -12.5 c 128,-1,46
 592 -5 592 -5 592 6 c 0,47,48
 592 15 592 15 598 23 c 1,49,-1
 598 1409 l 1,50,51
 592 1418 592 1418 592 1427 c 0,52,53
 592 1438 592 1438 599.5 1446 c 128,-1,54
 607 1454 607 1454 618 1454 c 256,55,56
 629 1454 629 1454 637 1446 c 128,-1,57
 645 1438 645 1438 645 1427 c 0,58,59
 645 1418 645 1418 639 1409 c 1,60,-1
 639 23 l 1,39,40
EndSplineSet
EndChar

StartChar: cedilla
Encoding: 184 184 94
Width: 469
Flags: W
HStem: -385 41<90.2507 315.732> -131 131<186 227> -131 41<227 314.659>
VStem: 186 41<-90 0> 346 41<-314.426 -161.37>
LayerCount: 2
Fore
SplineSet
387 -254 m 2,0,1
 387 -291 387 -291 374.5 -316 c 128,-1,2
 362 -341 362 -341 341.5 -356.5 c 128,-1,3
 321 -372 321 -372 295.5 -378.5 c 128,-1,4
 270 -385 270 -385 244 -385 c 2,5,-1
 125 -385 l 1,6,7
 119 -391 119 -391 109 -391 c 0,8,9
 98 -391 98 -391 90 -383.5 c 128,-1,10
 82 -376 82 -376 82 -365 c 256,11,12
 82 -354 82 -354 90 -346 c 128,-1,13
 98 -338 98 -338 109 -338 c 0,14,15
 119 -338 119 -338 125 -344 c 1,16,-1
 244 -344 l 2,17,18
 262 -344 262 -344 280.5 -340 c 128,-1,19
 299 -336 299 -336 313.5 -325.5 c 128,-1,20
 328 -315 328 -315 337 -297.5 c 128,-1,21
 346 -280 346 -280 346 -254 c 2,22,-1
 346 -221 l 2,23,24
 346 -195 346 -195 337 -178 c 128,-1,25
 328 -161 328 -161 313.5 -150.5 c 128,-1,26
 299 -140 299 -140 280.5 -135.5 c 128,-1,27
 262 -131 262 -131 244 -131 c 2,28,-1
 186 -131 l 1,29,-1
 186 0 l 1,30,-1
 227 0 l 1,31,-1
 227 -90 l 1,32,-1
 244 -90 l 2,33,34
 270 -90 270 -90 295.5 -96.5 c 128,-1,35
 321 -103 321 -103 341.5 -118.5 c 128,-1,36
 362 -134 362 -134 374.5 -159 c 128,-1,37
 387 -184 387 -184 387 -221 c 2,38,-1
 387 -254 l 2,0,1
EndSplineSet
EndChar

StartChar: ordmasculine
Encoding: 186 186 95
Width: 416
Flags: W
HStem: 825 41<147.126 267.343> 1413 41<146.514 267.561>
VStem: 76 41<896.783 1382.73> 299 41<899.023 1380.92>
LayerCount: 2
Fore
SplineSet
117 969 m 2,0,1
 117 951 117 951 121 932.5 c 128,-1,2
 125 914 125 914 135.5 899 c 128,-1,3
 146 884 146 884 163.5 875 c 128,-1,4
 181 866 181 866 207 866 c 256,5,6
 233 866 233 866 250.5 875 c 128,-1,7
 268 884 268 884 279 899 c 128,-1,8
 290 914 290 914 294.5 932.5 c 128,-1,9
 299 951 299 951 299 969 c 2,10,-1
 299 1311 l 2,11,12
 299 1329 299 1329 294.5 1347.5 c 128,-1,13
 290 1366 290 1366 279 1380.5 c 128,-1,14
 268 1395 268 1395 250.5 1404 c 128,-1,15
 233 1413 233 1413 207 1413 c 256,16,17
 181 1413 181 1413 163.5 1404 c 128,-1,18
 146 1395 146 1395 135.5 1380.5 c 128,-1,19
 125 1366 125 1366 121 1347.5 c 128,-1,20
 117 1329 117 1329 117 1311 c 2,21,-1
 117 969 l 2,0,1
340 969 m 2,22,23
 340 943 340 943 333 917 c 128,-1,24
 326 891 326 891 310 870.5 c 128,-1,25
 294 850 294 850 269 837.5 c 128,-1,26
 244 825 244 825 207 825 c 256,27,28
 170 825 170 825 145 837.5 c 128,-1,29
 120 850 120 850 104.5 870.5 c 128,-1,30
 89 891 89 891 82.5 917 c 128,-1,31
 76 943 76 943 76 969 c 2,32,-1
 76 1311 l 2,33,34
 76 1337 76 1337 82.5 1362.5 c 128,-1,35
 89 1388 89 1388 104.5 1408.5 c 128,-1,36
 120 1429 120 1429 145 1441.5 c 128,-1,37
 170 1454 170 1454 207 1454 c 256,38,39
 244 1454 244 1454 269 1441.5 c 128,-1,40
 294 1429 294 1429 310 1408.5 c 128,-1,41
 326 1388 326 1388 333 1362.5 c 128,-1,42
 340 1337 340 1337 340 1311 c 2,43,-1
 340 969 l 2,22,23
EndSplineSet
EndChar

StartChar: AE
Encoding: 198 198 106
Width: 930
Flags: W
HStem: -20 21G<100.5 111.5> -20 21G<100.5 111.5> 0 41<512 888.749> 983 41<127 471 512 829.749> 1393 41<210.969 471 512 896.992>
VStem: 86 41<-12.2648 983 1024 1305.14> 471 41<41 983 1024 1393>
LayerCount: 2
Fore
SplineSet
852 41 m 1,0,1
 861 47 861 47 870 47 c 0,2,3
 881 47 881 47 889 39 c 128,-1,4
 897 31 897 31 897 20 c 256,5,6
 897 9 897 9 889 1.5 c 128,-1,7
 881 -6 881 -6 870 -6 c 0,8,9
 861 -6 861 -6 852 0 c 1,10,-1
 471 0 l 1,11,-1
 471 983 l 1,12,-1
 127 983 l 1,13,-1
 127 23 l 1,14,15
 133 15 133 15 133 6 c 0,16,17
 133 -5 133 -5 125 -12.5 c 128,-1,18
 117 -20 117 -20 106 -20 c 256,19,20
 95 -20 95 -20 87.5 -12.5 c 128,-1,21
 80 -5 80 -5 80 6 c 0,22,23
 80 15 80 15 86 23 c 1,24,-1
 86 1200 l 2,25,26
 86 1244 86 1244 96 1286 c 128,-1,27
 106 1328 106 1328 131 1361 c 128,-1,28
 156 1394 156 1394 197.5 1414 c 128,-1,29
 239 1434 239 1434 301 1434 c 2,30,-1
 852 1434 l 1,31,32
 861 1440 861 1440 870 1440 c 0,33,34
 881 1440 881 1440 889 1432 c 128,-1,35
 897 1424 897 1424 897 1413 c 256,36,37
 897 1402 897 1402 889 1394 c 128,-1,38
 881 1386 881 1386 870 1386 c 0,39,40
 862 1386 862 1386 852 1393 c 1,41,-1
 512 1393 l 1,42,-1
 512 1024 l 1,43,-1
 793 1024 l 1,44,45
 802 1030 802 1030 811 1030 c 0,46,47
 822 1030 822 1030 830 1022.5 c 128,-1,48
 838 1015 838 1015 838 1004 c 256,49,50
 838 993 838 993 830 985 c 128,-1,51
 822 977 822 977 811 977 c 0,52,53
 802 977 802 977 793 983 c 1,54,-1
 512 983 l 1,55,-1
 512 41 l 1,56,-1
 852 41 l 1,0,1
471 1024 m 1,57,-1
 471 1393 l 1,58,-1
 301 1393 l 2,59,60
 250 1393 250 1393 216.5 1376 c 128,-1,61
 183 1359 183 1359 163 1331.5 c 128,-1,62
 143 1304 143 1304 135 1269.5 c 128,-1,63
 127 1235 127 1235 127 1200 c 2,64,-1
 127 1024 l 1,65,-1
 471 1024 l 1,57,-1
EndSplineSet
EndChar

StartChar: Eth
Encoding: 208 208 116
Width: 610
Flags: W
HStem: 0 41<143 403.031> 983 41<-28.7493 102 143 331.749> 1393 41<143 403.031>
VStem: 102 41<41 983 1024 1393> 487 41<128.514 1305.14>
LayerCount: 2
Fore
SplineSet
528 233 m 2,0,1
 528 189 528 189 517.5 147.5 c 128,-1,2
 507 106 507 106 482.5 73 c 128,-1,3
 458 40 458 40 416.5 20 c 128,-1,4
 375 0 375 0 313 0 c 2,5,-1
 102 0 l 1,6,-1
 102 983 l 1,7,-1
 6 983 l 1,8,9
 0 977 0 977 -10 977 c 0,10,11
 -21 977 -21 977 -29 985 c 128,-1,12
 -37 993 -37 993 -37 1004 c 256,13,14
 -37 1015 -37 1015 -29 1022.5 c 128,-1,15
 -21 1030 -21 1030 -10 1030 c 0,16,17
 0 1030 0 1030 6 1024 c 1,18,-1
 102 1024 l 1,19,-1
 102 1434 l 1,20,-1
 313 1434 l 2,21,22
 375 1434 375 1434 416.5 1414 c 128,-1,23
 458 1394 458 1394 482.5 1361 c 128,-1,24
 507 1328 507 1328 517.5 1286 c 128,-1,25
 528 1244 528 1244 528 1200 c 2,26,-1
 528 233 l 2,0,1
313 41 m 2,27,28
 364 41 364 41 397.5 58 c 128,-1,29
 431 75 431 75 451 102 c 128,-1,30
 471 129 471 129 479 163.5 c 128,-1,31
 487 198 487 198 487 233 c 2,32,-1
 487 1200 l 2,33,34
 487 1235 487 1235 479 1269.5 c 128,-1,35
 471 1304 471 1304 451 1331.5 c 128,-1,36
 431 1359 431 1359 397.5 1376 c 128,-1,37
 364 1393 364 1393 313 1393 c 2,38,-1
 143 1393 l 1,39,-1
 143 1024 l 1,40,-1
 295 1024 l 1,41,42
 304 1030 304 1030 313 1030 c 0,43,44
 324 1030 324 1030 332 1022.5 c 128,-1,45
 340 1015 340 1015 340 1004 c 256,46,47
 340 993 340 993 332 985 c 128,-1,48
 324 977 324 977 313 977 c 0,49,50
 304 977 304 977 295 983 c 1,51,-1
 143 983 l 1,52,-1
 143 41 l 1,53,-1
 313 41 l 2,27,28
EndSplineSet
EndChar

StartChar: multiply
Encoding: 215 215 123
Width: 590
Flags: W
HStem: 336 51<68.0312 90 475 491.75> 711 55<471 489.719>
VStem: 68 53<344.188 360 739 755.811>
LayerCount: 2
Fore
SplineSet
475 385 m 1,0,1
 484 385 484 385 492 379 c 1,2,3
 500 371 500 371 500 360.5 c 128,-1,4
 500 350 500 350 492 342 c 256,5,6
 484 334 484 334 473.5 334 c 128,-1,7
 463 334 463 334 455 342 c 0,8,9
 452 345 452 345 450.5 349 c 128,-1,10
 449 353 449 353 447 356 c 2,11,-1
 283 522 l 1,12,-1
 121 360 l 1,13,14
 121 350 121 350 115 344 c 0,15,16
 107 336 107 336 95.5 336 c 128,-1,17
 84 336 84 336 76 344 c 256,18,19
 68 352 68 352 68 362.5 c 128,-1,20
 68 373 68 373 76 381 c 0,21,22
 82 387 82 387 90 387 c 1,23,-1
 254 551 l 1,24,-1
 92 711 l 2,25,26
 89 713 89 713 85 714.5 c 128,-1,27
 81 716 81 716 78 719 c 0,28,29
 70 727 70 727 70 737.5 c 128,-1,30
 70 748 70 748 78 756 c 256,31,32
 86 764 86 764 96.5 764 c 128,-1,33
 107 764 107 764 115 756 c 0,34,35
 121 750 121 750 121 739 c 1,36,-1
 283 580 l 1,37,-1
 444 741 l 1,38,39
 446 746 446 746 448 750.5 c 128,-1,40
 450 755 450 755 453 758 c 0,41,42
 461 766 461 766 471.5 766 c 128,-1,43
 482 766 482 766 490 758 c 256,44,45
 498 750 498 750 498 738.5 c 128,-1,46
 498 727 498 727 490 719 c 0,47,48
 481 711 481 711 471 711 c 1,49,-1
 311 551 l 1,50,-1
 475 385 l 1,0,1
EndSplineSet
EndChar

StartChar: Oslash
Encoding: 216 216 124
Width: 596
Flags: W
HStem: -20 40<204.94 385.431> 1413 41<207.306 383.093>
VStem: -41 53<-103.718 -76.0938> 82 41<104.814 132.844 214 219 320 1323.94> 467 41<104.814 1102 1206 1207 1292 1323.94> 584 53<1513.28 1539.23>
LayerCount: 2
Fore
SplineSet
508 207 m 2,0,1
 508 163 508 163 497 122 c 128,-1,2
 486 81 486 81 461 49.5 c 128,-1,3
 436 18 436 18 395 -1 c 128,-1,4
 354 -20 354 -20 295 -20 c 0,5,6
 234 -20 234 -20 193 -1 c 128,-1,7
 152 18 152 18 127.5 49.5 c 128,-1,8
 103 81 103 81 92 122 c 0,9,10
 91 128 91 128 89 133 c 1,11,-1
 8 -76 l 1,12,13
 10 -79 10 -79 11 -82 c 128,-1,14
 12 -85 12 -85 12 -90 c 0,15,16
 10 -101 10 -101 1.5 -108 c 128,-1,17
 -7 -115 -7 -115 -18 -115 c 1,18,19
 -29 -113 -29 -113 -36 -104 c 128,-1,20
 -43 -95 -43 -95 -41 -84 c 0,21,22
 -38 -69 -38 -69 -25 -61 c 1,23,-1
 82 214 l 1,24,-1
 82 1221 l 2,25,26
 82 1264 82 1264 92.5 1306 c 128,-1,27
 103 1348 103 1348 127.5 1381 c 128,-1,28
 152 1414 152 1414 193 1434 c 128,-1,29
 234 1454 234 1454 295 1454 c 0,30,31
 354 1454 354 1454 395 1434 c 128,-1,32
 436 1414 436 1414 461 1381 c 128,-1,33
 486 1348 486 1348 497 1306 c 0,34,35
 499 1299 499 1299 500 1292 c 1,36,-1
 586 1513 l 1,37,38
 582 1522 582 1522 584 1526 c 1,39,40
 586 1537 586 1537 594.5 1543.5 c 128,-1,41
 603 1550 603 1550 614 1548 c 1,42,43
 625 1548 625 1548 632 1539.5 c 128,-1,44
 639 1531 639 1531 637 1520 c 0,45,46
 634 1503 634 1503 621 1497 c 1,47,-1
 508 1207 l 1,48,-1
 508 207 l 2,0,1
467 1221 m 2,49,50
 467 1256 467 1256 458.5 1290.5 c 128,-1,51
 450 1325 450 1325 430 1352 c 128,-1,52
 410 1379 410 1379 377 1396 c 128,-1,53
 344 1413 344 1413 295 1413 c 256,54,55
 246 1413 246 1413 213 1396 c 128,-1,56
 180 1379 180 1379 160 1352 c 128,-1,57
 140 1325 140 1325 131.5 1290.5 c 128,-1,58
 123 1256 123 1256 123 1221 c 2,59,-1
 123 320 l 1,60,-1
 467 1206 l 1,61,-1
 467 1221 l 2,49,50
123 207 m 2,62,63
 123 171 123 171 131.5 137.5 c 128,-1,64
 140 104 140 104 160 77.5 c 128,-1,65
 180 51 180 51 213 35.5 c 128,-1,66
 246 20 246 20 295 20 c 256,67,68
 344 20 344 20 377 35.5 c 128,-1,69
 410 51 410 51 430 77.5 c 128,-1,70
 450 104 450 104 458.5 137.5 c 128,-1,71
 467 171 467 171 467 207 c 2,72,-1
 467 1102 l 1,73,-1
 123 219 l 1,74,-1
 123 207 l 2,62,63
EndSplineSet
EndChar

StartChar: Thorn
Encoding: 222 222 130
Width: 561
Flags: W
HStem: -20 21G<103.5 114.5> -20 21G<103.5 114.5> 410 41<129 398.024> 1198 41<129 395.073> 1434 20G<103.5 114.5>
VStem: 88 41<-12.2648 410 451 1198 1239 1445.75> 479 41<535.736 1108.94>
LayerCount: 2
Fore
SplineSet
129 23 m 1,0,1
 135 15 135 15 135 6 c 0,2,3
 135 -5 135 -5 127.5 -12.5 c 128,-1,4
 120 -20 120 -20 109 -20 c 256,5,6
 98 -20 98 -20 90 -12.5 c 128,-1,7
 82 -5 82 -5 82 6 c 0,8,9
 82 15 82 15 88 23 c 1,10,-1
 88 1409 l 1,11,12
 82 1418 82 1418 82 1427 c 0,13,14
 82 1438 82 1438 90 1446 c 128,-1,15
 98 1454 98 1454 109 1454 c 256,16,17
 120 1454 120 1454 127.5 1446 c 128,-1,18
 135 1438 135 1438 135 1427 c 0,19,20
 135 1418 135 1418 129 1409 c 1,21,-1
 129 1239 l 1,22,-1
 307 1239 l 2,23,24
 368 1239 368 1239 408.5 1219 c 128,-1,25
 449 1199 449 1199 474 1166 c 128,-1,26
 499 1133 499 1133 509.5 1091 c 128,-1,27
 520 1049 520 1049 520 1006 c 2,28,-1
 520 637 l 2,29,30
 520 593 520 593 509.5 552 c 128,-1,31
 499 511 499 511 474 479.5 c 128,-1,32
 449 448 449 448 408.5 429 c 128,-1,33
 368 410 368 410 307 410 c 2,34,-1
 129 410 l 1,35,-1
 129 23 l 1,0,1
307 451 m 2,36,37
 356 451 356 451 389 466.5 c 128,-1,38
 422 482 422 482 442 508 c 128,-1,39
 462 534 462 534 470.5 567.5 c 128,-1,40
 479 601 479 601 479 637 c 2,41,-1
 479 1006 l 2,42,43
 479 1041 479 1041 470.5 1075.5 c 128,-1,44
 462 1110 462 1110 442 1137 c 128,-1,45
 422 1164 422 1164 389 1181 c 128,-1,46
 356 1198 356 1198 307 1198 c 2,47,-1
 129 1198 l 1,48,-1
 129 451 l 1,49,-1
 307 451 l 2,36,37
EndSplineSet
EndChar

StartChar: germandbls
Encoding: 223 223 131
Width: 578
Flags: W
HStem: -20 21G<96.5 107.5> -20 21G<96.5 107.5> 0 41<217.251 386.125> 983 41<217.251 381.879> 1413 41<207.306 383.093>
VStem: 76 53<-12.2648 1336.22> 467 41<125.258 894.331 1105.84 1323.94>
LayerCount: 2
Fore
SplineSet
508 221 m 2,0,1
 508 116 508 116 453.5 58 c 128,-1,2
 399 0 399 0 293 0 c 2,3,-1
 252 0 l 1,4,5
 246 -6 246 -6 236 -6 c 0,6,7
 225 -6 225 -6 217 1.5 c 128,-1,8
 209 9 209 9 209 20 c 256,9,10
 209 31 209 31 217 39 c 128,-1,11
 225 47 225 47 236 47 c 0,12,13
 246 47 246 47 252 41 c 1,14,-1
 293 41 l 2,15,16
 380 41 380 41 423.5 89.5 c 128,-1,17
 467 138 467 138 467 223 c 2,18,-1
 467 791 l 2,19,20
 467 827 467 827 458.5 861.5 c 128,-1,21
 450 896 450 896 429.5 923 c 128,-1,22
 409 950 409 950 374.5 966.5 c 128,-1,23
 340 983 340 983 289 983 c 2,24,-1
 252 983 l 1,25,26
 246 977 246 977 236 977 c 0,27,28
 225 977 225 977 217 985 c 128,-1,29
 209 993 209 993 209 1004 c 256,30,31
 209 1015 209 1015 217 1022.5 c 128,-1,32
 225 1030 225 1030 236 1030 c 0,33,34
 246 1030 246 1030 252 1024 c 1,35,-1
 307 1024 l 2,36,37
 356 1024 356 1024 387 1041 c 128,-1,38
 418 1058 418 1058 436 1086 c 128,-1,39
 454 1114 454 1114 460.5 1149.5 c 128,-1,40
 467 1185 467 1185 467 1221 c 0,41,42
 467 1256 467 1256 458.5 1290.5 c 128,-1,43
 450 1325 450 1325 430 1352 c 128,-1,44
 410 1379 410 1379 377 1396 c 128,-1,45
 344 1413 344 1413 295 1413 c 256,46,47
 246 1413 246 1413 213 1396 c 128,-1,48
 180 1379 180 1379 160 1352 c 128,-1,49
 140 1325 140 1325 131.5 1290.5 c 128,-1,50
 123 1256 123 1256 123 1221 c 2,51,-1
 123 23 l 1,52,53
 129 15 129 15 129 6 c 0,54,55
 129 -5 129 -5 121 -12.5 c 128,-1,56
 113 -20 113 -20 102 -20 c 256,57,58
 91 -20 91 -20 83.5 -12.5 c 128,-1,59
 76 -5 76 -5 76 6 c 0,60,61
 76 15 76 15 82 23 c 1,62,-1
 82 1221 l 2,63,64
 82 1264 82 1264 92.5 1306 c 128,-1,65
 103 1348 103 1348 127.5 1381 c 128,-1,66
 152 1414 152 1414 193 1434 c 128,-1,67
 234 1454 234 1454 295 1454 c 0,68,69
 354 1454 354 1454 395 1434 c 128,-1,70
 436 1414 436 1414 461 1381 c 128,-1,71
 486 1348 486 1348 497 1306 c 128,-1,72
 508 1264 508 1264 508 1221 c 0,73,74
 508 1188 508 1188 502.5 1154.5 c 128,-1,75
 497 1121 497 1121 483 1092 c 128,-1,76
 469 1063 469 1063 446 1040 c 128,-1,77
 423 1017 423 1017 389 1004 c 1,78,79
 422 989 422 989 444.5 967 c 128,-1,80
 467 945 467 945 481.5 917.5 c 128,-1,81
 496 890 496 890 502 857.5 c 128,-1,82
 508 825 508 825 508 791 c 2,83,-1
 508 221 l 2,0,1
EndSplineSet
EndChar

StartChar: ae
Encoding: 230 230 136
Width: 928
Flags: W
HStem: -20 40<186.567 361.527 568.858 743.666> 575 41<200.52 444 485 825> 1004 40<188.105 359.271 568.989 741.037>
VStem: 63 41<108.812 488.002 786.049 828.906> 444 41<109.9 575 616 912.891> 825 41<197.094 231.749 616 915.038>
CounterMasks: 1 1c
LayerCount: 2
Fore
SplineSet
866 575 m 1,0,-1
 485 575 l 1,1,-1
 485 215 l 2,2,3
 485 179 485 179 493.5 144 c 128,-1,4
 502 109 502 109 521.5 81.5 c 128,-1,5
 541 54 541 54 574 37 c 128,-1,6
 607 20 607 20 655 20 c 0,7,8
 702 20 702 20 734 35 c 128,-1,9
 766 50 766 50 785.5 74.5 c 128,-1,10
 805 99 805 99 814 131 c 128,-1,11
 823 163 823 163 825 197 c 1,12,13
 822 200 822 200 820.5 205 c 128,-1,14
 819 210 819 210 819 213 c 0,15,16
 819 224 819 224 827 232 c 128,-1,17
 835 240 835 240 846 240 c 256,18,19
 857 240 857 240 864.5 232 c 128,-1,20
 872 224 872 224 872 213 c 0,21,22
 872 210 872 210 870.5 205 c 128,-1,23
 869 200 869 200 866 197 c 1,24,25
 864 155 864 155 852.5 116 c 128,-1,26
 841 77 841 77 816.5 47 c 128,-1,27
 792 17 792 17 752.5 -1.5 c 128,-1,28
 713 -20 713 -20 655 -20 c 0,29,30
 615 -20 615 -20 584.5 -11 c 128,-1,31
 554 -2 554 -2 530.5 14 c 128,-1,32
 507 30 507 30 491 51.5 c 128,-1,33
 475 73 475 73 465 98 c 1,34,35
 442 49 442 49 395 14.5 c 128,-1,36
 348 -20 348 -20 274 -20 c 0,37,38
 214 -20 214 -20 173.5 0.5 c 128,-1,39
 133 21 133 21 108.5 54 c 128,-1,40
 84 87 84 87 73.5 129 c 128,-1,41
 63 171 63 171 63 215 c 2,42,-1
 63 381 l 2,43,44
 63 425 63 425 72.5 467 c 128,-1,45
 82 509 82 509 109.5 542 c 128,-1,46
 137 575 137 575 188.5 595.5 c 128,-1,47
 240 616 240 616 324 616 c 2,48,-1
 444 616 l 1,49,-1
 444 809 l 2,50,51
 444 844 444 844 435.5 879 c 128,-1,52
 427 914 427 914 407.5 941.5 c 128,-1,53
 388 969 388 969 355 986.5 c 128,-1,54
 322 1004 322 1004 274 1004 c 0,55,56
 228 1004 228 1004 196 988.5 c 128,-1,57
 164 973 164 973 143.5 948.5 c 128,-1,58
 123 924 123 924 113 892 c 128,-1,59
 103 860 103 860 102 827 c 1,60,61
 109 820 109 820 109 811 c 256,62,63
 109 802 109 802 101 794 c 128,-1,64
 93 786 93 786 82 786 c 256,65,66
 71 786 71 786 63 794 c 128,-1,67
 55 802 55 802 55 811 c 0,68,69
 55 816 55 816 56.5 821 c 128,-1,70
 58 826 58 826 61 829 c 1,71,72
 64 871 64 871 76 909.5 c 128,-1,73
 88 948 88 948 113.5 978 c 128,-1,74
 139 1008 139 1008 178 1026 c 128,-1,75
 217 1044 217 1044 274 1044 c 0,76,77
 353 1044 353 1044 398 1010 c 128,-1,78
 443 976 443 976 465 924 c 1,79,80
 475 950 475 950 491 972 c 128,-1,81
 507 994 507 994 530.5 1010 c 128,-1,82
 554 1026 554 1026 584.5 1035 c 128,-1,83
 615 1044 615 1044 655 1044 c 0,84,85
 715 1044 715 1044 755.5 1023.5 c 128,-1,86
 796 1003 796 1003 820.5 970 c 128,-1,87
 845 937 845 937 855.5 895 c 128,-1,88
 866 853 866 853 866 809 c 2,89,-1
 866 575 l 1,0,-1
104 215 m 2,90,91
 104 180 104 180 112 145 c 128,-1,92
 120 110 120 110 139.5 82 c 128,-1,93
 159 54 159 54 191.5 37 c 128,-1,94
 224 20 224 20 274 20 c 0,95,96
 322 20 322 20 354 35.5 c 128,-1,97
 386 51 386 51 405.5 76.5 c 128,-1,98
 425 102 425 102 433.5 134.5 c 128,-1,99
 442 167 442 167 444 201 c 1,100,-1
 444 575 l 1,101,-1
 324 575 l 2,102,103
 252 575 252 575 208.5 558 c 128,-1,104
 165 541 165 541 141.5 513.5 c 128,-1,105
 118 486 118 486 111 451 c 128,-1,106
 104 416 104 416 104 381 c 2,107,-1
 104 215 l 2,90,91
825 616 m 1,108,-1
 825 809 l 2,109,110
 825 844 825 844 817 879 c 128,-1,111
 809 914 809 914 789.5 941.5 c 128,-1,112
 770 969 770 969 737 986.5 c 128,-1,113
 704 1004 704 1004 655 1004 c 0,114,115
 609 1004 609 1004 577 988.5 c 128,-1,116
 545 973 545 973 525 947.5 c 128,-1,117
 505 922 505 922 495.5 889.5 c 128,-1,118
 486 857 486 857 485 823 c 1,119,-1
 485 616 l 1,120,-1
 825 616 l 1,108,-1
EndSplineSet
EndChar

StartChar: eth
Encoding: 240 240 146
Width: 565
Flags: W
HStem: -20 40<196.962 370.043> 1004 40<198.15 369.092> 1161 53<208.735 238> 1243 53<459.126 489.749> 1434 20G<279.5 290.5>
VStem: 72 41<109.9 912.944> 258 53<1415.13 1445.75> 453 41<107.962 914.842>
LayerCount: 2
Fore
SplineSet
494 215 m 2,0,1
 494 171 494 171 483.5 129 c 128,-1,2
 473 87 473 87 448 54 c 128,-1,3
 423 21 423 21 383 0.5 c 128,-1,4
 343 -20 343 -20 283 -20 c 256,5,6
 223 -20 223 -20 182.5 0.5 c 128,-1,7
 142 21 142 21 117.5 54 c 128,-1,8
 93 87 93 87 82.5 129 c 128,-1,9
 72 171 72 171 72 215 c 2,10,-1
 72 809 l 2,11,12
 72 853 72 853 82.5 895 c 128,-1,13
 93 937 93 937 117.5 970 c 128,-1,14
 142 1003 142 1003 182.5 1023.5 c 128,-1,15
 223 1044 223 1044 283 1044 c 0,16,17
 320 1044 320 1044 348 1036 c 128,-1,18
 376 1028 376 1028 399 1014 c 1,19,-1
 338 1202 l 1,20,-1
 248 1171 l 1,21,22
 241 1161 241 1161 227 1161 c 0,23,24
 216 1161 216 1161 208.5 1169 c 128,-1,25
 201 1177 201 1177 201 1188 c 256,26,27
 201 1199 201 1199 208.5 1206.5 c 128,-1,28
 216 1214 216 1214 227 1214 c 0,29,30
 229 1214 229 1214 231.5 1213 c 128,-1,31
 234 1212 234 1212 238 1212 c 1,32,-1
 324 1241 l 1,33,-1
 270 1405 l 1,34,35
 258 1411 258 1411 258 1427 c 0,36,37
 258 1438 258 1438 266 1446 c 128,-1,38
 274 1454 274 1454 285 1454 c 256,39,40
 296 1454 296 1454 303.5 1446 c 128,-1,41
 311 1438 311 1438 311 1427 c 0,42,43
 311 1419 311 1419 309 1415 c 1,44,-1
 362 1255 l 1,45,-1
 449 1284 l 1,46,47
 458 1296 458 1296 471 1296 c 0,48,49
 482 1296 482 1296 490 1288.5 c 128,-1,50
 498 1281 498 1281 498 1270 c 256,51,52
 498 1259 498 1259 490 1251 c 128,-1,53
 482 1243 482 1243 471 1243 c 0,54,55
 463 1243 463 1243 459 1245 c 1,56,-1
 375 1217 l 1,57,-1
 475 920 l 2,58,59
 494 865 494 865 494 809 c 2,60,-1
 494 215 l 2,0,1
113 215 m 2,61,62
 113 179 113 179 121.5 144 c 128,-1,63
 130 109 130 109 149.5 81.5 c 128,-1,64
 169 54 169 54 202 37 c 128,-1,65
 235 20 235 20 283 20 c 0,66,67
 332 20 332 20 365 37 c 128,-1,68
 398 54 398 54 417.5 81.5 c 128,-1,69
 437 109 437 109 445 144 c 128,-1,70
 453 179 453 179 453 215 c 2,71,-1
 453 809 l 2,72,73
 453 844 453 844 445 879 c 128,-1,74
 437 914 437 914 417.5 941.5 c 128,-1,75
 398 969 398 969 365 986.5 c 128,-1,76
 332 1004 332 1004 283 1004 c 0,77,78
 235 1004 235 1004 202 986.5 c 128,-1,79
 169 969 169 969 149.5 941.5 c 128,-1,80
 130 914 130 914 121.5 879 c 128,-1,81
 113 844 113 844 113 809 c 2,82,-1
 113 215 l 2,61,62
EndSplineSet
EndChar

StartChar: oslash
Encoding: 248 248 153
Width: 596
Flags: W
HStem: -20 40<211.962 385.043> 1004 40<213.15 383.866>
VStem: -43 53<-65.7493 -39.0635> 87 41<252 912.944> 468 41<107.962 777> 584 53<1063 1089.75>
LayerCount: 2
Fore
SplineSet
509 215 m 2,0,1
 509 171 509 171 498.5 129 c 128,-1,2
 488 87 488 87 463 54 c 128,-1,3
 438 21 438 21 398 0.5 c 128,-1,4
 358 -20 358 -20 298 -20 c 256,5,6
 238 -20 238 -20 197.5 0.5 c 128,-1,7
 157 21 157 21 132 54 c 0,8,9
 110 84 110 84 99 122 c 1,10,-1
 8 -39 l 1,11,12
 10 -41 10 -41 10 -47 c 0,13,14
 10 -58 10 -58 2.5 -66 c 128,-1,15
 -5 -74 -5 -74 -16 -74 c 256,16,17
 -27 -74 -27 -74 -35 -66 c 128,-1,18
 -43 -58 -43 -58 -43 -47 c 0,19,20
 -43 -38 -43 -38 -38 -31 c 128,-1,21
 -33 -24 -33 -24 -25 -20 c 1,22,-1
 88 181 l 1,23,24
 87 198 87 198 87 215 c 2,25,-1
 87 809 l 2,26,27
 87 853 87 853 97.5 895 c 128,-1,28
 108 937 108 937 132.5 970 c 128,-1,29
 157 1003 157 1003 197.5 1023.5 c 128,-1,30
 238 1044 238 1044 298 1044 c 256,31,32
 358 1044 358 1044 398 1023.5 c 128,-1,33
 438 1003 438 1003 463 970 c 0,34,35
 484 941 484 941 495 906 c 1,36,-1
 584 1063 l 1,37,-1
 584 1071 l 2,38,39
 584 1082 584 1082 591.5 1090 c 128,-1,40
 599 1098 599 1098 610 1098 c 256,41,42
 621 1098 621 1098 629 1090 c 128,-1,43
 637 1082 637 1082 637 1071 c 0,44,45
 637 1062 637 1062 631.5 1055 c 128,-1,46
 626 1048 626 1048 618 1044 c 1,47,-1
 507 847 l 1,48,49
 509 828 509 828 509 809 c 2,50,-1
 509 215 l 2,0,1
136 144 m 0,51,52
 145 109 145 109 164.5 81.5 c 128,-1,53
 184 54 184 54 217 37 c 128,-1,54
 250 20 250 20 298 20 c 0,55,56
 347 20 347 20 380 37 c 128,-1,57
 413 54 413 54 432.5 81.5 c 128,-1,58
 452 109 452 109 460 144 c 128,-1,59
 468 179 468 179 468 215 c 2,60,-1
 468 777 l 1,61,-1
 130 177 l 1,62,63
 132 160 132 160 136 144 c 0,51,52
460 879 m 0,64,65
 452 914 452 914 432.5 941.5 c 128,-1,66
 413 969 413 969 380 986.5 c 128,-1,67
 347 1004 347 1004 298 1004 c 0,68,69
 250 1004 250 1004 217 986.5 c 128,-1,70
 184 969 184 969 164.5 941.5 c 128,-1,71
 145 914 145 914 136.5 879 c 128,-1,72
 128 844 128 844 128 809 c 2,73,-1
 128 252 l 1,74,-1
 465 851 l 1,75,76
 463 865 463 865 460 879 c 0,64,65
EndSplineSet
EndChar

StartChar: thorn
Encoding: 254 254 159
Width: 573
Flags: W
HStem: -20 40<209.517 380.236> 1004 40<213.923 379.742> 1434 20G<96.5 107.5>
VStem: 82 41<-421.749 66 112.65 905.199 958 1445.75> 463 41<108.812 915.038>
LayerCount: 2
Fore
SplineSet
123 -385 m 1,0,1
 129 -394 129 -394 129 -403 c 0,2,3
 129 -414 129 -414 121 -422 c 128,-1,4
 113 -430 113 -430 102 -430 c 256,5,6
 91 -430 91 -430 83.5 -422 c 128,-1,7
 76 -414 76 -414 76 -403 c 0,8,9
 76 -394 76 -394 82 -385 c 1,10,-1
 82 1409 l 1,11,12
 76 1418 76 1418 76 1427 c 0,13,14
 76 1438 76 1438 83.5 1446 c 128,-1,15
 91 1454 91 1454 102 1454 c 256,16,17
 113 1454 113 1454 121 1446 c 128,-1,18
 129 1438 129 1438 129 1427 c 0,19,20
 129 1418 129 1418 123 1409 c 1,21,-1
 123 958 l 1,22,23
 151 997 151 997 191 1020.5 c 128,-1,24
 231 1044 231 1044 293 1044 c 0,25,26
 354 1044 354 1044 394.5 1023.5 c 128,-1,27
 435 1003 435 1003 459.5 970 c 128,-1,28
 484 937 484 937 494 895 c 128,-1,29
 504 853 504 853 504 809 c 2,30,-1
 504 215 l 2,31,32
 504 171 504 171 494 129 c 128,-1,33
 484 87 484 87 459.5 54 c 128,-1,34
 435 21 435 21 394.5 0.5 c 128,-1,35
 354 -20 354 -20 293 -20 c 0,36,37
 231 -20 231 -20 191 3.5 c 128,-1,38
 151 27 151 27 123 66 c 1,39,-1
 123 -385 l 1,0,1
123 215 m 2,40,41
 123 181 123 181 131.5 146.5 c 128,-1,42
 140 112 140 112 160 84 c 128,-1,43
 180 56 180 56 212.5 38 c 128,-1,44
 245 20 245 20 293 20 c 0,45,46
 343 20 343 20 375.5 37 c 128,-1,47
 408 54 408 54 427.5 82 c 128,-1,48
 447 110 447 110 455 145 c 128,-1,49
 463 180 463 180 463 215 c 2,50,-1
 463 809 l 2,51,52
 463 844 463 844 455 879 c 128,-1,53
 447 914 447 914 427.5 941.5 c 128,-1,54
 408 969 408 969 375.5 986.5 c 128,-1,55
 343 1004 343 1004 293 1004 c 0,56,57
 250 1004 250 1004 218 986.5 c 128,-1,58
 186 969 186 969 165 941.5 c 128,-1,59
 144 914 144 914 133.5 879 c 128,-1,60
 123 844 123 844 123 809 c 2,61,-1
 123 215 l 2,40,41
EndSplineSet
EndChar

StartChar: dotlessi
Encoding: 305 305 161
Width: 215
Flags: W
HStem: -20 21G<103.5 114.5> -20 21G<103.5 114.5> 1024 20G<103.5 114.5>
VStem: 82 53<-12.2648 1036.26>
LayerCount: 2
Fore
SplineSet
129 23 m 1,0,1
 135 15 135 15 135 6 c 0,2,3
 135 -5 135 -5 127.5 -12.5 c 128,-1,4
 120 -20 120 -20 109 -20 c 256,5,6
 98 -20 98 -20 90 -12.5 c 128,-1,7
 82 -5 82 -5 82 6 c 0,8,9
 82 15 82 15 88 23 c 1,10,-1
 88 999 l 1,11,12
 82 1009 82 1009 82 1018 c 0,13,14
 82 1029 82 1029 90 1036.5 c 128,-1,15
 98 1044 98 1044 109 1044 c 256,16,17
 120 1044 120 1044 127.5 1036.5 c 128,-1,18
 135 1029 135 1029 135 1018 c 0,19,20
 135 1009 135 1009 129 999 c 1,21,-1
 129 23 l 1,0,1
EndSplineSet
EndChar

StartChar: circumflex
Encoding: 710 710 164
Width: 643
Flags: W
HStem: 1167 287
VStem: 61 54<1167 1194> 528 54<1167 1194>
LayerCount: 2
Fore
SplineSet
557 1221 m 1,0,1
 566 1219 566 1219 574 1211 c 128,-1,2
 582 1203 582 1203 582 1194 c 0,3,4
 582 1183 582 1183 574 1175 c 128,-1,5
 566 1167 566 1167 555 1167 c 256,6,7
 544 1167 544 1167 536 1175 c 128,-1,8
 528 1183 528 1183 528 1194 c 1,9,-1
 322 1401 l 1,10,-1
 115 1194 l 1,11,12
 115 1183 115 1183 107 1175 c 128,-1,13
 99 1167 99 1167 88 1167 c 256,14,15
 77 1167 77 1167 69 1175 c 128,-1,16
 61 1183 61 1183 61 1194 c 0,17,18
 61 1203 61 1203 68 1211 c 128,-1,19
 75 1219 75 1219 86 1221 c 1,20,-1
 295 1430 l 1,21,22
 295 1439 295 1439 303 1446.5 c 128,-1,23
 311 1454 311 1454 322 1454 c 0,24,25
 331 1454 331 1454 338.5 1446.5 c 128,-1,26
 346 1439 346 1439 348 1430 c 1,27,-1
 557 1221 l 1,0,1
EndSplineSet
EndChar

StartChar: ring
Encoding: 730 730 165
Width: 446
Flags: W
HStem: 1167 41<165.609 280.548> 1413 41<165.609 280.599>
VStem: 96 41<1237.22 1383.88> 309 41<1237.22 1383.88>
LayerCount: 2
Fore
SplineSet
96 1317 m 2,0,1
 96 1341 96 1341 102.5 1365.5 c 128,-1,2
 109 1390 109 1390 124 1409.5 c 128,-1,3
 139 1429 139 1429 163.5 1441.5 c 128,-1,4
 188 1454 188 1454 223 1454 c 0,5,6
 260 1454 260 1454 284.5 1441.5 c 128,-1,7
 309 1429 309 1429 323.5 1409.5 c 128,-1,8
 338 1390 338 1390 344 1365.5 c 128,-1,9
 350 1341 350 1341 350 1307 c 0,10,11
 350 1281 350 1281 344 1255.5 c 128,-1,12
 338 1230 338 1230 323.5 1210.5 c 128,-1,13
 309 1191 309 1191 284.5 1179 c 128,-1,14
 260 1167 260 1167 223 1167 c 0,15,16
 188 1167 188 1167 163.5 1179 c 128,-1,17
 139 1191 139 1191 124 1210.5 c 128,-1,18
 109 1230 109 1230 102.5 1255.5 c 128,-1,19
 96 1281 96 1281 96 1307 c 2,20,-1
 96 1317 l 2,0,1
264 1217 m 0,21,22
 281 1226 281 1226 291 1240 c 128,-1,23
 301 1254 301 1254 305 1271.5 c 128,-1,24
 309 1289 309 1289 309 1307 c 0,25,26
 309 1333 309 1333 305 1350 c 128,-1,27
 301 1367 301 1367 291 1381 c 128,-1,28
 281 1395 281 1395 264.5 1404 c 128,-1,29
 248 1413 248 1413 223 1413 c 256,30,31
 198 1413 198 1413 181.5 1404 c 128,-1,32
 165 1395 165 1395 155 1381 c 128,-1,33
 145 1367 145 1367 141 1350 c 128,-1,34
 137 1333 137 1333 137 1307 c 0,35,36
 137 1289 137 1289 141 1271.5 c 128,-1,37
 145 1254 145 1254 155 1240 c 128,-1,38
 165 1226 165 1226 181.5 1217 c 128,-1,39
 198 1208 198 1208 223 1208 c 256,40,41
 248 1208 248 1208 264 1217 c 0,21,22
EndSplineSet
EndChar

StartChar: tilde
Encoding: 732 732 166
Width: 602
Flags: W
HStem: 1225 41<355.212 455.009> 1358 41<147.462 246.779>
VStem: 90 39<1232.74 1341.37> 473 39<1281.92 1390.75>
LayerCount: 2
Fore
SplineSet
512 1339 m 2,0,1
 512 1307 512 1307 503 1285 c 128,-1,2
 494 1263 494 1263 479 1249.5 c 128,-1,3
 464 1236 464 1236 443.5 1230.5 c 128,-1,4
 423 1225 423 1225 401 1225 c 0,5,6
 376 1225 376 1225 356 1235 c 128,-1,7
 336 1245 336 1245 320 1259.5 c 128,-1,8
 304 1274 304 1274 290 1291.5 c 128,-1,9
 276 1309 276 1309 262 1323.5 c 128,-1,10
 248 1338 248 1338 233 1348 c 128,-1,11
 218 1358 218 1358 199 1358 c 0,12,13
 171 1358 171 1358 150 1343 c 128,-1,14
 129 1328 129 1328 129 1284 c 2,15,-1
 129 1268 l 1,16,17
 135 1262 135 1262 135 1251 c 256,18,19
 135 1240 135 1240 127.5 1232.5 c 128,-1,20
 120 1225 120 1225 109 1225 c 256,21,22
 98 1225 98 1225 90 1232.5 c 128,-1,23
 82 1240 82 1240 82 1251 c 0,24,25
 82 1265 82 1265 90 1270 c 1,26,-1
 90 1284 l 2,27,28
 90 1318 90 1318 99.5 1340 c 128,-1,29
 109 1362 109 1362 125 1375 c 128,-1,30
 141 1388 141 1388 161 1393.5 c 128,-1,31
 181 1399 181 1399 201 1399 c 0,32,33
 226 1399 226 1399 245.5 1389 c 128,-1,34
 265 1379 265 1379 281 1364.5 c 128,-1,35
 297 1350 297 1350 311 1332.5 c 128,-1,36
 325 1315 325 1315 339.5 1300.5 c 128,-1,37
 354 1286 354 1286 369 1276 c 128,-1,38
 384 1266 384 1266 403 1266 c 0,39,40
 431 1266 431 1266 452 1280.5 c 128,-1,41
 473 1295 473 1295 473 1339 c 2,42,-1
 473 1354 l 1,43,44
 467 1363 467 1363 467 1372 c 0,45,46
 467 1383 467 1383 475 1391 c 128,-1,47
 483 1399 483 1399 494 1399 c 256,48,49
 505 1399 505 1399 512.5 1391 c 128,-1,50
 520 1383 520 1383 520 1372 c 0,51,52
 520 1365 520 1365 517.5 1360.5 c 128,-1,53
 515 1356 515 1356 512 1352 c 1,54,-1
 512 1339 l 2,0,1
EndSplineSet
EndChar

StartChar: endash
Encoding: 8211 8211 167
Width: 678
Flags: W
HStem: 569 54<45.002 630.998>
VStem: 45 586<575.125 615.969>
LayerCount: 2
Fore
SplineSet
586 616 m 1,0,1
 594 623 594 623 604 623 c 0,2,3
 615 623 615 623 623 615 c 128,-1,4
 631 607 631 607 631 596 c 256,5,6
 631 585 631 585 623 577 c 128,-1,7
 615 569 615 569 604 569 c 0,8,9
 595 569 595 569 586 575 c 1,10,-1
 88 575 l 1,11,12
 82 569 82 569 72 569 c 0,13,14
 61 569 61 569 53 577 c 128,-1,15
 45 585 45 585 45 596 c 256,16,17
 45 607 45 607 53 615 c 128,-1,18
 61 623 61 623 72 623 c 0,19,20
 82 623 82 623 88 616 c 1,21,-1
 586 616 l 1,0,1
EndSplineSet
EndChar

StartChar: emdash
Encoding: 8212 8212 168
Width: 844
Flags: W
HStem: 569 54<45.002 796.998>
LayerCount: 2
Fore
SplineSet
752 616 m 1,0,1
 760 623 760 623 770 623 c 0,2,3
 781 623 781 623 789 615 c 128,-1,4
 797 607 797 607 797 596 c 256,5,6
 797 585 797 585 789 577 c 128,-1,7
 781 569 781 569 770 569 c 0,8,9
 761 569 761 569 752 575 c 1,10,-1
 88 575 l 1,11,12
 82 569 82 569 72 569 c 0,13,14
 61 569 61 569 53 577 c 128,-1,15
 45 585 45 585 45 596 c 256,16,17
 45 607 45 607 53 615 c 128,-1,18
 61 623 61 623 72 623 c 0,19,20
 82 623 82 623 88 616 c 1,21,-1
 752 616 l 1,0,1
EndSplineSet
EndChar

StartChar: guilsinglleft
Encoding: 8249 8249 175
Width: 545
Flags: W
HStem: 838 53<436 454.749>
VStem: 410 53<120.735 139 866 883.265>
LayerCount: 2
Fore
SplineSet
438 166 m 1,0,1
 448 164 448 164 455.5 156.5 c 128,-1,2
 463 149 463 149 463 139 c 0,3,4
 463 128 463 128 455 120.5 c 128,-1,5
 447 113 447 113 436 113 c 256,6,7
 425 113 425 113 417.5 120.5 c 128,-1,8
 410 128 410 128 410 139 c 1,9,-1
 72 475 l 1,10,11
 61 475 61 475 53 483 c 128,-1,12
 45 491 45 491 45 502 c 0,13,14
 45 511 45 511 52 518.5 c 128,-1,15
 59 526 59 526 70 528 c 1,16,-1
 410 866 l 1,17,18
 410 876 410 876 417.5 883.5 c 128,-1,19
 425 891 425 891 436 891 c 256,20,21
 447 891 447 891 455 883 c 128,-1,22
 463 875 463 875 463 864 c 256,23,24
 463 853 463 853 455 845.5 c 128,-1,25
 447 838 447 838 436 838 c 1,26,-1
 98 502 l 1,27,-1
 438 166 l 1,0,1
EndSplineSet
EndChar

StartChar: fraction
Encoding: 8260 8260 177
Width: 473
Flags: W
HStem: -20 21G<19.5 30.5> -20 21G<19.5 30.5> 1434 20G<393.5 404.5>
VStem: -2 53<-12.2648 17.751> 373 53<1415.13 1445.75>
LayerCount: 2
Fore
SplineSet
47 18 m 1,0,1
 51 10 51 10 51 6 c 0,2,3
 51 -5 51 -5 43.5 -12.5 c 128,-1,4
 36 -20 36 -20 25 -20 c 256,5,6
 14 -20 14 -20 6 -12.5 c 128,-1,7
 -2 -5 -2 -5 -2 6 c 0,8,9
 -2 20 -2 20 10 29 c 1,10,-1
 375 1415 l 1,11,12
 373 1419 373 1419 373 1427 c 0,13,14
 373 1438 373 1438 380.5 1446 c 128,-1,15
 388 1454 388 1454 399 1454 c 256,16,17
 410 1454 410 1454 418 1446 c 128,-1,18
 426 1438 426 1438 426 1427 c 0,19,20
 426 1419 426 1419 422 1412.5 c 128,-1,21
 418 1406 418 1406 410 1403 c 1,22,-1
 47 18 l 1,0,1
EndSplineSet
EndChar

StartChar: foursuperior
Encoding: 8308 8308 178
Width: 342
Flags: W
HStem: 1192 41<74 197 238 290.749> 1434 20G<211.5 222.5>
VStem: 197 41<808.735 1192 1233 1374 1425 1453.99>
LayerCount: 2
Fore
SplineSet
238 844 m 1,0,1
 244 838 244 838 244 827 c 256,2,3
 244 816 244 816 236 808.5 c 128,-1,4
 228 801 228 801 217 801 c 256,5,6
 206 801 206 801 198 808.5 c 128,-1,7
 190 816 190 816 190 827 c 0,8,9
 190 837 190 837 197 844 c 1,10,-1
 197 1192 l 1,11,-1
 25 1192 l 1,12,-1
 25 1233 l 1,13,-1
 190 1425 l 1,14,-1
 190 1427 l 2,15,16
 190 1438 190 1438 198 1446 c 128,-1,17
 206 1454 206 1454 217 1454 c 256,18,19
 228 1454 228 1454 236 1446 c 128,-1,20
 244 1438 244 1438 244 1427 c 0,21,22
 244 1418 244 1418 238 1409 c 1,23,-1
 238 1233 l 1,24,-1
 254 1233 l 1,25,26
 263 1239 263 1239 272 1239 c 0,27,28
 283 1239 283 1239 291 1231 c 128,-1,29
 299 1223 299 1223 299 1212 c 256,30,31
 299 1201 299 1201 291 1193.5 c 128,-1,32
 283 1186 283 1186 272 1186 c 0,33,34
 263 1186 263 1186 254 1192 c 1,35,-1
 238 1192 l 1,36,-1
 238 844 l 1,0,1
197 1233 m 1,37,-1
 197 1374 l 1,38,-1
 74 1233 l 1,39,-1
 197 1233 l 1,37,-1
EndSplineSet
EndChar

StartChar: Euro
Encoding: 8364 8364 179
Width: 702
Flags: W
HStem: -20 40<319.94 501.472> 799 41<65.2507 197 238 536.749> 983 41<65.2507 197 238 536.749> 1413 41<322.306 498.155>
VStem: 197 41<104.814 799 840 983 1024 1323.94> 576 53<188.125 225.265 1202.25 1236.81>
LayerCount: 2
Fore
SplineSet
500 840 m 1,0,1
 509 846 509 846 518 846 c 0,2,3
 529 846 529 846 537 838 c 128,-1,4
 545 830 545 830 545 819 c 256,5,6
 545 808 545 808 537 800.5 c 128,-1,7
 529 793 529 793 518 793 c 0,8,9
 509 793 509 793 500 799 c 1,10,-1
 238 799 l 1,11,-1
 238 207 l 2,12,13
 238 171 238 171 246.5 137.5 c 128,-1,14
 255 104 255 104 275 77.5 c 128,-1,15
 295 51 295 51 328 35.5 c 128,-1,16
 361 20 361 20 410 20 c 0,17,18
 456 20 456 20 488 33.5 c 128,-1,19
 520 47 520 47 540.5 70 c 128,-1,20
 561 93 561 93 570.5 123.5 c 128,-1,21
 580 154 580 154 582 188 c 1,22,23
 579 192 579 192 577.5 197 c 128,-1,24
 576 202 576 202 576 207 c 0,25,26
 576 218 576 218 583.5 225.5 c 128,-1,27
 591 233 591 233 602 233 c 256,28,29
 613 233 613 233 621 225.5 c 128,-1,30
 629 218 629 218 629 207 c 0,31,32
 629 202 629 202 627.5 197 c 128,-1,33
 626 192 626 192 623 188 c 1,34,35
 621 147 621 147 608.5 109 c 128,-1,36
 596 71 596 71 571 42.5 c 128,-1,37
 546 14 546 14 506.5 -3 c 128,-1,38
 467 -20 467 -20 410 -20 c 0,39,40
 349 -20 349 -20 308 -1 c 128,-1,41
 267 18 267 18 242.5 49.5 c 128,-1,42
 218 81 218 81 207.5 122 c 128,-1,43
 197 163 197 163 197 207 c 2,44,-1
 197 799 l 1,45,-1
 100 799 l 1,46,47
 94 793 94 793 84 793 c 0,48,49
 73 793 73 793 65 800.5 c 128,-1,50
 57 808 57 808 57 819 c 256,51,52
 57 830 57 830 65 838 c 128,-1,53
 73 846 73 846 84 846 c 0,54,55
 94 846 94 846 100 840 c 1,56,-1
 197 840 l 1,57,-1
 197 983 l 1,58,-1
 100 983 l 1,59,60
 94 977 94 977 84 977 c 0,61,62
 73 977 73 977 65 985 c 128,-1,63
 57 993 57 993 57 1004 c 256,64,65
 57 1015 57 1015 65 1022.5 c 128,-1,66
 73 1030 73 1030 84 1030 c 0,67,68
 94 1030 94 1030 100 1024 c 1,69,-1
 197 1024 l 1,70,-1
 197 1221 l 2,71,72
 197 1264 197 1264 207.5 1306 c 128,-1,73
 218 1348 218 1348 242.5 1381 c 128,-1,74
 267 1414 267 1414 308 1434 c 128,-1,75
 349 1454 349 1454 410 1454 c 0,76,77
 467 1454 467 1454 506.5 1436 c 128,-1,78
 546 1418 546 1418 571 1388 c 128,-1,79
 596 1358 596 1358 608.5 1319.5 c 128,-1,80
 621 1281 621 1281 623 1239 c 1,81,82
 626 1236 626 1236 627.5 1231 c 128,-1,83
 629 1226 629 1226 629 1221 c 0,84,85
 629 1210 629 1210 621 1202 c 128,-1,86
 613 1194 613 1194 602 1194 c 256,87,88
 591 1194 591 1194 583.5 1202 c 128,-1,89
 576 1210 576 1210 576 1221 c 0,90,91
 576 1231 576 1231 582 1237 c 1,92,93
 580 1270 580 1270 570.5 1301.5 c 128,-1,94
 561 1333 561 1333 540.5 1358 c 128,-1,95
 520 1383 520 1383 488 1398 c 128,-1,96
 456 1413 456 1413 410 1413 c 0,97,98
 361 1413 361 1413 328 1396 c 128,-1,99
 295 1379 295 1379 275 1352 c 128,-1,100
 255 1325 255 1325 246.5 1290.5 c 128,-1,101
 238 1256 238 1256 238 1221 c 2,102,-1
 238 1024 l 1,103,-1
 500 1024 l 1,104,105
 509 1030 509 1030 518 1030 c 0,106,107
 529 1030 529 1030 537 1022.5 c 128,-1,108
 545 1015 545 1015 545 1004 c 256,109,110
 545 993 545 993 537 985 c 128,-1,111
 529 977 529 977 518 977 c 0,112,113
 509 977 509 977 500 983 c 1,114,-1
 238 983 l 1,115,-1
 238 840 l 1,116,-1
 500 840 l 1,0,1
EndSplineSet
EndChar

StartChar: currency
Encoding: 164 164 184
Width: 702
Flags: W
HStem: 430 41<291.654 412.285> 444 54<77.7352 96 606 632.998> 991 53<77.7352 96 606 624.749> 1018 41<291.654 412.285>
VStem: 219 41<503.052 563 618 870 926 985.688> 442 41<501.268 562.219 618 870 926.75 987.732> 580 53<451.22 469 1020 1036.26>
LayerCount: 2
Fore
SplineSet
606 498 m 1,0,1
 617 498 617 498 625 490 c 128,-1,2
 633 482 633 482 633 471 c 256,3,4
 633 460 633 460 625 452 c 128,-1,5
 617 444 617 444 606 444 c 256,6,7
 595 444 595 444 587.5 451 c 128,-1,8
 580 458 580 458 580 469 c 1,9,-1
 483 563 l 1,10,11
 481 538 481 538 473.5 514 c 128,-1,12
 466 490 466 490 450.5 471.5 c 128,-1,13
 435 453 435 453 410.5 441.5 c 128,-1,14
 386 430 386 430 352 430 c 0,15,16
 317 430 317 430 292 441.5 c 128,-1,17
 267 453 267 453 251 471.5 c 128,-1,18
 235 490 235 490 227.5 514 c 128,-1,19
 220 538 220 538 219 563 c 1,20,-1
 123 469 l 1,21,22
 121 458 121 458 113.5 451 c 128,-1,23
 106 444 106 444 96 444 c 0,24,25
 85 444 85 444 77.5 452 c 128,-1,26
 70 460 70 460 70 471 c 256,27,28
 70 482 70 482 77.5 490 c 128,-1,29
 85 498 85 498 96 498 c 1,30,-1
 219 618 l 1,31,-1
 219 870 l 1,32,-1
 96 991 l 1,33,34
 85 991 85 991 77.5 999 c 128,-1,35
 70 1007 70 1007 70 1018 c 256,36,37
 70 1029 70 1029 77.5 1036.5 c 128,-1,38
 85 1044 85 1044 96 1044 c 0,39,40
 106 1044 106 1044 113.5 1036.5 c 128,-1,41
 121 1029 121 1029 123 1020 c 1,42,-1
 219 926 l 1,43,44
 220 950 220 950 227.5 974 c 128,-1,45
 235 998 235 998 251 1017 c 128,-1,46
 267 1036 267 1036 292 1047.5 c 128,-1,47
 317 1059 317 1059 352 1059 c 0,48,49
 386 1059 386 1059 410.5 1047.5 c 128,-1,50
 435 1036 435 1036 450.5 1017 c 128,-1,51
 466 998 466 998 473.5 974 c 128,-1,52
 481 950 481 950 483 926 c 1,53,-1
 580 1020 l 1,54,55
 580 1029 580 1029 587.5 1036.5 c 128,-1,56
 595 1044 595 1044 606 1044 c 256,57,58
 617 1044 617 1044 625 1036.5 c 128,-1,59
 633 1029 633 1029 633 1018 c 256,60,61
 633 1007 633 1007 625 999 c 128,-1,62
 617 991 617 991 606 991 c 1,63,-1
 483 870 l 1,64,-1
 483 618 l 1,65,-1
 606 498 l 1,0,1
260 573 m 2,66,67
 260 555 260 555 264.5 536.5 c 128,-1,68
 269 518 269 518 280 503.5 c 128,-1,69
 291 489 291 489 308.5 480 c 128,-1,70
 326 471 326 471 352 471 c 256,71,72
 378 471 378 471 395.5 480 c 128,-1,73
 413 489 413 489 423.5 503.5 c 128,-1,74
 434 518 434 518 438 536.5 c 128,-1,75
 442 555 442 555 442 573 c 2,76,-1
 442 915 l 2,77,78
 442 934 442 934 438 952.5 c 128,-1,79
 434 971 434 971 423.5 985.5 c 128,-1,80
 413 1000 413 1000 395.5 1009 c 128,-1,81
 378 1018 378 1018 352 1018 c 256,82,83
 326 1018 326 1018 308.5 1009 c 128,-1,84
 291 1000 291 1000 280 985.5 c 128,-1,85
 269 971 269 971 264.5 952.5 c 128,-1,86
 260 934 260 934 260 915 c 2,87,-1
 260 573 l 2,66,67
EndSplineSet
EndChar

StartChar: mu
Encoding: 181 181 185
AltUni2: 0003bc.ffffffff.0
Width: 598
Flags: W
HStem: -430 53<207.862 333.749> -20 40<218.842 386.565> -20 21G<492.5 503.5> 1024 20G<111.5 122.5 492.5 503.5>
VStem: 96 41<-290.486 59 106.484 1036.26> 471 53<-12.2648 66 96.4375 1036.26>
LayerCount: 2
Fore
SplineSet
518 23 m 1,0,1
 524 15 524 15 524 6 c 0,2,3
 524 -5 524 -5 516.5 -12.5 c 128,-1,4
 509 -20 509 -20 498 -20 c 256,5,6
 487 -20 487 -20 479 -12.5 c 128,-1,7
 471 -5 471 -5 471 6 c 0,8,9
 471 15 471 15 477 23 c 1,10,-1
 477 66 l 1,11,12
 449 27 449 27 409 3.5 c 128,-1,13
 369 -20 369 -20 307 -20 c 0,14,15
 244 -20 244 -20 202 2 c 128,-1,16
 160 24 160 24 137 59 c 1,17,-1
 137 -188 l 1,18,19
 138 -223 138 -223 146 -257 c 128,-1,20
 154 -291 154 -291 172.5 -318 c 128,-1,21
 191 -345 191 -345 221.5 -363 c 128,-1,22
 252 -381 252 -381 297 -383 c 1,23,24
 306 -377 306 -377 315 -377 c 0,25,26
 326 -377 326 -377 334 -384.5 c 128,-1,27
 342 -392 342 -392 342 -403 c 256,28,29
 342 -414 342 -414 334 -422 c 128,-1,30
 326 -430 326 -430 315 -430 c 0,31,32
 306 -430 306 -430 297 -424 c 1,33,34
 240 -422 240 -422 201.5 -400.5 c 128,-1,35
 163 -379 163 -379 139.5 -346 c 128,-1,36
 116 -313 116 -313 106 -271.5 c 128,-1,37
 96 -230 96 -230 96 -188 c 2,38,-1
 96 999 l 1,39,40
 90 1009 90 1009 90 1018 c 0,41,42
 90 1029 90 1029 98 1036.5 c 128,-1,43
 106 1044 106 1044 117 1044 c 256,44,45
 128 1044 128 1044 135.5 1036.5 c 128,-1,46
 143 1029 143 1029 143 1018 c 0,47,48
 143 1009 143 1009 137 999 c 1,49,-1
 137 201 l 1,50,51
 138 167 138 167 147 134.5 c 128,-1,52
 156 102 156 102 175.5 76.5 c 128,-1,53
 195 51 195 51 227 35.5 c 128,-1,54
 259 20 259 20 307 20 c 0,55,56
 350 20 350 20 382 37 c 128,-1,57
 414 54 414 54 435 82 c 128,-1,58
 456 110 456 110 466.5 145 c 128,-1,59
 477 180 477 180 477 215 c 2,60,-1
 477 999 l 1,61,62
 471 1009 471 1009 471 1018 c 0,63,64
 471 1029 471 1029 479 1036.5 c 128,-1,65
 487 1044 487 1044 498 1044 c 256,66,67
 509 1044 509 1044 516.5 1036.5 c 128,-1,68
 524 1029 524 1029 524 1018 c 0,69,70
 524 1009 524 1009 518 999 c 1,71,-1
 518 23 l 1,0,1
EndSplineSet
EndChar

StartChar: twosuperior
Encoding: 178 178 186
Width: 369
Flags: W
HStem: 836 41<119 294.992> 1413 41<133.134 236.468>
VStem: 63 54<1288 1328.81> 80 39<877 1050.62 1313.34 1397.32> 256 41<1195.54 1386.18>
LayerCount: 2
Fore
SplineSet
250 877 m 1,0,1
 259 883 259 883 268 883 c 0,2,3
 279 883 279 883 287 875 c 128,-1,4
 295 867 295 867 295 856 c 256,5,6
 295 845 295 845 287 837 c 128,-1,7
 279 829 279 829 268 829 c 0,8,9
 258 829 258 829 250 836 c 1,10,-1
 80 836 l 1,11,-1
 80 1006 l 2,12,13
 80 1030 80 1030 91 1052 c 128,-1,14
 102 1074 102 1074 121 1090 c 2,15,-1
 223 1182 l 2,16,17
 237 1194 237 1194 246.5 1212.5 c 128,-1,18
 256 1231 256 1231 256 1257 c 2,19,-1
 256 1319 l 2,20,21
 256 1361 256 1361 240.5 1387 c 128,-1,22
 225 1413 225 1413 186 1413 c 0,23,24
 165 1413 165 1413 151 1406 c 128,-1,25
 137 1399 137 1399 128.5 1387 c 128,-1,26
 120 1375 120 1375 116 1360 c 128,-1,27
 112 1345 112 1345 111 1329 c 1,28,29
 117 1323 117 1323 117 1313 c 256,30,31
 117 1303 117 1303 108 1295.5 c 128,-1,32
 99 1288 99 1288 90 1288 c 0,33,34
 79 1288 79 1288 71 1295.5 c 128,-1,35
 63 1303 63 1303 63 1313 c 0,36,37
 63 1324 63 1324 70 1331 c 1,38,39
 71 1349 71 1349 77.5 1370 c 128,-1,40
 84 1391 84 1391 97.5 1410 c 128,-1,41
 111 1429 111 1429 132.5 1441.5 c 128,-1,42
 154 1454 154 1454 186 1454 c 0,43,44
 217 1454 217 1454 238 1443.5 c 128,-1,45
 259 1433 259 1433 272 1415 c 128,-1,46
 285 1397 285 1397 291 1372 c 128,-1,47
 297 1347 297 1347 297 1319 c 2,48,-1
 297 1247 l 2,49,50
 297 1190 297 1190 250 1149 c 2,51,-1
 145 1057 l 2,52,53
 130 1044 130 1044 124.5 1027 c 128,-1,54
 119 1010 119 1010 119 985 c 2,55,-1
 119 877 l 1,56,-1
 250 877 l 1,0,1
EndSplineSet
EndChar

StartChar: threesuperior
Encoding: 179 179 187
Width: 406
Flags: W
HStem: 825 41<136.565 257.343> 1212 54<161.735 275.073> 1413 41<137.514 261.526>
VStem: 61 54<892.814 990.998 1288.12 1390.31> 289 41<899.023 1202.44 1273.78 1386.31>
LayerCount: 2
Fore
SplineSet
330 969 m 2,0,1
 330 943 330 943 323 917 c 128,-1,2
 316 891 316 891 300 870.5 c 128,-1,3
 284 850 284 850 259 837.5 c 128,-1,4
 234 825 234 825 197 825 c 0,5,6
 161 825 161 825 136.5 837 c 128,-1,7
 112 849 112 849 97.5 867 c 128,-1,8
 83 885 83 885 76 906.5 c 128,-1,9
 69 928 69 928 68 948 c 1,10,11
 64 951 64 951 62.5 956.5 c 128,-1,12
 61 962 61 962 61 967 c 0,13,14
 61 976 61 976 69 983.5 c 128,-1,15
 77 991 77 991 88 991 c 0,16,17
 97 991 97 991 106 984.5 c 128,-1,18
 115 978 115 978 115 967 c 256,19,20
 115 956 115 956 109 950 c 1,21,22
 110 918 110 918 131 892 c 128,-1,23
 152 866 152 866 197 866 c 0,24,25
 223 866 223 866 240.5 875 c 128,-1,26
 258 884 258 884 269 899 c 128,-1,27
 280 914 280 914 284.5 932.5 c 128,-1,28
 289 951 289 951 289 969 c 2,29,-1
 289 1165 l 2,30,31
 289 1185 289 1185 275.5 1203 c 128,-1,32
 262 1221 262 1221 227 1221 c 2,33,-1
 199 1221 l 1,34,35
 196 1216 196 1216 190.5 1214 c 128,-1,36
 185 1212 185 1212 180 1212 c 0,37,38
 169 1212 169 1212 161.5 1220 c 128,-1,39
 154 1228 154 1228 154 1239 c 256,40,41
 154 1250 154 1250 161.5 1258 c 128,-1,42
 169 1266 169 1266 180 1266 c 0,43,44
 185 1266 185 1266 190.5 1263.5 c 128,-1,45
 196 1261 196 1261 199 1257 c 1,46,-1
 227 1257 l 2,47,48
 245 1257 245 1257 256.5 1264 c 128,-1,49
 268 1271 268 1271 275.5 1282 c 128,-1,50
 283 1293 283 1293 286 1307 c 128,-1,51
 289 1321 289 1321 289 1335 c 0,52,53
 289 1348 289 1348 284 1362 c 128,-1,54
 279 1376 279 1376 268 1387 c 128,-1,55
 257 1398 257 1398 240.5 1405.5 c 128,-1,56
 224 1413 224 1413 201 1413 c 0,57,58
 163 1413 163 1413 134.5 1391 c 128,-1,59
 106 1369 106 1369 106 1329 c 1,60,61
 113 1323 113 1323 113 1313 c 256,62,63
 113 1303 113 1303 104 1295.5 c 128,-1,64
 95 1288 95 1288 86 1288 c 0,65,66
 75 1288 75 1288 67 1295.5 c 128,-1,67
 59 1303 59 1303 59 1313 c 0,68,69
 59 1318 59 1318 60.5 1323 c 128,-1,70
 62 1328 62 1328 66 1331 c 1,71,72
 66 1384 66 1384 102.5 1419 c 128,-1,73
 139 1454 139 1454 201 1454 c 0,74,75
 258 1454 258 1454 294 1421.5 c 128,-1,76
 330 1389 330 1389 330 1335 c 0,77,78
 330 1298 330 1298 318.5 1276.5 c 128,-1,79
 307 1255 307 1255 287 1241 c 1,80,81
 315 1230 315 1230 322.5 1210 c 128,-1,82
 330 1190 330 1190 330 1165 c 2,83,-1
 330 969 l 2,0,1
EndSplineSet
EndChar

StartChar: onesuperior
Encoding: 185 185 188
Width: 322
Flags: W
HStem: 815 639<193.031 232.969>
VStem: 20 54<1251 1278> 186 54<815.002 1399>
LayerCount: 2
Fore
SplineSet
233 858 m 1,0,1
 240 852 240 852 240 842 c 0,2,3
 240 831 240 831 232 823 c 128,-1,4
 224 815 224 815 213 815 c 256,5,6
 202 815 202 815 194 823 c 128,-1,7
 186 831 186 831 186 842 c 0,8,9
 186 852 186 852 193 858 c 1,10,-1
 193 1399 l 1,11,-1
 74 1278 l 1,12,13
 74 1267 74 1267 66 1259 c 128,-1,14
 58 1251 58 1251 47 1251 c 256,15,16
 36 1251 36 1251 28 1259 c 128,-1,17
 20 1267 20 1267 20 1278 c 0,18,19
 20 1287 20 1287 27 1295 c 128,-1,20
 34 1303 34 1303 45 1305 c 1,21,-1
 193 1454 l 1,22,-1
 233 1454 l 1,23,-1
 233 858 l 1,0,1
EndSplineSet
EndChar

StartChar: breve
Encoding: 728 728 190
Width: 598
Flags: W
HStem: 1198 41<211.603 386.85> 1434 20G<103.5 114.5 483.5 494.5>
VStem: 82 53<1317.19 1445.75> 463 53<1411.25 1445.75>
LayerCount: 2
Fore
SplineSet
516 1427 m 0,0,1
 516 1417 516 1417 508 1409 c 1,2,3
 506 1368 506 1368 493.5 1330 c 128,-1,4
 481 1292 481 1292 456.5 1262.5 c 128,-1,5
 432 1233 432 1233 393 1215.5 c 128,-1,6
 354 1198 354 1198 299 1198 c 0,7,8
 243 1198 243 1198 204 1215.5 c 128,-1,9
 165 1233 165 1233 140.5 1262.5 c 128,-1,10
 116 1292 116 1292 103.5 1330 c 128,-1,11
 91 1368 91 1368 88 1409 c 1,12,13
 82 1415 82 1415 82 1427 c 0,14,15
 82 1438 82 1438 90 1446 c 128,-1,16
 98 1454 98 1454 109 1454 c 256,17,18
 120 1454 120 1454 127.5 1446 c 128,-1,19
 135 1438 135 1438 135 1427 c 0,20,21
 135 1417 135 1417 129 1411 c 1,22,23
 131 1378 131 1378 141 1347 c 128,-1,24
 151 1316 151 1316 171.5 1292 c 128,-1,25
 192 1268 192 1268 223 1253.5 c 128,-1,26
 254 1239 254 1239 299 1239 c 256,27,28
 344 1239 344 1239 375.5 1253.5 c 128,-1,29
 407 1268 407 1268 426.5 1292 c 128,-1,30
 446 1316 446 1316 455.5 1347 c 128,-1,31
 465 1378 465 1378 467 1411 c 1,32,33
 463 1419 463 1419 463 1427 c 0,34,35
 463 1438 463 1438 470.5 1446 c 128,-1,36
 478 1454 478 1454 489 1454 c 256,37,38
 500 1454 500 1454 508 1446 c 128,-1,39
 516 1438 516 1438 516 1427 c 0,0,1
EndSplineSet
EndChar

StartChar: dotaccent
Encoding: 729 729 191
Width: 279
Flags: W
HStem: 1266 92<106.377 173.622>
VStem: 94 92<1279.41 1344.08>
LayerCount: 2
Fore
SplineSet
174 1279 m 256,0,1
 162 1266 162 1266 139 1266 c 0,2,3
 118 1266 118 1266 106 1279 c 128,-1,4
 94 1292 94 1292 94 1311 c 0,5,6
 94 1331 94 1331 106 1344.5 c 128,-1,7
 118 1358 118 1358 139 1358 c 0,8,9
 162 1358 162 1358 174 1344.5 c 128,-1,10
 186 1331 186 1331 186 1311 c 0,11,12
 186 1292 186 1292 174 1279 c 256,0,1
EndSplineSet
EndChar

StartChar: hungarumlaut
Encoding: 733 733 192
Width: 676
Flags: W
HStem: 1401 53<342 360.749 567 585.749>
VStem: 82 53<1175.25 1194> 307 53<1175.25 1194 1430 1452.67> 541 53<1430 1453.99>
LayerCount: 2
Fore
SplineSet
135 1194 m 1,0,1
 135 1183 135 1183 127.5 1175 c 128,-1,2
 120 1167 120 1167 109 1167 c 256,3,4
 98 1167 98 1167 90 1175 c 128,-1,5
 82 1183 82 1183 82 1194 c 0,6,7
 82 1203 82 1203 88.5 1211 c 128,-1,8
 95 1219 95 1219 106 1221 c 1,9,-1
 315 1430 l 1,10,11
 315 1439 315 1439 323 1446.5 c 128,-1,12
 331 1454 331 1454 342 1454 c 256,13,14
 353 1454 353 1454 361 1446 c 128,-1,15
 369 1438 369 1438 369 1427 c 256,16,17
 369 1416 369 1416 361 1408.5 c 128,-1,18
 353 1401 353 1401 342 1401 c 1,19,-1
 135 1194 l 1,0,1
360 1194 m 1,20,21
 360 1183 360 1183 352.5 1175 c 128,-1,22
 345 1167 345 1167 334 1167 c 256,23,24
 323 1167 323 1167 315 1175 c 128,-1,25
 307 1183 307 1183 307 1194 c 0,26,27
 307 1203 307 1203 314 1211 c 128,-1,28
 321 1219 321 1219 332 1221 c 1,29,-1
 541 1430 l 1,30,31
 541 1439 541 1439 548.5 1446.5 c 128,-1,32
 556 1454 556 1454 567 1454 c 256,33,34
 578 1454 578 1454 586 1446 c 128,-1,35
 594 1438 594 1438 594 1427 c 256,36,37
 594 1416 594 1416 586 1408.5 c 128,-1,38
 578 1401 578 1401 567 1401 c 1,39,-1
 360 1194 l 1,20,21
EndSplineSet
EndChar

StartChar: ogonek
Encoding: 731 731 193
Width: 446
Flags: W
HStem: -387 45<163.156 299.508> -348 53<311.095 356.749>
VStem: 82 45<-304.167 -141.893>
LayerCount: 2
Fore
SplineSet
334 -348 m 1,0,1
 305 -367 305 -367 280.5 -377 c 128,-1,2
 256 -387 256 -387 225 -387 c 0,3,4
 197 -387 197 -387 171 -377 c 128,-1,5
 145 -367 145 -367 125.5 -348 c 128,-1,6
 106 -329 106 -329 94 -301 c 128,-1,7
 82 -273 82 -273 82 -238 c 0,8,9
 82 -174 82 -174 109 -129 c 128,-1,10
 136 -84 136 -84 180 -43 c 2,11,-1
 231 4 l 1,12,-1
 258 -27 l 1,13,-1
 207 -74 l 2,14,15
 188 -92 188 -92 173 -109 c 128,-1,16
 158 -126 158 -126 148 -144 c 128,-1,17
 138 -162 138 -162 132.5 -183 c 128,-1,18
 127 -204 127 -204 127 -231 c 0,19,20
 127 -278 127 -278 153.5 -310 c 128,-1,21
 180 -342 180 -342 225 -342 c 0,22,23
 250 -342 250 -342 269 -334.5 c 128,-1,24
 288 -327 288 -327 311 -313 c 1,25,26
 314 -305 314 -305 321.5 -300 c 128,-1,27
 329 -295 329 -295 338 -295 c 0,28,29
 349 -295 349 -295 357 -303 c 128,-1,30
 365 -311 365 -311 365 -322 c 256,31,32
 365 -333 365 -333 357 -340.5 c 128,-1,33
 349 -348 349 -348 338 -348 c 2,34,-1
 334 -348 l 1,0,1
EndSplineSet
EndChar

StartChar: caron
Encoding: 711 711 194
Width: 684
Flags: W
HStem: 1401 53<88.7042 106 578 601.992>
VStem: 82 53<1427 1445.75> 549 53<1427 1445.75>
LayerCount: 2
Fore
SplineSet
369 1192 m 1,0,1
 367 1181 367 1181 359 1174 c 128,-1,2
 351 1167 351 1167 342 1167 c 0,3,4
 331 1167 331 1167 323 1174 c 128,-1,5
 315 1181 315 1181 315 1192 c 1,6,-1
 106 1401 l 1,7,8
 95 1401 95 1401 88.5 1408.5 c 128,-1,9
 82 1416 82 1416 82 1427 c 256,10,11
 82 1438 82 1438 90 1446 c 128,-1,12
 98 1454 98 1454 109 1454 c 256,13,14
 120 1454 120 1454 127.5 1446 c 128,-1,15
 135 1438 135 1438 135 1427 c 1,16,-1
 342 1221 l 1,17,-1
 549 1427 l 1,18,19
 549 1438 549 1438 556.5 1446 c 128,-1,20
 564 1454 564 1454 575 1454 c 256,21,22
 586 1454 586 1454 594 1446 c 128,-1,23
 602 1438 602 1438 602 1427 c 256,24,25
 602 1416 602 1416 594.5 1408.5 c 128,-1,26
 587 1401 587 1401 578 1401 c 1,27,-1
 369 1192 l 1,0,1
EndSplineSet
EndChar

StartChar: foundryicon
Encoding: 65543 -1 199
Width: 2163
Flags: W
HStem: 283 67<360.221 437.401> 342 61<1915 1963.46> 367 51<1032.59 1086.73> 369 80<1343.83 1407.14> 383 51<241.466 324 868.594 944 1159.17 1182 1278 1307> 432 43<1917.81 1961.41> 459 37<834 883 1050.7 1087> 514 53<991 1064.38> 528 54<832.918 879.764 1510.7 1557.3 1917.1 1961.97> 584 63<197.988 259.721 1182 1206>
VStem: 104 78<440.933 571.283> 260 64<551 582> 340 78<526.288 578> 461 88<514 578> 582 127<373 434> 760 190<395.365 434 459.343 494.781> 883 67<496 519.233> 975 69<420.333 451.936> 1087 95<418 434> 1087 72<434 455 492 507.812> 1182 96<584 647> 1206 72<434 584> 1333 86<380.86 436.624> 1432 73<428.72 517.776> 1563 73<428.286 518.02> 1665 127<373 434> 1849 68<403 433.18 475.205 536.667> 1964 68<283 341.375 475.169 513.906>
LayerCount: 2
Fore
SplineSet
1964 283 m 1,0,-1
 1964 342 l 1,1,-1
 1870 342 l 1,2,3
 1859 350 1859 350 1854 362.5 c 128,-1,4
 1849 375 1849 375 1849 387 c 0,5,6
 1849 422 1849 422 1878 449 c 1,7,8
 1849 466 1849 466 1849 506 c 0,9,10
 1849 538 1849 538 1872 560 c 128,-1,11
 1895 582 1895 582 1937 582 c 0,12,13
 1956 582 1956 582 1972.5 576 c 128,-1,14
 1989 570 1989 570 2001 561 c 1,15,16
 2009 570 2009 570 2019 576 c 128,-1,17
 2029 582 2029 582 2040 582 c 0,18,19
 2048 582 2048 582 2052 581 c 128,-1,20
 2056 580 2056 580 2062 578 c 1,21,-1
 2062 514 l 1,22,-1
 2030 514 l 1,23,24
 2032 511 2032 511 2032 508 c 2,25,-1
 2032 504 l 2,26,27
 2032 476 2032 476 2009.5 454 c 128,-1,28
 1987 432 1987 432 1939 432 c 2,29,-1
 1925 432 l 2,30,31
 1920 432 1920 432 1915 434 c 1,32,-1
 1915 403 l 1,33,-1
 1952 403 l 2,34,35
 1990 403 1990 403 2011 385.5 c 128,-1,36
 2032 368 2032 368 2032 330 c 0,37,38
 2032 314 2032 314 2027 302.5 c 128,-1,39
 2022 291 2022 291 2019 283 c 1,40,-1
 1964 283 l 1,0,-1
502 358 m 2,41,42
 489 313 489 313 466 298 c 128,-1,43
 443 283 443 283 414 283 c 0,44,45
 397 283 397 283 382 287 c 128,-1,46
 367 291 367 291 360 297 c 1,47,-1
 360 350 l 1,48,-1
 395 350 l 2,49,50
 411 350 411 350 421.5 354.5 c 128,-1,51
 432 359 432 359 438 373 c 1,52,-1
 410 373 l 1,53,-1
 360 514 l 1,54,-1
 340 514 l 1,55,-1
 340 578 l 1,56,-1
 418 578 l 1,57,-1
 446 477 l 1,58,-1
 457 428 l 1,59,-1
 479 514 l 1,60,-1
 461 514 l 1,61,-1
 461 578 l 1,62,-1
 549 578 l 1,63,-1
 549 514 l 1,64,-1
 502 358 l 2,41,42
324 383 m 1,65,66
 287 367 287 367 240 367 c 0,67,68
 177 367 177 367 140.5 403 c 128,-1,69
 104 439 104 439 104 502 c 0,70,71
 104 568 104 568 139.5 607.5 c 128,-1,72
 175 647 175 647 244 647 c 0,73,74
 262 647 262 647 283 643 c 128,-1,75
 304 639 304 639 324 633 c 1,76,-1
 324 551 l 1,77,-1
 260 551 l 1,78,-1
 260 582 l 1,79,80
 255 584 255 584 251 584 c 2,81,-1
 242 584 l 2,82,83
 213 584 213 584 197.5 563 c 128,-1,84
 182 542 182 542 182 510 c 0,85,86
 182 434 182 434 258 434 c 2,87,-1
 324 434 l 1,88,-1
 324 383 l 1,65,66
1608 395 m 0,89,90
 1581 367 1581 367 1532 367 c 0,91,92
 1484 367 1484 367 1458 394.5 c 128,-1,93
 1432 422 1432 422 1432 473 c 256,94,95
 1432 524 1432 524 1459 553 c 128,-1,96
 1486 582 1486 582 1534 582 c 256,97,98
 1582 582 1582 582 1609 554 c 128,-1,99
 1636 526 1636 526 1636 475 c 256,100,101
 1636 424 1636 424 1608 395 c 0,89,90
1182 379 m 1,102,103
 1172 373 1172 373 1162 371 c 128,-1,104
 1152 369 1152 369 1141 369 c 0,105,106
 1107 369 1107 369 1096 383 c 1,107,108
 1085 374 1085 374 1071.5 370.5 c 128,-1,109
 1058 367 1058 367 1044 367 c 0,110,111
 1015 367 1015 367 995 383 c 128,-1,112
 975 399 975 399 975 430 c 0,113,114
 975 458 975 458 993 475 c 128,-1,115
 1011 492 1011 492 1055 492 c 2,116,-1
 1087 492 l 1,117,-1
 1087 494 l 2,118,119
 1087 502 1087 502 1077.5 508 c 128,-1,120
 1068 514 1068 514 1042 514 c 2,121,-1
 991 514 l 1,122,-1
 991 567 l 1,123,124
 1010 573 1010 573 1027.5 577.5 c 128,-1,125
 1045 582 1045 582 1065 582 c 0,126,127
 1113 582 1113 582 1136 561.5 c 128,-1,128
 1159 541 1159 541 1159 504 c 2,129,-1
 1159 434 l 1,130,-1
 1182 434 l 1,131,-1
 1182 379 l 1,102,103
944 381 m 1,132,133
 927 373 927 373 907 370 c 128,-1,134
 887 367 887 367 868 367 c 0,135,136
 814 367 814 367 787 394.5 c 128,-1,137
 760 422 760 422 760 471 c 0,138,139
 760 521 760 521 784.5 551.5 c 128,-1,140
 809 582 809 582 860 582 c 0,141,142
 902 582 902 582 926 557.5 c 128,-1,143
 950 533 950 533 950 496 c 0,144,145
 950 488 950 488 949 479 c 128,-1,146
 948 470 948 470 946 459 c 1,147,-1
 834 459 l 1,148,149
 839 445 839 445 852 439.5 c 128,-1,150
 865 434 865 434 885 434 c 2,151,-1
 944 434 l 1,152,-1
 944 381 l 1,132,133
1792 373 m 1,153,-1
 1665 373 l 1,154,-1
 1665 434 l 1,155,-1
 1683 434 l 1,156,-1
 1683 514 l 1,157,-1
 1661 514 l 1,158,-1
 1661 578 l 1,159,-1
 1731 578 l 1,160,-1
 1751 545 l 1,161,162
 1756 554 1756 554 1760.5 559.5 c 128,-1,163
 1765 565 1765 565 1772 571 c 0,164,165
 1785 582 1785 582 1802 582 c 0,166,167
 1808 582 1808 582 1815 581 c 128,-1,168
 1822 580 1822 580 1827 578 c 1,169,-1
 1827 514 l 1,170,-1
 1757 514 l 1,171,-1
 1757 434 l 1,172,-1
 1792 434 l 1,173,-1
 1792 373 l 1,153,-1
709 373 m 1,174,-1
 582 373 l 1,175,-1
 582 434 l 1,176,-1
 602 434 l 1,177,-1
 602 514 l 1,178,-1
 578 514 l 1,179,-1
 578 578 l 1,180,-1
 647 578 l 1,181,-1
 668 545 l 1,182,183
 673 554 673 554 677.5 559.5 c 128,-1,184
 682 565 682 565 688 571 c 0,185,186
 701 582 701 582 719 582 c 0,187,188
 727 582 727 582 732.5 581 c 128,-1,189
 738 580 738 580 743 578 c 1,190,-1
 743 514 l 1,191,-1
 674 514 l 1,192,-1
 674 434 l 1,193,-1
 709 434 l 1,194,-1
 709 373 l 1,174,-1
1307 377 m 1,195,196
 1287 369 1287 369 1262 369 c 0,197,198
 1206 369 1206 369 1206 426 c 2,199,-1
 1206 584 l 1,200,-1
 1182 584 l 1,201,-1
 1182 647 l 1,202,-1
 1278 647 l 1,203,-1
 1278 434 l 1,204,-1
 1307 434 l 1,205,-1
 1307 377 l 1,195,196
1419 408 m 0,206,207
 1419 392 1419 392 1407.5 380.5 c 128,-1,208
 1396 369 1396 369 1374 369 c 0,209,210
 1354 369 1354 369 1343.5 380.5 c 128,-1,211
 1333 392 1333 392 1333 408 c 0,212,213
 1333 425 1333 425 1343.5 437 c 128,-1,214
 1354 449 1354 449 1374 449 c 0,215,216
 1396 449 1396 449 1407.5 437 c 128,-1,217
 1419 425 1419 425 1419 408 c 0,206,207
1534 422 m 256,218,219
 1548 422 1548 422 1555.5 434 c 128,-1,220
 1563 446 1563 446 1563 475 c 0,221,222
 1563 501 1563 501 1555.5 512.5 c 128,-1,223
 1548 524 1548 524 1534 524 c 256,224,225
 1520 524 1520 524 1512.5 512.5 c 128,-1,226
 1505 501 1505 501 1505 475 c 0,227,228
 1505 446 1505 446 1512.5 434 c 128,-1,229
 1520 422 1520 422 1534 422 c 256,218,219
1942 475 m 0,230,231
 1962 475 1962 475 1962 506 c 256,232,233
 1962 537 1962 537 1942 537 c 0,234,235
 1917 537 1917 537 1917 506 c 256,236,237
 1917 475 1917 475 1942 475 c 0,230,231
1087 455 m 1,238,-1
 1071 455 l 2,239,240
 1057 455 1057 455 1050.5 449.5 c 128,-1,241
 1044 444 1044 444 1044 436 c 0,242,243
 1044 427 1044 427 1050 422.5 c 128,-1,244
 1056 418 1056 418 1065 418 c 0,245,246
 1071 418 1071 418 1076 418.5 c 128,-1,247
 1081 419 1081 419 1087 424 c 1,248,-1
 1087 455 l 1,238,-1
883 496 m 1,249,250
 883 511 883 511 877.5 519.5 c 128,-1,251
 872 528 872 528 858 528 c 0,252,253
 838 528 838 528 831 496 c 1,254,-1
 883 496 l 1,249,250
EndSplineSet
EndChar

StartChar: E
Encoding: 69 69 200
Width: 547
Flags: W
HStem: 0 41<127 503.749> 983 41<127 444.749> 1393 41<209.577 511.992>
VStem: 86 426<1.73523 40.875 1202 1413> 86 41<41 983 1024 1306.46>
LayerCount: 2
Fore
SplineSet
467 41 m 1,0,1
 476 47 476 47 485 47 c 0,2,3
 496 47 496 47 504 39 c 128,-1,4
 512 31 512 31 512 20 c 256,5,6
 512 9 512 9 504 1.5 c 128,-1,7
 496 -6 496 -6 485 -6 c 0,8,9
 476 -6 476 -6 467 0 c 1,10,-1
 86 0 l 1,11,-1
 86 1202 l 2,12,13
 86 1246 86 1246 96 1287.5 c 128,-1,14
 106 1329 106 1329 131 1361.5 c 128,-1,15
 156 1394 156 1394 197.5 1414 c 128,-1,16
 239 1434 239 1434 301 1434 c 2,17,-1
 467 1434 l 1,18,19
 476 1440 476 1440 485 1440 c 0,20,21
 496 1440 496 1440 504 1432 c 128,-1,22
 512 1424 512 1424 512 1413 c 256,23,24
 512 1402 512 1402 504 1394 c 128,-1,25
 496 1386 496 1386 485 1386 c 0,26,27
 477 1386 477 1386 467 1393 c 1,28,-1
 301 1393 l 2,29,30
 250 1393 250 1393 216.5 1376.5 c 128,-1,31
 183 1360 183 1360 163 1333 c 128,-1,32
 143 1306 143 1306 135 1271.5 c 128,-1,33
 127 1237 127 1237 127 1202 c 2,34,-1
 127 1024 l 1,35,-1
 408 1024 l 1,36,37
 417 1030 417 1030 426 1030 c 0,38,39
 437 1030 437 1030 445 1022.5 c 128,-1,40
 453 1015 453 1015 453 1004 c 256,41,42
 453 993 453 993 445 985 c 128,-1,43
 437 977 437 977 426 977 c 0,44,45
 417 977 417 977 408 983 c 1,46,-1
 127 983 l 1,47,-1
 127 41 l 1,48,-1
 467 41 l 1,0,1
EndSplineSet
EndChar

StartChar: F
Encoding: 70 70 201
Width: 524
Flags: W
HStem: -20 21G<100.5 111.5> -20 21G<100.5 111.5> 983 41<127 444.749> 1393 41<209.577 511.992>
VStem: 86 41<-12.2648 983 1024 1306.46>
LayerCount: 2
Fore
SplineSet
127 23 m 1,0,1
 133 15 133 15 133 6 c 0,2,3
 133 -5 133 -5 125 -12.5 c 128,-1,4
 117 -20 117 -20 106 -20 c 256,5,6
 95 -20 95 -20 87.5 -12.5 c 128,-1,7
 80 -5 80 -5 80 6 c 0,8,9
 80 15 80 15 86 23 c 1,10,-1
 86 1202 l 2,11,12
 86 1246 86 1246 96 1287.5 c 128,-1,13
 106 1329 106 1329 131 1361.5 c 128,-1,14
 156 1394 156 1394 197.5 1414 c 128,-1,15
 239 1434 239 1434 301 1434 c 2,16,-1
 467 1434 l 1,17,18
 476 1440 476 1440 485 1440 c 0,19,20
 496 1440 496 1440 504 1432 c 128,-1,21
 512 1424 512 1424 512 1413 c 256,22,23
 512 1402 512 1402 504 1394 c 128,-1,24
 496 1386 496 1386 485 1386 c 0,25,26
 477 1386 477 1386 467 1393 c 1,27,-1
 301 1393 l 2,28,29
 250 1393 250 1393 216.5 1376.5 c 128,-1,30
 183 1360 183 1360 163 1333 c 128,-1,31
 143 1306 143 1306 135 1271.5 c 128,-1,32
 127 1237 127 1237 127 1202 c 2,33,-1
 127 1024 l 1,34,-1
 408 1024 l 1,35,36
 417 1030 417 1030 426 1030 c 0,37,38
 437 1030 437 1030 445 1022.5 c 128,-1,39
 453 1015 453 1015 453 1004 c 256,40,41
 453 993 453 993 445 985 c 128,-1,42
 437 977 437 977 426 977 c 0,43,44
 417 977 417 977 408 983 c 1,45,-1
 127 983 l 1,46,-1
 127 23 l 1,0,1
EndSplineSet
EndChar

StartChar: H
Encoding: 72 72 202
Width: 602
Flags: W
HStem: -20 21G<103.5 114.5 488.5 499.5> -20 21G<103.5 114.5 488.5 499.5> 983 41<129 473> 1434 20G<103.5 114.5 488.5 499.5>
VStem: 82 53<-12.2648 983 1024 1445.75> 467 53<-12.2648 983 1024 1445.75>
LayerCount: 2
Fore
SplineSet
514 23 m 1,0,1
 520 15 520 15 520 6 c 0,2,3
 520 -5 520 -5 512.5 -12.5 c 128,-1,4
 505 -20 505 -20 494 -20 c 256,5,6
 483 -20 483 -20 475 -12.5 c 128,-1,7
 467 -5 467 -5 467 6 c 0,8,9
 467 15 467 15 473 23 c 1,10,-1
 473 983 l 1,11,-1
 129 983 l 1,12,-1
 129 23 l 1,13,14
 135 15 135 15 135 6 c 0,15,16
 135 -5 135 -5 127.5 -12.5 c 128,-1,17
 120 -20 120 -20 109 -20 c 256,18,19
 98 -20 98 -20 90 -12.5 c 128,-1,20
 82 -5 82 -5 82 6 c 0,21,22
 82 15 82 15 88 23 c 1,23,-1
 88 1409 l 1,24,25
 82 1418 82 1418 82 1427 c 0,26,27
 82 1438 82 1438 90 1446 c 128,-1,28
 98 1454 98 1454 109 1454 c 256,29,30
 120 1454 120 1454 127.5 1446 c 128,-1,31
 135 1438 135 1438 135 1427 c 0,32,33
 135 1418 135 1418 129 1409 c 1,34,-1
 129 1024 l 1,35,-1
 473 1024 l 1,36,-1
 473 1409 l 1,37,38
 467 1418 467 1418 467 1427 c 0,39,40
 467 1438 467 1438 475 1446 c 128,-1,41
 483 1454 483 1454 494 1454 c 256,42,43
 505 1454 505 1454 512.5 1446 c 128,-1,44
 520 1438 520 1438 520 1427 c 0,45,46
 520 1418 520 1418 514 1409 c 1,47,-1
 514 23 l 1,0,1
EndSplineSet
EndChar

StartChar: I
Encoding: 73 73 203
Width: 217
Flags: W
HStem: -20 21G<103.5 114.5> -20 21G<103.5 114.5> 1434 20G<103.5 114.5>
VStem: 82 53<-12.2648 1445.75>
LayerCount: 2
Fore
SplineSet
129 23 m 1,0,1
 135 15 135 15 135 6 c 0,2,3
 135 -5 135 -5 127.5 -12.5 c 128,-1,4
 120 -20 120 -20 109 -20 c 256,5,6
 98 -20 98 -20 90 -12.5 c 128,-1,7
 82 -5 82 -5 82 6 c 0,8,9
 82 15 82 15 88 23 c 1,10,-1
 88 1409 l 1,11,12
 82 1418 82 1418 82 1427 c 0,13,14
 82 1438 82 1438 90 1446 c 128,-1,15
 98 1454 98 1454 109 1454 c 256,16,17
 120 1454 120 1454 127.5 1446 c 128,-1,18
 135 1438 135 1438 135 1427 c 0,19,20
 135 1418 135 1418 129 1409 c 1,21,-1
 129 23 l 1,0,1
EndSplineSet
EndChar

StartChar: M
Encoding: 77 77 204
Width: 733
Flags: W
HStem: -20 21G<103.5 114.5 619.5 630.5> -20 21G<103.5 114.5 619.5 630.5> 1434 20G<103.5 114.5 619.5 630.5>
VStem: 82 53<-12.2648 1348 1419.06 1445.75> 598 53<-12.2648 1350 1419 1445.75>
LayerCount: 2
Fore
SplineSet
645 23 m 1,0,1
 651 15 651 15 651 6 c 0,2,3
 651 -5 651 -5 643.5 -12.5 c 128,-1,4
 636 -20 636 -20 625 -20 c 256,5,6
 614 -20 614 -20 606 -12.5 c 128,-1,7
 598 -5 598 -5 598 6 c 0,8,9
 598 15 598 15 604 23 c 1,10,-1
 604 1350 l 1,11,-1
 387 983 l 1,12,-1
 344 983 l 1,13,-1
 129 1348 l 1,14,-1
 129 23 l 1,15,16
 135 15 135 15 135 6 c 0,17,18
 135 -5 135 -5 127.5 -12.5 c 128,-1,19
 120 -20 120 -20 109 -20 c 256,20,21
 98 -20 98 -20 90 -12.5 c 128,-1,22
 82 -5 82 -5 82 6 c 0,23,24
 82 15 82 15 88 23 c 1,25,-1
 88 1409 l 1,26,27
 82 1418 82 1418 82 1427 c 0,28,29
 82 1438 82 1438 90 1446 c 128,-1,30
 98 1454 98 1454 109 1454 c 256,31,32
 120 1454 120 1454 127.5 1446 c 128,-1,33
 135 1438 135 1438 135 1427 c 0,34,35
 135 1421 135 1421 133 1419 c 1,36,-1
 367 1024 l 1,37,-1
 598 1419 l 1,38,-1
 598 1427 l 2,39,40
 598 1438 598 1438 606 1446 c 128,-1,41
 614 1454 614 1454 625 1454 c 256,42,43
 636 1454 636 1454 643.5 1446 c 128,-1,44
 651 1438 651 1438 651 1427 c 0,45,46
 651 1418 651 1418 645 1409 c 1,47,-1
 645 23 l 1,0,1
EndSplineSet
EndChar

StartChar: O
Encoding: 79 79 205
Width: 590
Flags: W
HStem: -20 40<204.94 385.431> 1413 41<207.306 383.093>
VStem: 82 41<104.814 1323.94> 467 41<104.814 1323.94>
LayerCount: 2
Fore
SplineSet
123 207 m 2,0,1
 123 171 123 171 131.5 137.5 c 128,-1,2
 140 104 140 104 160 77.5 c 128,-1,3
 180 51 180 51 213 35.5 c 128,-1,4
 246 20 246 20 295 20 c 256,5,6
 344 20 344 20 377 35.5 c 128,-1,7
 410 51 410 51 430 77.5 c 128,-1,8
 450 104 450 104 458.5 137.5 c 128,-1,9
 467 171 467 171 467 207 c 2,10,-1
 467 1221 l 2,11,12
 467 1256 467 1256 458.5 1290.5 c 128,-1,13
 450 1325 450 1325 430 1352 c 128,-1,14
 410 1379 410 1379 377 1396 c 128,-1,15
 344 1413 344 1413 295 1413 c 256,16,17
 246 1413 246 1413 213 1396 c 128,-1,18
 180 1379 180 1379 160 1352 c 128,-1,19
 140 1325 140 1325 131.5 1290.5 c 128,-1,20
 123 1256 123 1256 123 1221 c 2,21,-1
 123 207 l 2,0,1
508 207 m 2,22,23
 508 163 508 163 497 122 c 128,-1,24
 486 81 486 81 461 49.5 c 128,-1,25
 436 18 436 18 395 -1 c 128,-1,26
 354 -20 354 -20 295 -20 c 0,27,28
 234 -20 234 -20 193 -1 c 128,-1,29
 152 18 152 18 127.5 49.5 c 128,-1,30
 103 81 103 81 92.5 122 c 128,-1,31
 82 163 82 163 82 207 c 2,32,-1
 82 1221 l 2,33,34
 82 1264 82 1264 92.5 1306 c 128,-1,35
 103 1348 103 1348 127.5 1381 c 128,-1,36
 152 1414 152 1414 193 1434 c 128,-1,37
 234 1454 234 1454 295 1454 c 0,38,39
 354 1454 354 1454 395 1434 c 128,-1,40
 436 1414 436 1414 461 1381 c 128,-1,41
 486 1348 486 1348 497 1306 c 128,-1,42
 508 1264 508 1264 508 1221 c 2,43,-1
 508 207 l 2,22,23
EndSplineSet
EndChar

StartChar: P
Encoding: 80 80 206
Width: 573
Flags: W
HStem: -20 21G<103.5 114.5> -20 21G<103.5 114.5> 410 41<129 398.024> 1393 41<129 395.073>
VStem: 88 41<-12.2648 410 451 1393> 479 41<535.736 1302.69>
LayerCount: 2
Fore
SplineSet
129 23 m 1,0,1
 135 15 135 15 135 6 c 0,2,3
 135 -5 135 -5 127.5 -12.5 c 128,-1,4
 120 -20 120 -20 109 -20 c 256,5,6
 98 -20 98 -20 90 -12.5 c 128,-1,7
 82 -5 82 -5 82 6 c 0,8,9
 82 15 82 15 88 23 c 1,10,-1
 88 1434 l 1,11,-1
 307 1434 l 2,12,13
 368 1434 368 1434 408.5 1414 c 128,-1,14
 449 1394 449 1394 474 1361 c 128,-1,15
 499 1328 499 1328 509.5 1286 c 128,-1,16
 520 1244 520 1244 520 1200 c 2,17,-1
 520 637 l 2,18,19
 520 593 520 593 509.5 552 c 128,-1,20
 499 511 499 511 474 479.5 c 128,-1,21
 449 448 449 448 408.5 429 c 128,-1,22
 368 410 368 410 307 410 c 2,23,-1
 129 410 l 1,24,-1
 129 23 l 1,0,1
307 451 m 2,25,26
 356 451 356 451 389 466.5 c 128,-1,27
 422 482 422 482 442 508 c 128,-1,28
 462 534 462 534 470.5 567.5 c 128,-1,29
 479 601 479 601 479 637 c 2,30,-1
 479 1200 l 2,31,32
 479 1235 479 1235 470.5 1269.5 c 128,-1,33
 462 1304 462 1304 442 1331.5 c 128,-1,34
 422 1359 422 1359 389 1376 c 128,-1,35
 356 1393 356 1393 307 1393 c 2,36,-1
 129 1393 l 1,37,-1
 129 451 l 1,38,-1
 307 451 l 2,25,26
EndSplineSet
EndChar

StartChar: T
Encoding: 84 84 207
Width: 479
Flags: W
HStem: -20 21G<234.5 245.5> -20 21G<234.5 245.5> 1393 41<20.0078 219 260 458.992>
VStem: 213 53<-12.2648 1393>
LayerCount: 2
Fore
SplineSet
260 23 m 5,0,1
 266 15 266 15 266 6 c 4,2,3
 266 -5 266 -5 258.5 -12.5 c 132,-1,4
 251 -20 251 -20 240 -20 c 260,5,6
 229 -20 229 -20 221 -12.5 c 132,-1,7
 213 -5 213 -5 213 6 c 4,8,9
 213 15 213 15 219 23 c 5,10,-1
 219 1393 l 5,11,-1
 63 1393 l 5,12,13
 56 1386 56 1386 47 1386 c 4,14,15
 36 1386 36 1386 28 1394 c 132,-1,16
 20 1402 20 1402 20 1413 c 260,17,18
 20 1424 20 1424 28 1432 c 132,-1,19
 36 1440 36 1440 47 1440 c 4,20,21
 57 1440 57 1440 63 1434 c 5,22,-1
 414 1434 l 5,23,24
 423 1440 423 1440 432 1440 c 4,25,26
 443 1440 443 1440 451 1432 c 132,-1,27
 459 1424 459 1424 459 1413 c 260,28,29
 459 1402 459 1402 451 1394 c 132,-1,30
 443 1386 443 1386 432 1386 c 4,31,32
 424 1386 424 1386 414 1393 c 5,33,-1
 260 1393 l 5,34,-1
 260 23 l 5,0,1
EndSplineSet
EndChar

StartChar: X
Encoding: 88 88 208
Width: 512
Flags: W
HStem: -20 21G<29.5 40.5 473.5 484.5> -20 21G<29.5 40.5 473.5 484.5> 1434 20G<45.5 56.5 457.5 468.5>
VStem: 8 53<-12.2648 13.875> 25 53<1405.31 1445.75> 436 53<1417.06 1445.75> 453 53<-12.2648 26.9055>
LayerCount: 2
Fore
SplineSet
494 27 m 1,0,1
 500 24 500 24 503 18 c 128,-1,2
 506 12 506 12 506 6 c 0,3,4
 506 -5 506 -5 498 -12.5 c 128,-1,5
 490 -20 490 -20 479 -20 c 256,6,7
 468 -20 468 -20 460.5 -12.5 c 128,-1,8
 453 -5 453 -5 453 6 c 2,9,-1
 453 14 l 1,10,-1
 256 668 l 1,11,-1
 59 14 l 1,12,13
 61 10 61 10 61 6 c 0,14,15
 61 -5 61 -5 53.5 -12.5 c 128,-1,16
 46 -20 46 -20 35 -20 c 256,17,18
 24 -20 24 -20 16 -12.5 c 128,-1,19
 8 -5 8 -5 8 6 c 0,20,21
 8 20 8 20 18 27 c 1,22,-1
 233 741 l 1,23,-1
 35 1405 l 1,24,25
 25 1415 25 1415 25 1427 c 0,26,27
 25 1438 25 1438 32.5 1446 c 128,-1,28
 40 1454 40 1454 51 1454 c 256,29,30
 62 1454 62 1454 70 1446 c 128,-1,31
 78 1438 78 1438 78 1427 c 0,32,33
 78 1424 78 1424 77 1421.5 c 128,-1,34
 76 1419 76 1419 76 1417 c 2,35,-1
 256 815 l 1,36,-1
 438 1417 l 1,37,38
 436 1419 436 1419 436 1427 c 0,39,40
 436 1438 436 1438 444 1446 c 128,-1,41
 452 1454 452 1454 463 1454 c 256,42,43
 474 1454 474 1454 481.5 1446 c 128,-1,44
 489 1438 489 1438 489 1427 c 0,45,46
 489 1415 489 1415 479 1405 c 1,47,-1
 279 741 l 1,48,-1
 494 27 l 1,0,1
EndSplineSet
EndChar

StartChar: D
Encoding: 68 68 209
Width: 596
Flags: W
HStem: 0 41<129 389.031> 1393 41<129 389.031>
VStem: 88 41<41 1393> 473 41<128.514 1305.14>
LayerCount: 2
Fore
SplineSet
514 233 m 2,0,1
 514 189 514 189 503.5 147.5 c 128,-1,2
 493 106 493 106 468.5 73 c 128,-1,3
 444 40 444 40 402.5 20 c 128,-1,4
 361 0 361 0 299 0 c 2,5,-1
 88 0 l 1,6,-1
 88 1434 l 1,7,-1
 299 1434 l 2,8,9
 361 1434 361 1434 402.5 1414 c 128,-1,10
 444 1394 444 1394 468.5 1361 c 128,-1,11
 493 1328 493 1328 503.5 1286 c 128,-1,12
 514 1244 514 1244 514 1200 c 2,13,-1
 514 233 l 2,0,1
299 41 m 2,14,15
 350 41 350 41 383.5 58 c 128,-1,16
 417 75 417 75 437 102 c 128,-1,17
 457 129 457 129 465 163.5 c 128,-1,18
 473 198 473 198 473 233 c 2,19,-1
 473 1200 l 2,20,21
 473 1235 473 1235 465 1269.5 c 128,-1,22
 457 1304 457 1304 437 1331.5 c 128,-1,23
 417 1359 417 1359 383.5 1376 c 128,-1,24
 350 1393 350 1393 299 1393 c 2,25,-1
 129 1393 l 1,26,-1
 129 41 l 1,27,-1
 299 41 l 2,14,15
EndSplineSet
EndChar

StartChar: G
Encoding: 71 71 210
Width: 571
Flags: W
HStem: -20 40<204.94 385.431> 571 41<276.251 467> 1413 41<207.306 383.155>
VStem: 82 41<104.814 1323.94> 467 41<104.814 571 1202.25 1236.81>
LayerCount: 2
Fore
SplineSet
508 207 m 2,0,1
 508 163 508 163 497 122 c 128,-1,2
 486 81 486 81 461 49.5 c 128,-1,3
 436 18 436 18 395 -1 c 128,-1,4
 354 -20 354 -20 295 -20 c 0,5,6
 234 -20 234 -20 193 -1 c 128,-1,7
 152 18 152 18 127.5 49.5 c 128,-1,8
 103 81 103 81 92.5 122 c 128,-1,9
 82 163 82 163 82 207 c 2,10,-1
 82 1221 l 2,11,12
 82 1264 82 1264 92.5 1306 c 128,-1,13
 103 1348 103 1348 127.5 1381 c 128,-1,14
 152 1414 152 1414 193 1434 c 128,-1,15
 234 1454 234 1454 295 1454 c 0,16,17
 352 1454 352 1454 391.5 1436 c 128,-1,18
 431 1418 431 1418 456 1388 c 128,-1,19
 481 1358 481 1358 493.5 1319.5 c 128,-1,20
 506 1281 506 1281 508 1239 c 1,21,22
 511 1236 511 1236 512.5 1231 c 128,-1,23
 514 1226 514 1226 514 1221 c 0,24,25
 514 1210 514 1210 506 1202 c 128,-1,26
 498 1194 498 1194 487 1194 c 256,27,28
 476 1194 476 1194 468.5 1202 c 128,-1,29
 461 1210 461 1210 461 1221 c 0,30,31
 461 1231 461 1231 467 1237 c 1,32,33
 465 1270 465 1270 455.5 1301.5 c 128,-1,34
 446 1333 446 1333 425.5 1358 c 128,-1,35
 405 1383 405 1383 373 1398 c 128,-1,36
 341 1413 341 1413 295 1413 c 0,37,38
 246 1413 246 1413 213 1396 c 128,-1,39
 180 1379 180 1379 160 1352 c 128,-1,40
 140 1325 140 1325 131.5 1290.5 c 128,-1,41
 123 1256 123 1256 123 1221 c 2,42,-1
 123 207 l 2,43,44
 123 171 123 171 131.5 137.5 c 128,-1,45
 140 104 140 104 160 77.5 c 128,-1,46
 180 51 180 51 213 35.5 c 128,-1,47
 246 20 246 20 295 20 c 256,48,49
 344 20 344 20 377 35.5 c 128,-1,50
 410 51 410 51 430 77.5 c 128,-1,51
 450 104 450 104 458.5 137.5 c 128,-1,52
 467 171 467 171 467 207 c 2,53,-1
 467 571 l 1,54,-1
 311 571 l 1,55,56
 305 565 305 565 295 565 c 0,57,58
 284 565 284 565 276 573 c 128,-1,59
 268 581 268 581 268 592 c 256,60,61
 268 603 268 603 276 610.5 c 128,-1,62
 284 618 284 618 295 618 c 0,63,64
 305 618 305 618 311 612 c 1,65,-1
 508 612 l 1,66,-1
 508 207 l 2,0,1
EndSplineSet
EndChar

StartChar: J
Encoding: 74 74 211
Width: 522
Flags: W
HStem: -20 40<131.528 312.875> 1434 20G<411 421.5>
VStem: 4 53<93.9545 225.265> 395 41<104.814 1445.75>
LayerCount: 2
Fore
SplineSet
436 207 m 2,0,1
 436 163 436 163 425.5 122 c 128,-1,2
 415 81 415 81 390 49.5 c 128,-1,3
 365 18 365 18 324.5 -1 c 128,-1,4
 284 -20 284 -20 223 -20 c 0,5,6
 166 -20 166 -20 126.5 -3 c 128,-1,7
 87 14 87 14 62 42.5 c 128,-1,8
 37 71 37 71 24.5 109 c 128,-1,9
 12 147 12 147 10 188 c 1,10,11
 7 192 7 192 5.5 197 c 128,-1,12
 4 202 4 202 4 207 c 0,13,14
 4 218 4 218 12 225.5 c 128,-1,15
 20 233 20 233 31 233 c 256,16,17
 42 233 42 233 49.5 225.5 c 128,-1,18
 57 218 57 218 57 207 c 0,19,20
 57 202 57 202 55.5 197 c 128,-1,21
 54 192 54 192 51 188 c 1,22,23
 52 154 52 154 62 123.5 c 128,-1,24
 72 93 72 93 92.5 70 c 128,-1,25
 113 47 113 47 145 33.5 c 128,-1,26
 177 20 177 20 223 20 c 0,27,28
 272 20 272 20 305 35.5 c 128,-1,29
 338 51 338 51 358 77.5 c 128,-1,30
 378 104 378 104 386.5 137.5 c 128,-1,31
 395 171 395 171 395 207 c 2,32,-1
 395 1409 l 1,33,34
 392 1412 392 1412 390.5 1417 c 128,-1,35
 389 1422 389 1422 389 1427 c 0,36,37
 389 1438 389 1438 397.5 1446 c 128,-1,38
 406 1454 406 1454 416 1454 c 0,39,40
 427 1454 427 1454 434.5 1446 c 128,-1,41
 442 1438 442 1438 442 1427 c 0,42,43
 442 1422 442 1422 440.5 1417 c 128,-1,44
 439 1412 439 1412 436 1409 c 1,45,-1
 436 207 l 2,0,1
EndSplineSet
EndChar

StartChar: K
Encoding: 75 75 212
Width: 586
Flags: W
HStem: -20 21G<103.5 114.5 488.5 499.5> -20 21G<103.5 114.5 488.5 499.5> 985 39<180 386.375> 1434 20G<103.5 114.5 477.5 488.5>
VStem: 82 53<-12.2648 985 1024 1445.75> 457 53<480.188 925.678 1425 1445.75> 473 41<-12.2648 896.084>
LayerCount: 2
Fore
SplineSet
514 23 m 1,0,1
 520 15 520 15 520 6 c 0,2,3
 520 -5 520 -5 512.5 -12.5 c 128,-1,4
 505 -20 505 -20 494 -20 c 256,5,6
 483 -20 483 -20 475 -12.5 c 128,-1,7
 467 -5 467 -5 467 6 c 0,8,9
 467 15 467 15 473 23 c 1,10,-1
 473 793 l 2,11,12
 473 828 473 828 464.5 862.5 c 128,-1,13
 456 897 456 897 436 924 c 128,-1,14
 416 951 416 951 383 968 c 128,-1,15
 350 985 350 985 301 985 c 2,16,-1
 129 985 l 1,17,-1
 129 23 l 1,18,19
 135 15 135 15 135 6 c 0,20,21
 135 -5 135 -5 127.5 -12.5 c 128,-1,22
 120 -20 120 -20 109 -20 c 256,23,24
 98 -20 98 -20 90 -12.5 c 128,-1,25
 82 -5 82 -5 82 6 c 0,26,27
 82 15 82 15 88 23 c 1,28,-1
 88 1409 l 1,29,30
 82 1418 82 1418 82 1427 c 0,31,32
 82 1438 82 1438 90 1446 c 128,-1,33
 98 1454 98 1454 109 1454 c 256,34,35
 120 1454 120 1454 127.5 1446 c 128,-1,36
 135 1438 135 1438 135 1427 c 0,37,38
 135 1418 135 1418 129 1409 c 1,39,-1
 129 1024 l 1,40,-1
 457 1425 l 1,41,-1
 457 1427 l 2,42,43
 457 1438 457 1438 464.5 1446 c 128,-1,44
 472 1454 472 1454 483 1454 c 256,45,46
 494 1454 494 1454 502 1446 c 128,-1,47
 510 1438 510 1438 510 1427 c 0,48,49
 510 1418 510 1418 503.5 1410.5 c 128,-1,50
 497 1403 497 1403 487 1401 c 1,51,-1
 180 1024 l 1,52,-1
 301 1024 l 2,53,54
 360 1024 360 1024 401 1004 c 128,-1,55
 442 984 442 984 467 951.5 c 128,-1,56
 492 919 492 919 503 877 c 128,-1,57
 514 835 514 835 514 791 c 2,58,-1
 514 23 l 1,0,1
EndSplineSet
EndChar

StartChar: L
Encoding: 76 76 213
Width: 535
Flags: W
HStem: 0 41<129 520.265> 1434 20G<103.5 114.5>
VStem: 88 41<41 1445.75>
LayerCount: 2
Fore
SplineSet
483 41 m 1,0,1
 492 47 492 47 502 47 c 0,2,3
 513 47 513 47 520.5 39 c 128,-1,4
 528 31 528 31 528 20 c 256,5,6
 528 9 528 9 520.5 1.5 c 128,-1,7
 513 -6 513 -6 502 -6 c 0,8,9
 492 -6 492 -6 483 0 c 1,10,-1
 88 0 l 1,11,-1
 88 1409 l 1,12,13
 82 1418 82 1418 82 1427 c 0,14,15
 82 1438 82 1438 90 1446 c 128,-1,16
 98 1454 98 1454 109 1454 c 256,17,18
 120 1454 120 1454 127.5 1446 c 128,-1,19
 135 1438 135 1438 135 1427 c 0,20,21
 135 1418 135 1418 129 1409 c 1,22,-1
 129 41 l 1,23,-1
 483 41 l 1,0,1
EndSplineSet
EndChar

StartChar: N
Encoding: 78 78 214
Width: 602
Flags: W
HStem: -20 21G<103.5 114.5 488.5 499.5> -20 21G<103.5 114.5 488.5 499.5> 1434 20G<103.5 114.5>
VStem: 82 53<-12.2648 1010 1067 1445.75> 467 53<-12.2648 1376>
LayerCount: 2
Fore
SplineSet
514 23 m 1,0,1
 520 15 520 15 520 6 c 0,2,3
 520 -5 520 -5 512.5 -12.5 c 128,-1,4
 505 -20 505 -20 494 -20 c 256,5,6
 483 -20 483 -20 475 -12.5 c 128,-1,7
 467 -5 467 -5 467 6 c 0,8,9
 467 15 467 15 473 23 c 1,10,-1
 473 1376 l 1,11,-1
 129 1010 l 1,12,-1
 129 23 l 1,13,14
 135 15 135 15 135 6 c 0,15,16
 135 -5 135 -5 127.5 -12.5 c 128,-1,17
 120 -20 120 -20 109 -20 c 256,18,19
 98 -20 98 -20 90 -12.5 c 128,-1,20
 82 -5 82 -5 82 6 c 0,21,22
 82 15 82 15 88 23 c 1,23,-1
 88 1409 l 1,24,25
 82 1418 82 1418 82 1427 c 0,26,27
 82 1438 82 1438 90 1446 c 128,-1,28
 98 1454 98 1454 109 1454 c 256,29,30
 120 1454 120 1454 127.5 1446 c 128,-1,31
 135 1438 135 1438 135 1427 c 0,32,33
 135 1418 135 1418 129 1409 c 1,34,-1
 129 1067 l 1,35,-1
 473 1434 l 1,36,-1
 514 1434 l 1,37,-1
 514 23 l 1,0,1
EndSplineSet
EndChar

